<svg width="245" height="72" viewBox="0 0 245 72" fill="none" xmlns="http://www.w3.org/2000/svg">
<path d="M95.5948 48.448C93.8652 48.448 92.2744 48.1597 90.8223 47.5832C89.3917 46.9853 88.1532 46.1632 87.1069 45.1169C86.0605 44.0705 85.2491 42.8427 84.6726 41.4334C84.1174 40.0241 83.8398 38.4973 83.8398 36.8531C83.8398 35.2089 84.1281 33.6928 84.7046 32.3048C85.3025 30.8955 86.1353 29.6784 87.2029 28.6534C88.292 27.6071 89.5625 26.7957 91.0145 26.2191C92.4665 25.6426 94.0574 25.3543 95.787 25.3543C96.9828 25.3543 98.1252 25.5145 99.2142 25.8348C100.303 26.1551 101.296 26.5928 102.193 27.148C103.09 27.7032 103.837 28.3438 104.435 29.0698L101.456 32.2088C100.901 31.6749 100.314 31.2265 99.6947 30.8635C99.0968 30.4791 98.4668 30.1909 97.8049 29.9987C97.1429 29.7851 96.4596 29.6784 95.755 29.6784C94.7514 29.6784 93.8225 29.8599 92.9684 30.2229C92.1356 30.5859 91.3989 31.0877 90.7583 31.7283C90.1177 32.3689 89.6159 33.127 89.2529 34.0024C88.9112 34.8779 88.7404 35.8282 88.7404 36.8531C88.7404 37.8567 88.9219 38.8069 89.2849 39.7038C89.6693 40.5793 90.1817 41.348 90.8223 42.0099C91.4843 42.6505 92.253 43.163 93.1285 43.5474C94.004 43.9104 94.9435 44.0919 95.9471 44.0919C96.6518 44.0919 97.3244 43.9851 97.965 43.7716C98.6056 43.5581 99.1608 43.2591 99.6306 42.8748C100.122 42.469 100.495 41.9993 100.752 41.4654C101.029 40.9316 101.168 40.3657 101.168 39.7678V38.9991L101.809 39.896H95.4026V35.8922H105.78C105.802 36.1271 105.823 36.4154 105.844 36.757C105.887 37.0987 105.908 37.4403 105.908 37.782C105.93 38.1023 105.941 38.3585 105.941 38.5507C105.941 40.0027 105.674 41.3373 105.14 42.5545C104.627 43.7716 103.901 44.8179 102.962 45.6934C102.044 46.5689 100.955 47.2522 99.6947 47.7433C98.4348 48.2131 97.0682 48.448 95.5948 48.448ZM117.579 48.448C115.743 48.448 114.141 48.0743 112.775 47.3269C111.408 46.5796 110.34 45.5546 109.572 44.2521C108.803 42.9495 108.419 41.4548 108.419 39.7678C108.419 38.4653 108.632 37.2695 109.059 36.1805C109.486 35.0915 110.084 34.1519 110.853 33.3618C111.622 32.5504 112.529 31.9312 113.575 31.5041C114.643 31.0557 115.796 30.8315 117.035 30.8315C118.188 30.8315 119.255 31.045 120.238 31.4721C121.22 31.8778 122.063 32.465 122.768 33.2337C123.494 33.9811 124.049 34.8672 124.434 35.8922C124.818 36.9172 124.989 38.0382 124.946 39.2554L124.914 40.6647H111.301L110.565 37.8781H121.167L120.654 38.4546V37.75C120.611 37.1734 120.419 36.6503 120.078 36.1805C119.757 35.7107 119.341 35.3477 118.828 35.0915C118.316 34.8352 117.739 34.7071 117.099 34.7071C116.159 34.7071 115.358 34.8886 114.696 35.2516C114.056 35.6146 113.565 36.1485 113.223 36.8531C112.881 37.5578 112.711 38.4119 112.711 39.4155C112.711 40.4405 112.924 41.3266 113.351 42.074C113.8 42.8214 114.419 43.4086 115.209 43.8357C116.02 44.2414 116.971 44.4442 118.06 44.4442C118.807 44.4442 119.49 44.3268 120.11 44.0919C120.729 43.857 121.391 43.4513 122.095 42.8748L124.273 45.9176C123.654 46.4728 122.971 46.9426 122.224 47.3269C121.476 47.6899 120.707 47.9675 119.917 48.1597C119.127 48.3519 118.348 48.448 117.579 48.448ZM128.275 48.1277V31.1838H132.663L132.759 34.4188L132.087 34.5469C132.322 33.9918 132.631 33.49 133.016 33.0415C133.4 32.5931 133.848 32.2088 134.361 31.8885C134.895 31.5682 135.45 31.3226 136.026 31.1518C136.603 30.9596 137.18 30.8635 137.756 30.8635C138.632 30.8635 139.422 31.0023 140.126 31.2799C140.831 31.5575 141.429 31.9952 141.92 32.5931C142.411 33.1697 142.795 33.9384 143.073 34.8993L142.368 34.8352L142.593 34.3227C142.87 33.8103 143.223 33.3512 143.65 32.9454C144.077 32.5184 144.557 32.1554 145.091 31.8564C145.625 31.5361 146.18 31.2906 146.757 31.1197C147.333 30.9489 147.899 30.8635 148.454 30.8635C149.778 30.8635 150.878 31.1304 151.753 31.6642C152.629 32.1767 153.28 32.9561 153.707 34.0024C154.155 35.0488 154.38 36.33 154.38 37.846V48.1277H149.831V38.1663C149.831 37.3976 149.725 36.7677 149.511 36.2766C149.298 35.7854 148.988 35.4224 148.582 35.1876C148.177 34.9313 147.653 34.8032 147.013 34.8032C146.522 34.8032 146.063 34.8886 145.635 35.0594C145.23 35.2089 144.867 35.4331 144.546 35.7321C144.248 36.0097 144.013 36.3406 143.842 36.725C143.671 37.1094 143.586 37.5364 143.586 38.0062V48.1277H139.037V38.1343C139.037 37.4297 138.92 36.8318 138.685 36.3406C138.471 35.8282 138.162 35.4438 137.756 35.1876C137.35 34.9313 136.849 34.8032 136.251 34.8032C135.76 34.8032 135.3 34.8886 134.873 35.0594C134.468 35.2089 134.115 35.4331 133.816 35.7321C133.517 36.0097 133.272 36.3406 133.08 36.725C132.909 37.1094 132.823 37.5257 132.823 37.9742V48.1277H128.275ZM166.622 48.448C165.234 48.448 163.964 48.2772 162.811 47.9355C161.679 47.5939 160.665 47.092 159.768 46.4301C158.892 45.7681 158.102 44.9674 157.398 44.0278L160.408 40.6006C161.455 42.0527 162.49 43.0456 163.515 43.5794C164.562 44.0919 165.693 44.3481 166.91 44.3481C167.572 44.3481 168.16 44.2627 168.672 44.0919C169.206 43.8997 169.622 43.6328 169.921 43.2911C170.22 42.9495 170.37 42.5438 170.37 42.074C170.37 41.7324 170.295 41.4227 170.145 41.1451C169.996 40.8462 169.782 40.5899 169.505 40.3764C169.227 40.1415 168.896 39.9387 168.512 39.7678C168.128 39.5757 167.701 39.4155 167.231 39.2874C166.761 39.1379 166.248 39.0205 165.693 38.9351C164.498 38.6575 163.451 38.3265 162.554 37.9421C161.658 37.5364 160.91 37.0453 160.312 36.4688C159.714 35.8709 159.266 35.1982 158.967 34.4509C158.689 33.7035 158.551 32.86 158.551 31.9205C158.551 30.9596 158.764 30.0734 159.191 29.262C159.618 28.4292 160.205 27.7139 160.953 27.116C161.722 26.5181 162.597 26.059 163.579 25.7387C164.583 25.4184 165.64 25.2582 166.75 25.2582C168.117 25.2582 169.313 25.4184 170.338 25.7387C171.363 26.0376 172.249 26.4754 172.996 27.0519C173.765 27.6285 174.405 28.3331 174.918 29.1659L171.875 32.1127C171.427 31.5148 170.936 31.013 170.402 30.6073C169.889 30.2015 169.323 29.9026 168.704 29.7104C168.106 29.4969 167.487 29.3901 166.846 29.3901C166.142 29.3901 165.533 29.4862 165.021 29.6784C164.508 29.8492 164.102 30.1055 163.804 30.4471C163.526 30.7888 163.387 31.2051 163.387 31.6963C163.387 32.0806 163.483 32.4223 163.675 32.7212C163.868 33.0202 164.145 33.2871 164.508 33.522C164.871 33.7355 165.309 33.9277 165.821 34.0985C166.334 34.2694 166.9 34.4188 167.519 34.5469C168.693 34.7818 169.75 35.0915 170.69 35.4758C171.63 35.8602 172.43 36.33 173.092 36.8851C173.776 37.419 174.299 38.0596 174.662 38.8069C175.025 39.533 175.206 40.3551 175.206 41.2733C175.206 42.7893 174.843 44.0812 174.117 45.1489C173.391 46.2166 172.388 47.0387 171.106 47.6152C169.825 48.1704 168.33 48.448 166.622 48.448ZM178.949 48.1277V24.4255H183.497V48.1277H178.949ZM195.84 48.448C194.004 48.448 192.402 48.0743 191.036 47.3269C189.669 46.5796 188.601 45.5546 187.833 44.2521C187.064 42.9495 186.679 41.4548 186.679 39.7678C186.679 38.4653 186.893 37.2695 187.32 36.1805C187.747 35.0915 188.345 34.1519 189.114 33.3618C189.882 32.5504 190.79 31.9312 191.836 31.5041C192.904 31.0557 194.057 30.8315 195.296 30.8315C196.449 30.8315 197.516 31.045 198.499 31.4721C199.481 31.8778 200.324 32.465 201.029 33.2337C201.755 33.9811 202.31 34.8672 202.694 35.8922C203.079 36.9172 203.25 38.0382 203.207 39.2554L203.175 40.6647H189.562L188.825 37.8781H199.427L198.915 38.4546V37.75C198.872 37.1734 198.68 36.6503 198.338 36.1805C198.018 35.7107 197.602 35.3477 197.089 35.0915C196.577 34.8352 196 34.7071 195.36 34.7071C194.42 34.7071 193.619 34.8886 192.957 35.2516C192.317 35.6146 191.826 36.1485 191.484 36.8531C191.142 37.5578 190.972 38.4119 190.972 39.4155C190.972 40.4405 191.185 41.3266 191.612 42.074C192.061 42.8214 192.68 43.4086 193.47 43.8357C194.281 44.2414 195.231 44.4442 196.321 44.4442C197.068 44.4442 197.751 44.3268 198.37 44.0919C198.99 43.857 199.652 43.4513 200.356 42.8748L202.534 45.9176C201.915 46.4728 201.232 46.9426 200.484 47.3269C199.737 47.6899 198.968 47.9675 198.178 48.1597C197.388 48.3519 196.609 48.448 195.84 48.448ZM214.608 48.448C212.771 48.448 211.17 48.0743 209.803 47.3269C208.437 46.5796 207.369 45.5546 206.6 44.2521C205.831 42.9495 205.447 41.4548 205.447 39.7678C205.447 38.4653 205.661 37.2695 206.088 36.1805C206.515 35.0915 207.113 34.1519 207.881 33.3618C208.65 32.5504 209.558 31.9312 210.604 31.5041C211.672 31.0557 212.825 30.8315 214.063 30.8315C215.216 30.8315 216.284 31.045 217.266 31.4721C218.248 31.8778 219.092 32.465 219.797 33.2337C220.523 33.9811 221.078 34.8672 221.462 35.8922C221.846 36.9172 222.017 38.0382 221.975 39.2554L221.943 40.6647H208.33L207.593 37.8781H218.195L217.683 38.4546V37.75C217.64 37.1734 217.448 36.6503 217.106 36.1805C216.786 35.7107 216.369 35.3477 215.857 35.0915C215.344 34.8352 214.768 34.7071 214.127 34.7071C213.188 34.7071 212.387 34.8886 211.725 35.2516C211.084 35.6146 210.593 36.1485 210.252 36.8531C209.91 37.5578 209.739 38.4119 209.739 39.4155C209.739 40.4405 209.953 41.3266 210.38 42.074C210.828 42.8214 211.447 43.4086 212.237 43.8357C213.049 44.2414 213.999 44.4442 215.088 44.4442C215.835 44.4442 216.519 44.3268 217.138 44.0919C217.757 43.857 218.419 43.4513 219.124 42.8748L221.302 45.9176C220.683 46.4728 219.999 46.9426 219.252 47.3269C218.505 47.6899 217.736 47.9675 216.946 48.1597C216.156 48.3519 215.376 48.448 214.608 48.448ZM225.336 55.1743V31.1838H229.724L229.852 34.9954L229.019 34.7071C229.169 34.0238 229.532 33.3939 230.108 32.8173C230.706 32.2408 231.443 31.771 232.318 31.408C233.194 31.045 234.112 30.8635 235.073 30.8635C236.546 30.8635 237.849 31.2479 238.981 32.0166C240.134 32.7639 241.041 33.7996 241.703 35.1235C242.386 36.426 242.728 37.9315 242.728 39.6397C242.728 41.3266 242.397 42.8321 241.735 44.156C241.073 45.4799 240.166 46.5262 239.013 47.2949C237.859 48.0423 236.546 48.416 235.073 48.416C234.091 48.416 233.151 48.2345 232.254 47.8714C231.379 47.4871 230.631 46.9853 230.012 46.366C229.393 45.7468 229.009 45.0848 228.859 44.3802L229.916 43.9318V55.1743H225.336ZM234.048 44.5083C234.881 44.5083 235.617 44.3054 236.258 43.8997C236.899 43.494 237.4 42.9281 237.763 42.2021C238.126 41.4548 238.308 40.6006 238.308 39.6397C238.308 38.6788 238.126 37.8354 237.763 37.1094C237.4 36.3833 236.899 35.8175 236.258 35.4118C235.639 35.006 234.902 34.8032 234.048 34.8032C233.194 34.8032 232.446 35.006 231.806 35.4118C231.165 35.7961 230.663 36.362 230.3 37.1094C229.937 37.8354 229.756 38.6788 229.756 39.6397C229.756 40.6006 229.937 41.4548 230.3 42.2021C230.663 42.9281 231.165 43.494 231.806 43.8997C232.446 44.3054 233.194 44.5083 234.048 44.5083Z" fill="#12235D"/>
<rect x="0.460938" y="0.623047" width="71.0464" height="71.0464" rx="9.61324" fill="#12235D"/>
<path d="M27.4288 45.5506H22.7812V49.3826H27.4288V54.299H32.2266V49.3826H37.0239V45.5506H32.2266V40.9233H27.4288V45.5506Z" stroke="#96A9EB" stroke-width="1.59655" stroke-linecap="round"/>
<mask id="path-4-outside-1_3023_221" maskUnits="userSpaceOnUse" x="19.6094" y="15.4028" width="32" height="33" fill="black">
<rect fill="white" x="19.6094" y="15.4028" width="32" height="33"/>
<path fill-rule="evenodd" clip-rule="evenodd" d="M28.7986 17.7654C28.8969 17.5915 28.9773 17.4313 28.9773 17.4094C28.9773 17.3406 28.2509 17.8272 27.6308 18.3114C19.8551 24.3826 19.6455 36.8084 26.7973 43.2807V43.1988C19.5641 36.6139 19.9404 24.0965 28.0131 18.0919C28.8857 17.4429 28.9469 17.4265 28.675 17.9154C28.5625 18.1178 28.4786 18.2924 28.4886 18.3033C28.4987 18.3142 28.5323 18.2688 28.5634 18.2023C28.5945 18.1358 28.7003 17.9392 28.7986 17.7654ZM37.5078 46.8171V46.8809C43.3225 46.2523 48.6365 41.8391 50.2223 34.9971C50.4126 34.1757 50.4084 34.1625 50.0893 34.5808C49.9717 34.735 49.6431 35.1134 49.3589 35.4218C48.8283 35.9978 48.7182 36.1084 48.4599 36.3249C48.3776 36.3939 48.3028 36.4595 48.2937 36.4706C48.2845 36.4818 48.2022 36.5554 48.1108 36.6343C48.0194 36.7132 47.9371 36.7862 47.928 36.7966C47.9114 36.8154 47.0197 37.4583 46.7976 37.6116C46.6394 37.7208 45.5936 38.3147 45.5595 38.3147C45.5446 38.3147 45.443 38.3637 45.3337 38.4237C45.2246 38.4836 45.1352 38.5225 45.1352 38.5099C45.1352 38.4974 45.0987 38.5132 45.054 38.545C44.9793 38.5983 44.7554 38.6968 44.6365 38.7287C44.6091 38.7361 44.5193 38.7737 44.437 38.8122C44.3548 38.8508 44.2051 38.9035 44.1046 38.9295C44.004 38.9555 43.8993 38.99 43.8718 39.0063C43.8287 39.0319 43.0112 39.2715 42.8246 39.3133C42.788 39.3215 42.5486 39.3677 42.2926 39.416C41.8344 39.5024 41.6734 39.5253 41.2453 39.5651C41.1265 39.5761 40.9694 39.5916 40.8963 39.5995C40.7157 39.6189 39.2203 39.6227 39.1909 39.6038C39.178 39.5955 39.0328 39.5775 38.8682 39.5639C38.7036 39.5503 38.4343 39.5167 38.2698 39.4892C38.1052 39.4618 37.9032 39.4292 37.8209 39.4169C37.7386 39.4046 37.604 39.378 37.5217 39.3577C37.4394 39.3374 37.3422 39.3162 37.3056 39.3104C37.2361 39.2996 37.1405 39.277 36.89 39.212C36.4517 39.0985 35.3775 38.7204 35.1063 38.5843C35.0487 38.5553 34.993 38.5316 34.9826 38.5316C34.9258 38.5316 33.7495 37.9137 33.5986 37.8046C33.5529 37.7716 33.4614 37.7116 33.3953 37.6714C33.1633 37.53 33.1173 37.4985 32.703 37.1969C31.4985 36.3201 30.523 35.3363 29.6338 34.1017C29.6194 34.0818 29.5818 34.0304 29.5501 33.9875C29.5185 33.9446 29.4702 33.8734 29.4427 33.8294C29.4153 33.7853 29.3775 33.7309 29.3588 33.7085C29.34 33.686 29.2362 33.5212 29.128 33.3422C29.0198 33.1632 28.9212 33.0086 28.9089 32.9987C28.8966 32.9887 28.8525 32.9074 28.811 32.8179C28.7695 32.7284 28.7247 32.647 28.7113 32.6371C28.6813 32.6148 28.0131 31.2329 28.0131 31.1931C28.0131 31.1774 27.9617 31.0436 27.8989 30.8957C27.7687 30.5891 27.5865 30.0318 27.3213 29.1292H27.3033C27.3266 29.283 27.5233 29.9634 27.6379 30.2865C27.6837 30.4157 27.7439 30.5866 27.7716 30.6662C27.7993 30.7457 27.8576 30.8863 27.9009 30.9784C27.9444 31.0707 27.9799 31.1651 27.9799 31.1883C27.9799 31.2363 28.5977 32.5194 28.7164 32.7177C28.7593 32.7895 28.8393 32.933 28.8942 33.0366C28.949 33.1402 29.0189 33.2542 29.0496 33.2899C29.0802 33.3256 29.1234 33.3917 29.1455 33.4367C29.1676 33.4817 29.199 33.5358 29.2152 33.5569C29.2313 33.5781 29.3653 33.7717 29.5128 33.9873C29.6604 34.2029 29.806 34.4071 29.8363 34.441C29.8667 34.475 29.9733 34.6078 30.0733 34.7362C30.3148 35.0465 31.1666 35.9732 31.4367 36.2197C31.5552 36.3277 31.6687 36.4324 31.6891 36.4523C31.7095 36.4721 31.7697 36.5236 31.8229 36.5666L32.0692 36.7662C32.9397 37.472 34.6722 38.5547 34.9542 38.569C34.9675 38.5697 35.0382 38.6017 35.1113 38.6401C35.1845 38.6786 35.2675 38.7105 35.2958 38.7112C35.3242 38.7119 35.3616 38.7271 35.3789 38.745C35.5219 38.8921 37.4063 39.4161 38.2531 39.5441C39.225 39.6911 40.4337 39.7126 41.3825 39.5997C42.0546 39.5197 42.1445 39.5068 42.276 39.4713C42.34 39.454 42.4522 39.4304 42.5254 39.4189C42.5985 39.4073 42.8454 39.3491 43.0739 39.2895C43.3025 39.2299 43.5269 39.173 43.5726 39.1631C43.6183 39.1531 43.6857 39.1296 43.7222 39.1108C43.7588 39.0921 43.871 39.0533 43.9716 39.0246C44.2817 38.9363 44.8027 38.7246 45.3846 38.4504C45.7873 38.2607 46.8132 37.6615 47.1633 37.4115C47.6101 37.0925 48.1489 36.6772 48.1939 36.6172C48.2031 36.605 48.2779 36.5385 48.3601 36.4694C48.8869 36.0267 49.6508 35.2145 50.1637 34.5519C50.3165 34.3544 50.3166 34.363 50.17 34.9985C48.6038 41.7853 43.3017 46.1839 37.5078 46.8171ZM27.9635 19.4918C27.9954 19.4122 28.1246 19.1193 28.2506 18.8408C28.3765 18.5624 28.456 18.3671 28.4271 18.4069C28.2861 18.6011 27.6962 20.0185 27.7798 19.9623C27.7984 19.9498 27.8136 19.9226 27.8136 19.9019C27.8136 19.8813 27.8343 19.813 27.8595 19.7504L27.9635 19.4918ZM27.6591 20.303C27.6836 20.252 27.713 20.1625 27.7245 20.1041L27.7454 19.9981L27.7085 20.0885C27.5941 20.3689 27.5778 20.4211 27.5926 20.4608C27.603 20.4887 27.6099 20.4848 27.6117 20.4501C27.6133 20.4203 27.6346 20.3541 27.6591 20.303ZM27.4179 21.133C27.5076 20.8225 27.5794 20.554 27.5775 20.5363C27.5723 20.4878 27.2541 21.5586 27.2001 21.8062L27.1009 22.2606C27.0723 22.3911 27.0502 22.5294 27.0516 22.568C27.0551 22.6612 27.0615 22.6365 27.1656 22.1317C27.2147 21.893 27.3283 21.4436 27.4179 21.133ZM27.026 22.8278C27.0344 22.8626 27.0412 22.8341 27.0412 22.7645C27.0412 22.6949 27.0344 22.6664 27.026 22.7012C27.0177 22.7361 27.0177 22.793 27.026 22.8278ZM26.9303 23.6867C26.9582 23.4281 26.9884 23.1433 26.9975 23.0538L27.014 22.8911L26.9842 23.0177C26.7505 24.0102 26.7887 26.8885 27.0494 27.9359L27.181 28.4034C27.1166 28.1856 27.0626 28.0916 27.1648 28.5693C27.2142 28.8006 27.2607 28.9833 27.2681 28.9753C27.3123 28.9272 27.242 28.6098 27.181 28.4035L27.181 28.4035L27.181 28.4034C27.181 28.4035 27.181 28.4035 27.181 28.4035L27.0627 27.8997C27.0527 27.8102 27.0164 27.5308 26.9821 27.2788C26.833 26.1821 26.8126 24.7769 26.9303 23.6867Z"/>
</mask>
<path fill-rule="evenodd" clip-rule="evenodd" d="M28.7986 17.7654C28.8969 17.5915 28.9773 17.4313 28.9773 17.4094C28.9773 17.3406 28.2509 17.8272 27.6308 18.3114C19.8551 24.3826 19.6455 36.8084 26.7973 43.2807V43.1988C19.5641 36.6139 19.9404 24.0965 28.0131 18.0919C28.8857 17.4429 28.9469 17.4265 28.675 17.9154C28.5625 18.1178 28.4786 18.2924 28.4886 18.3033C28.4987 18.3142 28.5323 18.2688 28.5634 18.2023C28.5945 18.1358 28.7003 17.9392 28.7986 17.7654ZM37.5078 46.8171V46.8809C43.3225 46.2523 48.6365 41.8391 50.2223 34.9971C50.4126 34.1757 50.4084 34.1625 50.0893 34.5808C49.9717 34.735 49.6431 35.1134 49.3589 35.4218C48.8283 35.9978 48.7182 36.1084 48.4599 36.3249C48.3776 36.3939 48.3028 36.4595 48.2937 36.4706C48.2845 36.4818 48.2022 36.5554 48.1108 36.6343C48.0194 36.7132 47.9371 36.7862 47.928 36.7966C47.9114 36.8154 47.0197 37.4583 46.7976 37.6116C46.6394 37.7208 45.5936 38.3147 45.5595 38.3147C45.5446 38.3147 45.443 38.3637 45.3337 38.4237C45.2246 38.4836 45.1352 38.5225 45.1352 38.5099C45.1352 38.4974 45.0987 38.5132 45.054 38.545C44.9793 38.5983 44.7554 38.6968 44.6365 38.7287C44.6091 38.7361 44.5193 38.7737 44.437 38.8122C44.3548 38.8508 44.2051 38.9035 44.1046 38.9295C44.004 38.9555 43.8993 38.99 43.8718 39.0063C43.8287 39.0319 43.0112 39.2715 42.8246 39.3133C42.788 39.3215 42.5486 39.3677 42.2926 39.416C41.8344 39.5024 41.6734 39.5253 41.2453 39.5651C41.1265 39.5761 40.9694 39.5916 40.8963 39.5995C40.7157 39.6189 39.2203 39.6227 39.1909 39.6038C39.178 39.5955 39.0328 39.5775 38.8682 39.5639C38.7036 39.5503 38.4343 39.5167 38.2698 39.4892C38.1052 39.4618 37.9032 39.4292 37.8209 39.4169C37.7386 39.4046 37.604 39.378 37.5217 39.3577C37.4394 39.3374 37.3422 39.3162 37.3056 39.3104C37.2361 39.2996 37.1405 39.277 36.89 39.212C36.4517 39.0985 35.3775 38.7204 35.1063 38.5843C35.0487 38.5553 34.993 38.5316 34.9826 38.5316C34.9258 38.5316 33.7495 37.9137 33.5986 37.8046C33.5529 37.7716 33.4614 37.7116 33.3953 37.6714C33.1633 37.53 33.1173 37.4985 32.703 37.1969C31.4985 36.3201 30.523 35.3363 29.6338 34.1017C29.6194 34.0818 29.5818 34.0304 29.5501 33.9875C29.5185 33.9446 29.4702 33.8734 29.4427 33.8294C29.4153 33.7853 29.3775 33.7309 29.3588 33.7085C29.34 33.686 29.2362 33.5212 29.128 33.3422C29.0198 33.1632 28.9212 33.0086 28.9089 32.9987C28.8966 32.9887 28.8525 32.9074 28.811 32.8179C28.7695 32.7284 28.7247 32.647 28.7113 32.6371C28.6813 32.6148 28.0131 31.2329 28.0131 31.1931C28.0131 31.1774 27.9617 31.0436 27.8989 30.8957C27.7687 30.5891 27.5865 30.0318 27.3213 29.1292H27.3033C27.3266 29.283 27.5233 29.9634 27.6379 30.2865C27.6837 30.4157 27.7439 30.5866 27.7716 30.6662C27.7993 30.7457 27.8576 30.8863 27.9009 30.9784C27.9444 31.0707 27.9799 31.1651 27.9799 31.1883C27.9799 31.2363 28.5977 32.5194 28.7164 32.7177C28.7593 32.7895 28.8393 32.933 28.8942 33.0366C28.949 33.1402 29.0189 33.2542 29.0496 33.2899C29.0802 33.3256 29.1234 33.3917 29.1455 33.4367C29.1676 33.4817 29.199 33.5358 29.2152 33.5569C29.2313 33.5781 29.3653 33.7717 29.5128 33.9873C29.6604 34.2029 29.806 34.4071 29.8363 34.441C29.8667 34.475 29.9733 34.6078 30.0733 34.7362C30.3148 35.0465 31.1666 35.9732 31.4367 36.2197C31.5552 36.3277 31.6687 36.4324 31.6891 36.4523C31.7095 36.4721 31.7697 36.5236 31.8229 36.5666L32.0692 36.7662C32.9397 37.472 34.6722 38.5547 34.9542 38.569C34.9675 38.5697 35.0382 38.6017 35.1113 38.6401C35.1845 38.6786 35.2675 38.7105 35.2958 38.7112C35.3242 38.7119 35.3616 38.7271 35.3789 38.745C35.5219 38.8921 37.4063 39.4161 38.2531 39.5441C39.225 39.6911 40.4337 39.7126 41.3825 39.5997C42.0546 39.5197 42.1445 39.5068 42.276 39.4713C42.34 39.454 42.4522 39.4304 42.5254 39.4189C42.5985 39.4073 42.8454 39.3491 43.0739 39.2895C43.3025 39.2299 43.5269 39.173 43.5726 39.1631C43.6183 39.1531 43.6857 39.1296 43.7222 39.1108C43.7588 39.0921 43.871 39.0533 43.9716 39.0246C44.2817 38.9363 44.8027 38.7246 45.3846 38.4504C45.7873 38.2607 46.8132 37.6615 47.1633 37.4115C47.6101 37.0925 48.1489 36.6772 48.1939 36.6172C48.2031 36.605 48.2779 36.5385 48.3601 36.4694C48.8869 36.0267 49.6508 35.2145 50.1637 34.5519C50.3165 34.3544 50.3166 34.363 50.17 34.9985C48.6038 41.7853 43.3017 46.1839 37.5078 46.8171ZM27.9635 19.4918C27.9954 19.4122 28.1246 19.1193 28.2506 18.8408C28.3765 18.5624 28.456 18.3671 28.4271 18.4069C28.2861 18.6011 27.6962 20.0185 27.7798 19.9623C27.7984 19.9498 27.8136 19.9226 27.8136 19.9019C27.8136 19.8813 27.8343 19.813 27.8595 19.7504L27.9635 19.4918ZM27.6591 20.303C27.6836 20.252 27.713 20.1625 27.7245 20.1041L27.7454 19.9981L27.7085 20.0885C27.5941 20.3689 27.5778 20.4211 27.5926 20.4608C27.603 20.4887 27.6099 20.4848 27.6117 20.4501C27.6133 20.4203 27.6346 20.3541 27.6591 20.303ZM27.4179 21.133C27.5076 20.8225 27.5794 20.554 27.5775 20.5363C27.5723 20.4878 27.2541 21.5586 27.2001 21.8062L27.1009 22.2606C27.0723 22.3911 27.0502 22.5294 27.0516 22.568C27.0551 22.6612 27.0615 22.6365 27.1656 22.1317C27.2147 21.893 27.3283 21.4436 27.4179 21.133ZM27.026 22.8278C27.0344 22.8626 27.0412 22.8341 27.0412 22.7645C27.0412 22.6949 27.0344 22.6664 27.026 22.7012C27.0177 22.7361 27.0177 22.793 27.026 22.8278ZM26.9303 23.6867C26.9582 23.4281 26.9884 23.1433 26.9975 23.0538L27.014 22.8911L26.9842 23.0177C26.7505 24.0102 26.7887 26.8885 27.0494 27.9359L27.181 28.4034C27.1166 28.1856 27.0626 28.0916 27.1648 28.5693C27.2142 28.8006 27.2607 28.9833 27.2681 28.9753C27.3123 28.9272 27.242 28.6098 27.181 28.4035L27.181 28.4035L27.181 28.4034C27.181 28.4035 27.181 28.4035 27.181 28.4035L27.0627 27.8997C27.0527 27.8102 27.0164 27.5308 26.9821 27.2788C26.833 26.1821 26.8126 24.7769 26.9303 23.6867Z" fill="black"/>
<path d="M28.7986 17.7654L29.7913 18.3267L29.7913 18.3266L28.7986 17.7654ZM27.6308 18.3114L26.929 17.4125L26.929 17.4125L27.6308 18.3114ZM26.7973 43.2807L26.0321 44.1263L27.9377 45.8508V43.2807H26.7973ZM26.7973 43.1988H27.9377V42.6948L27.565 42.3555L26.7973 43.1988ZM28.0131 18.0919L27.3325 17.1769L27.3325 17.1769L28.0131 18.0919ZM28.675 17.9154L29.6716 18.4697L29.6717 18.4696L28.675 17.9154ZM28.4886 18.3033L29.3282 17.5315L29.3269 17.5301L28.4886 18.3033ZM28.5634 18.2023L27.5303 17.7194L27.5303 17.7194L28.5634 18.2023ZM37.5078 46.8809H36.3674V48.1512L37.6304 48.0147L37.5078 46.8809ZM37.5078 46.8171L37.3839 45.6835L36.3674 45.7946V46.8171H37.5078ZM50.2223 34.9971L51.3332 35.2546L51.3332 35.2546L50.2223 34.9971ZM50.0893 34.5808L49.1826 33.8892L49.1825 33.8893L50.0893 34.5808ZM49.3589 35.4218L48.5202 34.6491L48.5202 34.6491L49.3589 35.4218ZM48.4599 36.3249L47.7272 35.4511L47.7272 35.4511L48.4599 36.3249ZM48.2937 36.4706L47.4123 35.747L47.4122 35.7472L48.2937 36.4706ZM47.928 36.7966L47.0723 36.0427L47.0713 36.0439L47.928 36.7966ZM46.7976 37.6116L46.1498 36.673L46.1498 36.673L46.7976 37.6116ZM45.3337 38.4237L44.7849 37.424L44.7848 37.4241L45.3337 38.4237ZM45.054 38.545L44.3922 37.6163L44.3922 37.6164L45.054 38.545ZM44.6365 38.7287L44.3407 37.6274L44.3403 37.6275L44.6365 38.7287ZM44.437 38.8122L44.9208 39.8449L44.9209 39.8449L44.437 38.8122ZM44.1046 38.9295L44.3896 40.0337L44.39 40.0336L44.1046 38.9295ZM43.8718 39.0063L43.2909 38.0249L43.2903 38.0253L43.8718 39.0063ZM42.8246 39.3133L43.0733 40.4263L43.0739 40.4261L42.8246 39.3133ZM42.2926 39.416L42.0814 38.2953L42.0813 38.2953L42.2926 39.416ZM41.2453 39.5651L41.3507 40.7006L41.351 40.7006L41.2453 39.5651ZM40.8963 39.5995L41.0182 40.7333L41.0185 40.7333L40.8963 39.5995ZM39.1909 39.6038L39.8075 38.6445L39.807 38.6441L39.1909 39.6038ZM38.8682 39.5639L38.7741 40.7004L38.7743 40.7005L38.8682 39.5639ZM38.2698 39.4892L38.4576 38.3644L38.4576 38.3644L38.2698 39.4892ZM37.8209 39.4169L37.6519 40.5447L37.6524 40.5448L37.8209 39.4169ZM37.5217 39.3577L37.2487 40.4649L37.2492 40.4651L37.5217 39.3577ZM37.3056 39.3104L37.4817 38.1837L37.4815 38.1837L37.3056 39.3104ZM36.89 39.212L37.1761 38.1081L37.176 38.1081L36.89 39.212ZM35.1063 38.5843L34.5946 39.6034L34.5947 39.6034L35.1063 38.5843ZM33.5986 37.8046L32.9304 38.7288L32.9305 38.7288L33.5986 37.8046ZM33.3953 37.6714L33.9887 36.6975L33.9886 36.6974L33.3953 37.6714ZM32.703 37.1969L33.3742 36.275L33.3742 36.275L32.703 37.1969ZM29.6338 34.1017L30.5591 33.4352L30.559 33.4351L29.6338 34.1017ZM29.5501 33.9875L28.6326 34.6646L28.6329 34.6651L29.5501 33.9875ZM29.4427 33.8294L28.4745 34.4318L28.4747 34.4322L29.4427 33.8294ZM29.3588 33.7085L30.2342 32.9776L30.2336 32.9769L29.3588 33.7085ZM29.128 33.3422L28.152 33.9321L28.1521 33.9322L29.128 33.3422ZM28.9089 32.9987L28.1931 33.8865L28.1931 33.8865L28.9089 32.9987ZM28.7113 32.6371L28.0312 33.5525L28.0316 33.5528L28.7113 32.6371ZM27.8989 30.8957L28.9486 30.4499L28.9485 30.4498L27.8989 30.8957ZM27.3213 29.1292L28.4154 28.8078L28.1748 27.9888H27.3213V29.1292ZM27.3033 29.1292V27.9888H25.977L26.1758 29.3002L27.3033 29.1292ZM27.6379 30.2865L26.563 30.6675L26.5631 30.6676L27.6379 30.2865ZM27.7716 30.6662L26.6947 31.0415L26.6947 31.0415L27.7716 30.6662ZM27.9009 30.9784L26.8691 31.4641L26.8692 31.4642L27.9009 30.9784ZM28.7164 32.7177L29.6951 32.1325L29.695 32.1322L28.7164 32.7177ZM28.8942 33.0366L27.8862 33.5701L27.8863 33.5702L28.8942 33.0366ZM29.0496 33.2899L29.9151 32.5474L29.9151 32.5474L29.0496 33.2899ZM29.1455 33.4367L30.1688 32.9334L30.1687 32.9331L29.1455 33.4367ZM29.2152 33.5569L30.1215 32.8648L30.1207 32.8638L29.2152 33.5569ZM29.5128 33.9873L30.4539 33.3433L30.4539 33.3432L29.5128 33.9873ZM29.8363 34.441L30.6865 33.681L30.6865 33.681L29.8363 34.441ZM30.0733 34.7362L29.1734 35.4367L29.1735 35.4368L30.0733 34.7362ZM31.4367 36.2197L32.2054 35.3772L32.2054 35.3772L31.4367 36.2197ZM31.6891 36.4523L32.4857 35.6361L32.485 35.6355L31.6891 36.4523ZM31.8229 36.5666L32.5408 35.6805L32.5402 35.68L31.8229 36.5666ZM32.0692 36.7662L32.7875 35.8804L32.787 35.88L32.0692 36.7662ZM34.9542 38.569L35.0132 37.4302L35.0122 37.4301L34.9542 38.569ZM35.2958 38.7112L35.2682 39.8513H35.2682L35.2958 38.7112ZM35.3789 38.745L34.561 39.5396L34.561 39.5396L35.3789 38.745ZM38.2531 39.5441L38.0826 40.6717L38.0826 40.6717L38.2531 39.5441ZM41.3825 39.5997L41.2478 38.4673L41.2477 38.4673L41.3825 39.5997ZM42.276 39.4713L41.9792 38.3702L41.9786 38.3704L42.276 39.4713ZM42.5254 39.4189L42.703 40.5454L42.7036 40.5453L42.5254 39.4189ZM43.0739 39.2895L42.7862 38.186H42.7862L43.0739 39.2895ZM43.5726 39.1631L43.815 40.2774L43.8159 40.2772L43.5726 39.1631ZM43.7222 39.1108L43.2024 38.0958L43.2016 38.0962L43.7222 39.1108ZM43.9716 39.0246L44.2839 40.1214L44.2841 40.1214L43.9716 39.0246ZM45.3846 38.4504L44.8986 37.4188L44.8985 37.4188L45.3846 38.4504ZM47.1633 37.4115L47.8259 38.3397L47.826 38.3396L47.1633 37.4115ZM48.1939 36.6172L49.1061 37.3017L49.1062 37.3015L48.1939 36.6172ZM48.3601 36.4694L47.6264 35.5964L47.6263 35.5964L48.3601 36.4694ZM50.1637 34.5519L49.262 33.8538L49.2619 33.8539L50.1637 34.5519ZM50.17 34.9985L51.2812 35.255L51.2812 35.255L50.17 34.9985ZM28.2506 18.8408L29.2896 19.3109L29.2896 19.3109L28.2506 18.8408ZM27.9635 19.4918L29.0216 19.9171L29.0219 19.9164L27.9635 19.4918ZM28.4271 18.4069L29.3499 19.0769L29.3502 19.0765L28.4271 18.4069ZM27.7798 19.9623L27.1437 19.0158L27.1436 19.0158L27.7798 19.9623ZM27.8595 19.7504L28.9174 20.1763L28.9176 20.1757L27.8595 19.7504ZM27.7245 20.1041L26.6056 19.8839L26.6055 19.8842L27.7245 20.1041ZM27.6591 20.303L28.6872 20.7964L28.6874 20.7961L27.6591 20.303ZM27.7454 19.9981L28.8643 20.2183L26.6896 19.5671L27.7454 19.9981ZM27.7085 20.0885L26.6527 19.6575L26.6525 19.6578L27.7085 20.0885ZM27.5926 20.4608L28.6612 20.0625L28.661 20.062L27.5926 20.4608ZM27.6117 20.4501L26.4729 20.3904L26.4729 20.3913L27.6117 20.4501ZM27.5775 20.5363L26.4435 20.6574L26.4436 20.6583L27.5775 20.5363ZM27.4179 21.133L28.5136 21.4493L27.4179 21.133ZM27.2001 21.8062L28.3143 22.0495L28.3144 22.049L27.2001 21.8062ZM27.1009 22.2606L28.2149 22.5045L28.2151 22.5038L27.1009 22.2606ZM27.0516 22.568L25.912 22.6103L25.912 22.6106L27.0516 22.568ZM27.1656 22.1317L28.2825 22.3619L28.2825 22.3618L27.1656 22.1317ZM27.026 22.8278L28.135 22.5621L28.1348 22.5611L27.026 22.8278ZM27.026 22.7012L28.1348 22.968L28.135 22.967L27.026 22.7012ZM26.9975 23.0538L28.1321 23.1689L28.1321 23.1688L26.9975 23.0538ZM26.9303 23.6867L25.7965 23.5642L25.7965 23.5644L26.9303 23.6867ZM27.014 22.8911L28.1486 23.0061L25.904 22.6298L27.014 22.8911ZM26.9842 23.0177L28.0943 23.2791L28.0943 23.2789L26.9842 23.0177ZM27.0494 27.9359L25.9428 28.2114L25.947 28.2281L25.9517 28.2448L27.0494 27.9359ZM27.1648 28.5693L28.28 28.331L28.2799 28.3308L27.1648 28.5693ZM27.2681 28.9753L26.4285 28.2035L26.4285 28.2035L27.2681 28.9753ZM27.181 28.4035L26.0829 28.711L28.2874 28.1269L27.181 28.4035ZM27.0627 27.8997L25.9294 28.0268L25.937 28.0943L25.9525 28.1604L27.0627 27.8997ZM26.9821 27.2788L25.8521 27.4325L25.8522 27.4326L26.9821 27.2788ZM27.8369 17.4094C27.8369 17.3291 27.8455 17.2652 27.8515 17.2287C27.8579 17.1891 27.8653 17.157 27.8707 17.1355C27.8814 17.0936 27.8921 17.0619 27.8973 17.0469C27.9081 17.016 27.917 16.996 27.9177 16.9944C27.9203 16.9883 27.9175 16.9951 27.9055 17.0189C27.8833 17.0633 27.8478 17.13 27.8059 17.2042L29.7913 18.3266C29.8477 18.2269 29.9016 18.1266 29.944 18.0419C29.9645 18.0012 29.9879 17.953 30.0087 17.9052C30.0184 17.8828 30.0343 17.8453 30.0499 17.8008C30.0576 17.7789 30.0701 17.7414 30.0819 17.6946C30.0895 17.6648 30.1177 17.5538 30.1177 17.4094H27.8369ZM28.3326 19.2102C28.622 18.9843 28.9362 18.7579 29.1713 18.6004C29.2927 18.5191 29.3731 18.4696 29.4108 18.4485C29.4411 18.4315 29.405 18.4546 29.3348 18.4801C29.3275 18.4828 29.1673 18.5469 28.9489 18.5431C28.8379 18.5411 28.5527 18.5203 28.2758 18.3053C27.9429 18.0468 27.8369 17.6818 27.8369 17.4094H30.1177C30.1177 17.1326 30.0102 16.7644 29.6745 16.5037C29.3948 16.2866 29.1055 16.2647 28.989 16.2626C28.7597 16.2586 28.5832 16.3266 28.5549 16.3369C28.4425 16.3778 28.3449 16.4313 28.2974 16.4579C28.1795 16.5238 28.0396 16.6133 27.9019 16.7056C27.6187 16.8953 27.2597 17.1543 26.929 17.4125L28.3326 19.2102ZM27.5625 42.4352C20.9208 36.4245 21.1306 24.8336 28.3326 19.2102L26.929 17.4125C18.5795 23.9317 18.3701 37.1922 26.0321 44.1263L27.5625 42.4352ZM25.6569 43.1988V43.2807H27.9377V43.1988H25.6569ZM27.3325 17.1769C18.6704 23.62 18.2786 36.9858 26.0296 44.0421L27.565 42.3555C20.8496 36.242 21.2105 24.5731 28.6937 19.0069L27.3325 17.1769ZM29.6717 18.4696C29.7251 18.3736 29.8324 18.1831 29.8918 18.0033C29.9097 17.949 29.9389 17.8513 29.9518 17.7289C29.9628 17.6249 29.9782 17.3666 29.8387 17.0825C29.6646 16.7279 29.3447 16.5209 29.0259 16.4566C28.7706 16.4052 28.5642 16.4524 28.4794 16.4751C28.3016 16.5225 28.1602 16.6037 28.1049 16.6358C28.0279 16.6805 27.95 16.7318 27.878 16.7813C27.7332 16.8805 27.5492 17.0157 27.3325 17.1769L28.6937 19.0069C28.9134 18.8436 29.0642 18.7333 29.1678 18.6623C29.2199 18.6265 29.2446 18.6115 29.2505 18.6081C29.2779 18.5921 29.1997 18.6435 29.0671 18.6788C29.0049 18.6954 28.8165 18.7411 28.5751 18.6924C28.2702 18.631 27.9601 18.4311 27.7915 18.088C27.6577 17.8155 27.6748 17.573 27.6836 17.4891C27.6945 17.3868 27.7177 17.3134 27.7262 17.2877C27.7479 17.222 27.7609 17.2127 27.6784 17.3611L29.6717 18.4696ZM29.3269 17.5301C29.5186 17.7379 29.5822 17.9598 29.6056 18.075C29.6304 18.1974 29.6295 18.2975 29.627 18.3517C29.6221 18.4593 29.6024 18.5405 29.5957 18.5677C29.5797 18.6319 29.5619 18.6763 29.5603 18.6805C29.5529 18.6995 29.5514 18.7007 29.5637 18.675C29.5852 18.6305 29.6231 18.557 29.6716 18.4697L27.6784 17.3611C27.6144 17.4762 27.5541 17.5912 27.5079 17.6873C27.4865 17.7319 27.4589 17.7914 27.4351 17.8526C27.4252 17.8779 27.4017 17.9393 27.3826 18.0159C27.3743 18.0494 27.3538 18.1356 27.3486 18.2471C27.3461 18.3032 27.3453 18.4049 27.3704 18.5286C27.394 18.6451 27.4581 18.868 27.6504 19.0765L29.3269 17.5301ZM27.5303 17.7194C27.5343 17.7108 27.555 17.6662 27.6016 17.6032C27.6146 17.5858 27.688 17.4844 27.8191 17.3868C27.8779 17.3431 28.0476 17.2234 28.3043 17.1802C28.6333 17.1249 29.036 17.2137 29.3282 17.5315L27.6491 19.0751C27.9438 19.3956 28.3497 19.4854 28.6827 19.4294C28.9432 19.3856 29.1175 19.2637 29.1812 19.2162C29.3225 19.111 29.4081 18.9962 29.4346 18.9605C29.5084 18.8609 29.5614 18.7603 29.5965 18.6852L27.5303 17.7194ZM27.8059 17.2041C27.7096 17.3744 27.5827 17.6073 27.5303 17.7194L29.5965 18.6852C29.5939 18.6909 29.5973 18.6833 29.6117 18.6557C29.6241 18.6317 29.6405 18.6007 29.66 18.5646C29.6989 18.4923 29.7461 18.4066 29.7913 18.3267L27.8059 17.2041ZM38.6482 46.8809V46.8171H36.3674V46.8809H38.6482ZM49.1113 34.7397C47.6311 41.1266 42.6998 45.1726 37.3852 45.7471L37.6304 48.0147C43.9451 47.332 49.642 42.5515 51.3332 35.2546L49.1113 34.7397ZM50.996 35.2725C51.0906 35.1484 51.1091 35.1279 51.1003 35.1371C51.0935 35.1444 51.069 35.1701 51.0304 35.2022C51.0018 35.2261 50.9075 35.3033 50.7613 35.3644C50.6197 35.4236 50.259 35.5348 49.8514 35.3428C49.4484 35.1529 49.3048 34.8098 49.2605 34.6709C49.2135 34.524 49.2106 34.4058 49.21 34.3694C49.2093 34.3206 49.2126 34.2867 49.2135 34.2778C49.2153 34.2605 49.2157 34.2653 49.2072 34.3095C49.1905 34.3952 49.1604 34.528 49.1113 34.7397L51.3332 35.2546C51.3793 35.0555 51.42 34.8786 51.4462 34.744C51.459 34.6779 51.4738 34.5948 51.4824 34.5105C51.485 34.4848 51.5179 34.2425 51.4332 33.9772C51.3846 33.8249 51.2347 33.4732 50.8234 33.2795C50.4074 33.0835 50.0364 33.1955 49.8823 33.2598C49.6206 33.3691 49.456 33.5565 49.4426 33.5706C49.3493 33.6694 49.2475 33.804 49.1826 33.8892L50.996 35.2725ZM50.1976 36.1946C50.4848 35.8829 50.8442 35.4715 50.9961 35.2723L49.1825 33.8893C49.0993 33.9984 48.8014 34.344 48.5202 34.6491L50.1976 36.1946ZM49.1926 37.1988C49.5123 36.9307 49.6656 36.772 50.1976 36.1945L48.5202 34.6491C47.991 35.2235 47.924 35.286 47.7272 35.4511L49.1926 37.1988ZM49.1751 37.1943C49.1669 37.2042 49.1596 37.2127 49.1537 37.2195C49.1478 37.2263 49.1425 37.2322 49.138 37.2371C49.1293 37.2467 49.1219 37.2545 49.1167 37.2599C49.1113 37.2655 49.1068 37.27 49.1034 37.2734C49.0999 37.2769 49.097 37.2798 49.0947 37.282C49.0903 37.2862 49.0871 37.2892 49.0855 37.2907C49.0839 37.2923 49.0829 37.2932 49.0828 37.2933C49.0827 37.2934 49.0842 37.292 49.0877 37.2888C49.0911 37.2858 49.0955 37.2819 49.101 37.2771C49.1121 37.2674 49.126 37.2554 49.1419 37.2417C49.1577 37.2282 49.175 37.2136 49.1926 37.1988L47.7272 35.4511C47.6809 35.4899 47.6351 35.529 47.5977 35.5619C47.5794 35.5779 47.5596 35.5955 47.5411 35.6124C47.5322 35.6206 47.5194 35.6325 47.5054 35.646C47.5036 35.6479 47.4588 35.6903 47.4123 35.747L49.1751 37.1943ZM48.8557 37.4978C48.9057 37.4547 48.9544 37.4119 48.9937 37.3768C49.0129 37.3596 49.033 37.3414 49.051 37.3246C49.0597 37.3166 49.0718 37.3052 49.0848 37.2925C49.0912 37.2862 49.1011 37.2764 49.1126 37.2644C49.1203 37.2564 49.1458 37.2299 49.1752 37.1941L47.4122 35.7472C47.4282 35.7276 47.4417 35.7125 47.4494 35.704C47.4578 35.6948 47.4649 35.6874 47.4696 35.6825C47.4789 35.6728 47.486 35.6658 47.4891 35.6628C47.4955 35.6565 47.499 35.6533 47.4972 35.655C47.4944 35.6576 47.4864 35.6649 47.4725 35.6774C47.4455 35.7016 47.4074 35.735 47.3659 35.7708L48.8557 37.4978ZM48.7836 37.5505C48.7698 37.5661 48.7585 37.5782 48.7522 37.5847C48.7453 37.5919 48.7396 37.5976 48.7358 37.6014C48.7286 37.6086 48.7231 37.6139 48.721 37.6159C48.7166 37.6201 48.7147 37.6217 48.7173 37.6194C48.7218 37.6153 48.731 37.6069 48.7456 37.594C48.774 37.5688 48.8133 37.5344 48.8557 37.4978L47.3659 35.7708C47.3169 35.8131 47.2694 35.8546 47.2315 35.8883C47.2129 35.9048 47.1942 35.9216 47.1778 35.9365C47.1699 35.9438 47.1594 35.9534 47.1484 35.9639C47.143 35.9691 47.1347 35.977 47.1252 35.9865C47.119 35.9927 47.0975 36.0141 47.0723 36.0427L48.7836 37.5505ZM47.4453 38.5501C47.5678 38.4656 47.856 38.2595 48.1068 38.0787C48.2342 37.9869 48.3563 37.8984 48.4483 37.8312C48.494 37.7978 48.5345 37.768 48.5653 37.7451C48.5801 37.734 48.5965 37.7217 48.6114 37.7102C48.6183 37.7049 48.6302 37.6957 48.6436 37.6848C48.65 37.6796 48.6623 37.6694 48.6772 37.6564C48.6792 37.6547 48.7302 37.6113 48.7846 37.5493L47.0713 36.0439C47.1252 35.9825 47.1753 35.94 47.1759 35.9395C47.1894 35.9276 47.2 35.919 47.2042 35.9156C47.2094 35.9114 47.2132 35.9083 47.215 35.9069C47.217 35.9053 47.2183 35.9044 47.2185 35.9041C47.219 35.9038 47.2179 35.9046 47.2147 35.9071C47.2116 35.9094 47.2075 35.9124 47.2022 35.9164C47.1802 35.9328 47.1466 35.9575 47.1029 35.9895C47.0162 36.0528 46.8983 36.1382 46.773 36.2286C46.5182 36.4123 46.2495 36.6042 46.1498 36.673L47.4453 38.5501ZM45.5595 39.455C45.7234 39.455 45.8487 39.4182 45.87 39.4122C45.9152 39.3995 45.9505 39.3866 45.9688 39.3797C46.0067 39.3654 46.0371 39.3517 46.0516 39.345C46.0839 39.3303 46.1143 39.315 46.1354 39.3042C46.1808 39.281 46.2353 39.2518 46.2908 39.2215C46.4041 39.1598 46.5492 39.0786 46.6951 38.9957C46.9589 38.8459 47.3146 38.6404 47.4453 38.5501L46.1498 36.673C46.1514 36.6719 46.0958 36.707 45.9642 36.7844C45.8495 36.8519 45.708 36.9334 45.5688 37.0124C45.4293 37.0917 45.2967 37.1658 45.1994 37.2188C45.1496 37.2459 45.1156 37.264 45.0967 37.2737C45.0856 37.2793 45.0899 37.2769 45.103 37.2709C45.1079 37.2686 45.1305 37.2583 45.1624 37.2462C45.1778 37.2404 45.2106 37.2284 45.2537 37.2162C45.2758 37.2101 45.3101 37.2011 45.3528 37.1932C45.3908 37.1862 45.465 37.1743 45.5595 37.1743V39.455ZM45.8825 39.4233C45.9234 39.4009 45.9581 39.3831 45.9777 39.3737C45.9891 39.3682 45.9851 39.3704 45.9704 39.3766C45.9644 39.379 45.9408 39.3888 45.907 39.4C45.8903 39.4055 45.8582 39.4156 45.8163 39.4254C45.7948 39.4305 45.7638 39.4371 45.7261 39.4427C45.6907 39.448 45.6323 39.455 45.5595 39.455V37.1743C45.4278 37.1743 45.3264 37.1977 45.2952 37.205C45.2501 37.2156 45.2141 37.2269 45.193 37.2338C45.1504 37.2479 45.1155 37.2619 45.0962 37.27C45.0548 37.2871 45.0158 37.3054 44.9862 37.3197C44.924 37.3497 44.8533 37.3865 44.7849 37.424L45.8825 39.4233ZM43.9948 38.5099C43.9948 38.9316 44.2246 39.3036 44.5693 39.5011C44.8222 39.6461 45.057 39.652 45.1299 39.6526C45.3007 39.654 45.4331 39.6154 45.4574 39.6086C45.5451 39.5841 45.6175 39.5531 45.6481 39.5399C45.7264 39.5058 45.8089 39.4637 45.8827 39.4232L44.7848 37.4241C44.7494 37.4435 44.7327 37.4508 44.739 37.4481C44.742 37.4468 44.7508 37.443 44.7643 37.4378C44.7754 37.4337 44.8042 37.4229 44.8443 37.4117C44.8586 37.4077 44.9832 37.3705 45.1486 37.3719C45.2189 37.3725 45.4517 37.378 45.7032 37.5222C45.8456 37.6038 46.002 37.735 46.1182 37.9323C46.2351 38.1309 46.2756 38.336 46.2756 38.5099H43.9948ZM45.7159 39.4737C45.7032 39.4828 45.6508 39.52 45.5641 39.5575C45.546 39.5653 45.3972 39.6334 45.1893 39.6444C45.0936 39.6495 44.8082 39.6544 44.5138 39.4638C44.1352 39.2186 43.9948 38.8245 43.9948 38.5099H46.2756C46.2756 38.1922 46.1342 37.7958 45.7534 37.5493C45.4568 37.3572 45.1682 37.3615 45.0683 37.3668C44.8522 37.3783 44.6915 37.45 44.6587 37.4641C44.5426 37.5144 44.4496 37.5754 44.3922 37.6163L45.7159 39.4737ZM44.9323 39.8301C45.0731 39.7923 45.2193 39.7335 45.3211 39.6887C45.4054 39.6516 45.5749 39.5742 45.7159 39.4737L44.3922 37.6164C44.4078 37.6052 44.4204 37.597 44.4284 37.592C44.4366 37.5867 44.4428 37.5831 44.4463 37.5811C44.4529 37.5772 44.4548 37.5764 44.4508 37.5784C44.4424 37.5827 44.4256 37.5909 44.4026 37.6011C44.38 37.611 44.3584 37.6198 44.3415 37.6261C44.3333 37.6291 44.3283 37.6309 44.3265 37.6315C44.3241 37.6323 44.3293 37.6304 44.3407 37.6274L44.9323 39.8301ZM44.9209 39.8449C44.9339 39.8388 44.9479 39.8324 44.9616 39.8263C44.9754 39.8202 44.9878 39.8149 44.9977 39.8107C45.0026 39.8087 45.0063 39.8071 45.009 39.8061C45.0117 39.805 45.0124 39.8047 45.0111 39.8052C45.0104 39.8055 45.0089 39.8061 45.0065 39.8069C45.0042 39.8078 45.0004 39.8091 44.9955 39.8108C44.9908 39.8125 44.9834 39.815 44.9741 39.8179C44.9694 39.8194 44.9636 39.8212 44.9569 39.8231C44.9504 39.8251 44.9422 39.8274 44.9327 39.83L44.3403 37.6275C44.2401 37.6544 44.1397 37.6973 44.117 37.7068C44.0658 37.7283 44.0083 37.7538 43.9532 37.7796L44.9209 39.8449ZM44.39 40.0336C44.549 39.9925 44.7662 39.9173 44.9208 39.8449L43.9533 37.7795C43.9599 37.7764 43.9576 37.7778 43.9442 37.7831C43.9321 37.7878 43.9163 37.7938 43.8983 37.8002C43.8803 37.8065 43.8627 37.8123 43.8472 37.8172C43.831 37.8222 43.8216 37.8248 43.8191 37.8255L44.39 40.0336ZM44.4528 39.9876C44.4256 40.0037 44.4031 40.0154 44.3886 40.0227C44.3734 40.0303 44.3609 40.0361 44.3522 40.04C44.3353 40.0475 44.3233 40.0523 44.3188 40.054C44.3099 40.0575 44.3089 40.0576 44.3179 40.0546C44.3353 40.0488 44.3626 40.0407 44.3896 40.0337L43.8195 37.8254C43.746 37.8443 43.6706 37.8664 43.6037 37.8885C43.5852 37.8946 43.4298 37.9427 43.2909 38.0249L44.4528 39.9876ZM43.0739 40.4261C43.2105 40.3955 43.4996 40.3135 43.7228 40.2481C43.843 40.2128 43.9618 40.1772 44.056 40.1478C44.1021 40.1334 44.1482 40.1187 44.1876 40.1053C44.2065 40.0989 44.2316 40.0903 44.2577 40.0804C44.2704 40.0756 44.2906 40.0678 44.314 40.0578C44.3267 40.0524 44.3852 40.0277 44.4534 39.9872L43.2903 38.0253C43.3558 37.9865 43.4101 37.9638 43.4171 37.9608C43.4349 37.9532 43.448 37.9482 43.4524 37.9465C43.4616 37.9431 43.4645 37.9422 43.4566 37.9449C43.4423 37.9497 43.416 37.9583 43.3765 37.9706C43.2994 37.9946 43.1941 38.0263 43.0812 38.0594C42.9687 38.0924 42.8531 38.1255 42.7558 38.1525C42.7072 38.166 42.665 38.1775 42.6312 38.1863C42.6143 38.1908 42.6008 38.1943 42.5903 38.1969C42.5792 38.1996 42.5748 38.2006 42.5753 38.2005L43.0739 40.4261ZM42.5038 40.5366C42.7469 40.4908 43.0126 40.4398 43.0733 40.4263L42.5759 38.2004C42.5835 38.1987 42.5772 38.2001 42.5411 38.2072C42.5118 38.213 42.4722 38.2208 42.4248 38.2299C42.3303 38.2481 42.2081 38.2714 42.0814 38.2953L42.5038 40.5366ZM41.351 40.7006C41.8172 40.6572 42.0136 40.6291 42.5039 40.5366L42.0813 38.2953C41.6552 38.3757 41.5295 38.3934 41.1397 38.4296L41.351 40.7006ZM41.0185 40.7333C41.0837 40.7263 41.2345 40.7114 41.3507 40.7006L41.14 38.4296C41.0185 38.4409 40.8551 38.4569 40.7741 38.4657L41.0185 40.7333ZM38.5743 40.5631C38.7478 40.6746 38.912 40.7098 38.9228 40.7125C38.9719 40.7245 39.0118 40.7307 39.031 40.7336C39.0718 40.7396 39.1061 40.7425 39.1222 40.7438C39.1586 40.7467 39.1949 40.7484 39.222 40.7494C39.28 40.7516 39.3524 40.753 39.4289 40.7541C39.5844 40.7562 39.7863 40.7569 39.9898 40.7564C40.3507 40.7555 40.8517 40.7513 41.0182 40.7333L40.7743 38.4656C40.8003 38.4628 40.7986 38.4641 40.7347 38.4663C40.6851 38.4679 40.6185 38.4694 40.5386 38.4708C40.3794 38.4735 40.1803 38.4751 39.984 38.4756C39.7874 38.4761 39.5987 38.4754 39.4599 38.4735C39.3892 38.4726 39.3386 38.4714 39.3084 38.4702C39.2914 38.4696 39.2924 38.4694 39.3036 38.4703C39.3071 38.4705 39.3313 38.4724 39.3647 38.4774C39.3802 38.4796 39.4171 38.4854 39.4639 38.4968C39.4875 38.5026 39.5267 38.5129 39.5741 38.5298C39.6136 38.5438 39.7042 38.5781 39.8075 38.6445L38.5743 40.5631ZM38.7743 40.7005C38.8449 40.7063 38.9067 40.7127 38.9467 40.7177C38.9684 40.7203 38.9736 40.7213 38.9671 40.7202C38.9655 40.72 38.9458 40.7167 38.9171 40.7099C38.9035 40.7067 38.8729 40.6992 38.8342 40.6865C38.8144 40.6801 38.7836 40.6695 38.7466 40.6539C38.714 40.6402 38.6496 40.6114 38.5748 40.5634L39.807 38.6441C39.6771 38.5607 39.5594 38.524 39.5397 38.5176C39.4973 38.5039 39.4622 38.4951 39.443 38.4906C39.4033 38.4812 39.3688 38.475 39.3492 38.4717C39.3067 38.4645 39.2629 38.4586 39.2261 38.454C39.1492 38.4446 39.0561 38.4352 38.9621 38.4274L38.7743 40.7005ZM38.0819 40.614C38.2774 40.6467 38.5779 40.6842 38.7741 40.7004L38.9624 38.4275C38.8293 38.4164 38.5913 38.3867 38.4576 38.3644L38.0819 40.614ZM37.6524 40.5448C37.7248 40.5556 37.919 40.5868 38.0819 40.614L38.4576 38.3644C38.2914 38.3367 38.0817 38.3029 37.9895 38.2891L37.6524 40.5448ZM37.2492 40.4651C37.3651 40.4936 37.5342 40.5271 37.6519 40.5447L37.9899 38.2891C37.943 38.2821 37.8429 38.2623 37.7942 38.2504L37.2492 40.4651ZM37.1295 40.4372C37.1245 40.4364 37.1207 40.4357 37.1186 40.4354C37.1164 40.435 37.1151 40.4347 37.1148 40.4347C37.1142 40.4346 37.1156 40.4348 37.1192 40.4356C37.1266 40.437 37.138 40.4394 37.1529 40.4427C37.1828 40.4492 37.2179 40.4573 37.2487 40.4649L37.7947 38.2505C37.7103 38.2297 37.5713 38.1977 37.4817 38.1837L37.1295 40.4372ZM36.6039 40.316C36.8372 40.3764 36.9928 40.4158 37.1297 40.4372L37.4815 38.1837C37.4883 38.1848 37.4791 38.1838 37.4284 38.1718C37.3772 38.1597 37.3007 38.1404 37.1761 38.1081L36.6039 40.316ZM34.5947 39.6034C34.8064 39.7097 35.2132 39.8614 35.5569 39.9823C35.9192 40.1098 36.3354 40.2464 36.604 40.316L37.176 38.1081C37.0064 38.0641 36.6663 37.9549 36.3141 37.8309C36.1435 37.7709 35.9815 37.7114 35.8492 37.6602C35.7831 37.6346 35.7277 37.6124 35.6843 37.5942C35.6627 37.5851 35.6459 37.5778 35.6335 37.5722C35.6204 37.5664 35.616 37.5641 35.6179 37.5651L34.5947 39.6034ZM34.9826 39.672C34.8871 39.672 34.8131 39.6597 34.7811 39.6539C34.7426 39.6469 34.712 39.6392 34.6936 39.6343C34.6572 39.6246 34.6302 39.6152 34.6191 39.6113C34.595 39.6028 34.5804 39.5965 34.5803 39.5964C34.5771 39.5951 34.5834 39.5978 34.5946 39.6034L35.618 37.5651C35.5715 37.5418 35.5213 37.5182 35.4732 37.4977C35.4507 37.4881 35.4166 37.4741 35.3774 37.4603C35.3587 37.4537 35.3252 37.4423 35.2835 37.4311C35.2707 37.4277 35.1446 37.3912 34.9826 37.3912V39.672ZM32.9305 38.7288C33.0367 38.8056 33.2087 38.9014 33.3183 38.962C33.4598 39.0403 33.6304 39.1318 33.7956 39.2186C33.9603 39.3052 34.1263 39.3904 34.2582 39.4557C34.3228 39.4876 34.3878 39.519 34.4438 39.5442C34.4701 39.5561 34.5076 39.5727 34.548 39.5883C34.5672 39.5957 34.6023 39.6089 34.6454 39.6219C34.6507 39.6235 34.7966 39.672 34.9826 39.672V37.3912C35.0944 37.3912 35.1802 37.4082 35.212 37.4148C35.253 37.4234 35.285 37.4325 35.3027 37.4379C35.3381 37.4485 35.3633 37.4582 35.3707 37.461C35.3876 37.4676 35.3939 37.4707 35.3823 37.4655C35.3624 37.4565 35.3251 37.4388 35.269 37.4111C35.1597 37.3571 35.0115 37.281 34.8562 37.1995C34.7014 37.1181 34.546 37.0347 34.4227 36.9665C34.3607 36.9322 34.3109 36.9039 34.275 36.8829C34.2255 36.8539 34.2352 36.8577 34.2666 36.8804L32.9305 38.7288ZM32.802 38.6452C32.8218 38.6573 32.8503 38.6754 32.8793 38.6944C32.8933 38.7036 32.9058 38.7119 32.9158 38.7187C32.9267 38.7261 32.9311 38.7293 32.9304 38.7288L34.2668 36.8805C34.1896 36.8247 34.0715 36.748 33.9887 36.6975L32.802 38.6452ZM32.0318 38.1189C32.4535 38.4259 32.5296 38.4793 32.8021 38.6453L33.9886 36.6974C33.877 36.6294 33.8285 36.599 33.7621 36.5535C33.6861 36.5014 33.5854 36.4287 33.3742 36.275L32.0318 38.1189ZM28.7084 34.7681C29.6667 36.0988 30.7275 37.1694 32.0319 38.1189L33.3742 36.275C32.2695 35.4708 31.3792 34.5738 30.5591 33.4352L28.7084 34.7681ZM28.6329 34.6651C28.6637 34.7067 28.6981 34.7539 28.7085 34.7682L30.559 33.4351C30.5408 33.4097 30.5 33.354 30.4674 33.3099L28.6329 34.6651ZM28.4747 34.4322C28.5183 34.5022 28.5835 34.5981 28.6326 34.6646L30.4677 33.3104C30.4535 33.2911 30.422 33.2447 30.4108 33.2266L28.4747 34.4322ZM28.4834 34.4393C28.4786 34.4336 28.4747 34.4287 28.4718 34.4251C28.4689 34.4215 28.4665 34.4185 28.4648 34.4162C28.4614 34.4119 28.4593 34.409 28.4586 34.4081C28.4573 34.4063 28.4581 34.4073 28.4607 34.4112C28.4632 34.4147 28.4661 34.419 28.469 34.4234C28.4719 34.4278 28.4738 34.4308 28.4745 34.4318L30.411 33.2269C30.3733 33.1663 30.303 33.0601 30.2342 32.9776L28.4834 34.4393ZM28.1521 33.9322C28.2091 34.0266 28.2659 34.1187 28.3121 34.192C28.335 34.2283 28.3573 34.2633 28.377 34.2932C28.3788 34.296 28.428 34.3731 28.484 34.4401L30.2336 32.9769C30.2554 33.003 30.2706 33.0237 30.2745 33.0291C30.2805 33.0373 30.2845 33.043 30.2857 33.0447C30.288 33.0481 30.2875 33.0475 30.2831 33.0407C30.2746 33.0278 30.2607 33.0062 30.2417 32.9761C30.2043 32.9167 30.155 32.8368 30.1039 32.7522L28.1521 33.9322ZM28.1931 33.8865C28.1608 33.8604 28.1356 33.8372 28.1191 33.8212C28.1018 33.8046 28.0877 33.7901 28.0775 33.7791C28.0575 33.7577 28.0424 33.7399 28.0338 33.7295C28.0245 33.7182 28.0171 33.7089 28.0123 33.7026C28.0072 33.6961 28.0032 33.6907 28.0004 33.6869C27.995 33.6796 27.9914 33.6745 27.9902 33.6728C27.9888 33.6708 27.9884 33.6702 27.9891 33.6712C27.9906 33.6734 27.9942 33.6787 28 33.6877C28.0057 33.6964 28.0127 33.7073 28.021 33.7202C28.0547 33.7731 28.1015 33.8485 28.152 33.9321L30.104 32.7524C30.0463 32.657 29.9897 32.5656 29.944 32.4939C29.9217 32.459 29.8984 32.423 29.8771 32.3916C29.8672 32.3769 29.8519 32.3547 29.8344 32.331C29.8261 32.3198 29.8106 32.2991 29.7906 32.2749C29.787 32.2706 29.7229 32.1901 29.6247 32.1109L28.1931 33.8865ZM27.7764 33.2975C27.8053 33.3599 27.8372 33.424 27.8679 33.4808C27.8826 33.5079 27.903 33.5445 27.9269 33.5828C27.9384 33.6012 27.9582 33.6321 27.9842 33.6674C27.9925 33.6788 28.068 33.7856 28.1931 33.8865L29.6247 32.1109C29.6979 32.17 29.747 32.2249 29.7675 32.2486C29.7925 32.2773 29.8108 32.3015 29.8215 32.316C29.8426 32.3447 29.8566 32.3669 29.8615 32.3748C29.8724 32.3923 29.877 32.4011 29.8739 32.3954C29.8691 32.3866 29.8582 32.3654 29.8457 32.3382L27.7764 33.2975ZM28.0316 33.5528C27.9532 33.4946 27.9 33.4391 27.8763 33.4134C27.8483 33.3831 27.8277 33.3573 27.8154 33.3414C27.7912 33.3101 27.7751 33.2855 27.769 33.2761C27.7558 33.2556 27.7497 33.2442 27.7521 33.2485C27.7553 33.2543 27.765 33.2728 27.7764 33.2975L29.8457 32.3382C29.8156 32.2734 29.7821 32.2065 29.7491 32.1467C29.7334 32.1183 29.7111 32.0791 29.6843 32.0378C29.6715 32.0179 29.6493 31.9846 29.62 31.9466C29.6084 31.9317 29.5266 31.822 29.3909 31.7213L28.0316 33.5528ZM26.8727 31.1931C26.8727 31.3451 26.9048 31.4628 26.9082 31.4765C26.9182 31.5157 26.9283 31.5467 26.9336 31.5626C26.9447 31.5958 26.9555 31.6233 26.9611 31.6375C26.9736 31.6687 26.9872 31.7002 26.9982 31.7252C27.0214 31.7779 27.0516 31.8438 27.0842 31.9139C27.1505 32.0561 27.2375 32.2385 27.3243 32.4181C27.4111 32.5976 27.5 32.7789 27.5702 32.9189C27.6048 32.9879 27.6376 33.0524 27.6644 33.1031C27.6771 33.1271 27.6934 33.1575 27.7103 33.1868C27.7179 33.2 27.7332 33.2263 27.753 33.2564C27.7623 33.2707 27.7814 33.2992 27.8075 33.333C27.8145 33.3419 27.8956 33.4518 28.0312 33.5525L29.3913 31.7216C29.4719 31.7814 29.5263 31.8388 29.5498 31.8642C29.5779 31.8948 29.5988 31.921 29.6112 31.9371C29.6358 31.9688 29.653 31.9947 29.6603 32.0057C29.6757 32.0293 29.6856 32.0465 29.6866 32.0484C29.6905 32.055 29.6893 32.0534 29.6809 32.0373C29.6654 32.0081 29.6412 31.9607 29.6089 31.8964C29.5454 31.7697 29.4616 31.599 29.3776 31.4252C29.2936 31.2515 29.2117 31.0797 29.1517 30.9509C29.1213 30.8855 29.0991 30.8367 29.0856 30.8062C29.0783 30.7895 29.0775 30.7872 29.0801 30.7938C29.0809 30.7957 29.0879 30.8132 29.0965 30.8388C29.1005 30.8509 29.1096 30.8788 29.119 30.9155C29.1237 30.9341 29.1308 30.9643 29.1373 31.002C29.1428 31.0342 29.1535 31.1038 29.1535 31.1931H26.8727ZM26.8492 31.3414C26.8766 31.4059 26.9 31.4637 26.9149 31.5027C26.9229 31.5234 26.9254 31.5307 26.9243 31.5277C26.9243 31.5275 26.9191 31.5127 26.9127 31.4897C26.9096 31.4787 26.9029 31.4541 26.8961 31.4216C26.8927 31.405 26.8877 31.3793 26.8833 31.3473C26.881 31.3309 26.8785 31.3102 26.8765 31.286C26.8746 31.2623 26.8727 31.2306 26.8727 31.1931H29.1535C29.1535 31.0701 29.1327 30.9744 29.1289 30.956C29.1213 30.9198 29.1135 30.8906 29.1089 30.8741C29.0994 30.8403 29.0897 30.8113 29.0839 30.7939C29.0712 30.7568 29.0569 30.7184 29.0442 30.6852C29.0178 30.6164 28.984 30.5334 28.9486 30.4499L26.8492 31.3414ZM26.2271 29.4507C26.49 30.3455 26.6893 30.9649 26.8493 31.3415L28.9485 30.4498C28.8481 30.2134 28.6829 29.7182 28.4154 28.8078L26.2271 29.4507ZM27.3033 30.2696H27.3213V27.9888H27.3033V30.2696ZM28.7127 29.9054C28.6665 29.7749 28.5958 29.5488 28.5319 29.3276C28.5006 29.2195 28.4732 29.1203 28.453 29.0426C28.4279 28.946 28.4265 28.9296 28.4308 28.9583L26.1758 29.3002C26.2011 29.4671 26.2816 29.756 26.3408 29.9611C26.4097 30.1993 26.4947 30.4749 26.563 30.6675L28.7127 29.9054ZM28.8485 30.2909C28.8198 30.2086 28.7589 30.0356 28.7127 29.9053L26.5631 30.6676C26.6085 30.7959 26.668 30.9646 26.6947 31.0415L28.8485 30.2909ZM28.9328 30.4928C28.9029 30.4293 28.8607 30.326 28.8485 30.2909L26.6947 31.0415C26.738 31.1655 26.8122 31.3432 26.8691 31.4641L28.9328 30.4928ZM29.1203 31.1883C29.1203 30.9956 29.0676 30.8366 29.0673 30.8354C29.0527 30.7863 29.0368 30.7416 29.0241 30.7078C28.9979 30.6381 28.9659 30.5632 28.9327 30.4926L26.8692 31.4642C26.8794 31.4859 26.8869 31.5043 26.8893 31.5107C26.8909 31.5149 26.8865 31.504 26.88 31.4819C26.8769 31.4712 26.8698 31.4465 26.8626 31.4127C26.8589 31.3954 26.8539 31.3692 26.8495 31.3369C26.8454 31.307 26.8395 31.2545 26.8395 31.1883H29.1203ZM29.695 32.1322C29.6989 32.1387 29.6897 32.1233 29.6617 32.0696C29.6374 32.0229 29.6066 31.9624 29.5708 31.891C29.4995 31.7487 29.4138 31.5737 29.3311 31.4019C29.2481 31.2296 29.1704 31.0652 29.1146 30.9437C29.0861 30.8817 29.0665 30.8376 29.0553 30.8115C29.0491 30.7969 29.0499 30.7982 29.054 30.8091C29.0556 30.8133 29.0634 30.8339 29.0724 30.8635C29.0768 30.8781 29.0854 30.9072 29.0938 30.9452C29.0989 30.9683 29.1203 31.0636 29.1203 31.1883H26.8395C26.8395 31.3145 26.8611 31.4119 26.8668 31.4376C26.8758 31.4783 26.8853 31.5108 26.8909 31.5291C26.9023 31.5664 26.9136 31.5971 26.9197 31.6133C26.9329 31.6484 26.9471 31.6823 26.958 31.7078C26.9811 31.7618 27.0106 31.8274 27.042 31.8956C27.1057 32.0343 27.1898 32.2122 27.2761 32.3914C27.4345 32.7202 27.6452 33.1486 27.7378 33.3032L29.695 32.1322ZM29.9021 32.5031C29.8412 32.3881 29.7512 32.2263 29.6951 32.1325L27.7376 33.3029C27.7673 33.3527 27.8374 33.4778 27.8862 33.5701L29.9021 32.5031ZM29.9151 32.5474C29.9267 32.5609 29.9356 32.572 29.9415 32.5796C29.9476 32.5874 29.9522 32.5936 29.9553 32.5978C29.9613 32.6059 29.9646 32.6108 29.9647 32.611C29.965 32.6114 29.961 32.6054 29.953 32.5925C29.9456 32.5803 29.9368 32.5655 29.9275 32.5492C29.9182 32.533 29.9095 32.5172 29.902 32.503L27.8863 33.5702C27.9253 33.6439 27.9685 33.7191 28.0088 33.785C28.0345 33.8269 28.1022 33.9372 28.184 34.0325L29.9151 32.5474ZM30.1687 32.9331C30.107 32.8077 30.012 32.6604 29.9151 32.5474L28.184 34.0325C28.1669 34.0125 28.1565 33.9984 28.1534 33.9942C28.1494 33.9887 28.1472 33.9854 28.1463 33.984C28.1454 33.9826 28.1436 33.9799 28.1409 33.9752C28.1387 33.9715 28.1318 33.9595 28.1223 33.9403L30.1687 32.9331ZM30.1207 32.8638C30.135 32.8824 30.1452 32.8972 30.1506 32.9051C30.1565 32.9137 30.1607 32.9203 30.1631 32.924C30.1656 32.928 30.1673 32.9307 30.1681 32.9321C30.169 32.9335 30.1694 32.9343 30.1694 32.9343C30.1695 32.9344 30.1693 32.9341 30.169 32.9335C30.1687 32.933 30.1684 32.9324 30.1681 32.9318C30.1673 32.9304 30.1675 32.9308 30.1688 32.9334L28.1222 33.9399C28.1537 34.004 28.2242 34.1385 28.3096 34.25L30.1207 32.8638ZM30.4539 33.3432C30.3207 33.1486 30.1612 32.9168 30.1215 32.8648L28.3089 34.2491C28.2969 34.2334 28.2894 34.2226 28.2967 34.233C28.3 34.2375 28.3054 34.2452 28.3133 34.2564C28.3288 34.2786 28.3504 34.3097 28.3768 34.3479C28.4295 34.4241 28.4988 34.5249 28.5718 34.6314L30.4539 33.3432ZM30.6865 33.681C30.7016 33.6978 30.7119 33.7105 30.7148 33.7142C30.717 33.7168 30.7186 33.7188 30.7195 33.72C30.7204 33.7211 30.7209 33.7218 30.721 33.7219C30.7211 33.722 30.7202 33.7209 30.7181 33.7181C30.7161 33.7154 30.7133 33.7118 30.7099 33.7071C30.6954 33.6876 30.6742 33.6583 30.6471 33.6203C30.5932 33.5448 30.5242 33.4459 30.4539 33.3433L28.5717 34.6314C28.649 34.7443 28.7265 34.8553 28.79 34.9443C28.8298 35.0002 28.9182 35.1252 28.9861 35.2011L30.6865 33.681ZM30.9731 34.0357C30.88 33.9161 30.748 33.7498 30.6865 33.681L28.9861 35.2011C28.9766 35.1905 28.976 35.1892 28.9916 35.2081C29.0035 35.2227 29.0198 35.2427 29.0394 35.2672C29.0786 35.316 29.1267 35.3768 29.1734 35.4367L30.9731 34.0357ZM32.2054 35.3772C31.9863 35.1773 31.178 34.2987 30.973 34.0356L29.1735 35.4368C29.4517 35.7942 30.3469 36.769 30.6681 37.0621L32.2054 35.3772ZM32.485 35.6355C32.4475 35.599 32.3157 35.4779 32.2054 35.3772L30.6681 37.0621C30.7261 37.115 30.7827 37.1669 30.8269 37.2076C30.8491 37.2281 30.8674 37.2451 30.881 37.2577C30.8984 37.2739 30.8994 37.2749 30.8933 37.269L32.485 35.6355ZM32.5402 35.68C32.5219 35.6653 32.5015 35.6482 32.4848 35.634C32.4765 35.6269 32.471 35.622 32.4683 35.6197C32.467 35.6185 32.4675 35.619 32.4695 35.6207C32.4708 35.6219 32.4769 35.6275 32.4857 35.6361L30.8926 37.2684C30.9551 37.3293 31.0527 37.4104 31.1057 37.4532L32.5402 35.68ZM32.787 35.88L32.5408 35.6805L31.1051 37.4528L31.3514 37.6523L32.787 35.88ZM35.0122 37.4301C35.2035 37.4399 35.3171 37.5035 35.2314 37.467C35.1974 37.4525 35.1351 37.423 35.0418 37.3734C34.858 37.2758 34.6123 37.132 34.3367 36.9598C33.7811 36.6126 33.173 36.193 32.7875 35.8804L31.351 37.6519C31.8359 38.0452 32.5293 38.5198 33.128 38.894C33.4297 39.0825 33.7244 39.2562 33.972 39.3877C34.0943 39.4527 34.2204 39.5155 34.3386 39.5658C34.405 39.594 34.6344 39.6946 34.8962 39.7079L35.0122 37.4301ZM35.6418 37.6307C35.5888 37.6028 35.5325 37.575 35.4804 37.5514C35.4557 37.5403 35.421 37.525 35.3824 37.5102C35.3639 37.5031 35.332 37.4913 35.2929 37.4794C35.2807 37.4757 35.164 37.438 35.0132 37.4302L34.8953 39.7079C34.8066 39.7033 34.7386 39.6891 34.7097 39.6827C34.6747 39.6749 34.6471 39.6669 34.6307 39.662C34.5982 39.6521 34.5747 39.6432 34.5658 39.6398C34.5464 39.6324 34.5364 39.6277 34.5402 39.6294C34.5451 39.6316 34.5607 39.639 34.5808 39.6496L35.6418 37.6307ZM35.3235 37.5712C35.41 37.5733 35.4759 37.5852 35.5043 37.5909C35.5384 37.5976 35.5643 37.6046 35.579 37.6088C35.6081 37.6171 35.6262 37.6241 35.6303 37.6257C35.6391 37.6291 35.6403 37.6299 35.6418 37.6307L34.5808 39.6496C34.6554 39.6888 34.7347 39.7248 34.8105 39.754C34.848 39.7685 34.8968 39.7859 34.9516 39.8016C34.9816 39.8102 35.1084 39.8474 35.2682 39.8513L35.3235 37.5712ZM36.1969 37.9503C36.0394 37.7882 35.8698 37.7053 35.7705 37.665C35.6624 37.6211 35.5084 37.5756 35.3234 37.5712L35.2682 39.8513C35.1117 39.8475 34.9905 39.8099 34.9125 39.7783C34.8433 39.7502 34.7011 39.6838 34.561 39.5396L36.1969 37.9503ZM38.4236 38.4166C38.0691 38.363 37.4389 38.2146 36.8576 38.053C36.5723 37.9737 36.3198 37.897 36.1383 37.8349C36.0456 37.8032 35.9873 37.7807 35.958 37.7681C35.9427 37.7615 35.9507 37.7642 35.9725 37.7762C35.9839 37.7824 36.0084 37.7962 36.0401 37.8178C36.0673 37.8364 36.1286 37.88 36.1969 37.9503L34.561 39.5396C34.6951 39.6776 34.8375 39.755 34.8784 39.7774C34.944 39.8132 35.008 39.8424 35.0595 39.8645C35.164 39.9092 35.2829 39.9528 35.4002 39.9929C35.6387 40.0745 35.9371 40.1644 36.2466 40.2504C36.8549 40.4196 37.5903 40.5973 38.0826 40.6717L38.4236 38.4166ZM41.2477 38.4673C40.4034 38.5677 39.2974 38.5487 38.4236 38.4166L38.0826 40.6717C39.1527 40.8335 40.464 40.8574 41.5172 40.7321L41.2477 38.4673ZM41.9786 38.3704C41.9666 38.3736 41.9577 38.3774 41.8698 38.39C41.7637 38.4053 41.589 38.4267 41.2478 38.4673L41.5172 40.7321C42.1466 40.6572 42.341 40.635 42.5734 40.5722L41.9786 38.3704ZM42.3477 38.2924C42.2384 38.3097 42.0862 38.3414 41.9792 38.3702L42.5728 40.5724C42.5726 40.5725 42.5783 40.5709 42.5907 40.568C42.6024 40.5653 42.6165 40.5622 42.6319 40.5589C42.6651 40.552 42.6914 40.5472 42.703 40.5454L42.3477 38.2924ZM42.7862 38.186C42.6803 38.2136 42.5701 38.2409 42.4797 38.2623C42.4343 38.273 42.3966 38.2815 42.3684 38.2876C42.3335 38.2952 42.3313 38.295 42.3471 38.2925L42.7036 40.5453C42.842 40.5234 43.1444 40.4497 43.3616 40.393L42.7862 38.186ZM43.3302 38.0488C43.2558 38.0649 43.0028 38.1296 42.7862 38.186L43.3616 40.393C43.4738 40.3638 43.5846 40.3353 43.6722 40.3131C43.7161 40.302 43.7531 40.2927 43.781 40.2858C43.8145 40.2775 43.8217 40.276 43.815 40.2774L43.3302 38.0488ZM43.2016 38.0962C43.2295 38.0819 43.2494 38.0736 43.2565 38.0707C43.2654 38.067 43.2715 38.0648 43.2749 38.0636C43.2784 38.0624 43.283 38.0609 43.2895 38.059C43.295 38.0574 43.3087 38.0534 43.3294 38.0489L43.8159 40.2772C43.9447 40.2491 44.1073 40.195 44.2429 40.1254L43.2016 38.0962ZM43.6593 37.9279C43.5631 37.9552 43.3506 38.0199 43.2024 38.0958L44.2421 40.1258C44.2279 40.1331 44.2163 40.1386 44.2086 40.1422C44.2006 40.1459 44.1942 40.1487 44.1899 40.1505C44.1817 40.154 44.177 40.1559 44.1768 40.156C44.1766 40.156 44.1826 40.1537 44.1955 40.1493C44.2076 40.1451 44.2223 40.1402 44.2383 40.1351C44.2544 40.1301 44.27 40.1254 44.2839 40.1214L43.6593 37.9279ZM44.8985 37.4188C44.3291 37.6871 43.8766 37.866 43.6591 37.9279L44.2841 40.1214C44.6868 40.0066 45.2763 39.762 45.8706 39.482L44.8985 37.4188ZM46.5007 36.4834C46.208 36.6923 45.2415 37.2572 44.8986 37.4188L45.8706 39.4821C46.3331 39.2642 47.4183 38.6307 47.8259 38.3397L46.5007 36.4834ZM47.2818 35.9327C47.3326 35.865 47.3786 35.8211 47.3806 35.8191C47.3923 35.8076 47.3991 35.8017 47.397 35.8035C47.3933 35.8068 47.3799 35.8184 47.3535 35.8401C47.3021 35.8822 47.2266 35.9419 47.1331 36.014C46.9472 36.1573 46.7119 36.3325 46.5006 36.4835L47.826 38.3396C48.0614 38.1715 48.319 37.9796 48.5254 37.8205C48.6281 37.7413 48.7237 37.6661 48.7999 37.6035C48.8373 37.5728 48.877 37.5396 48.9131 37.5074C48.9178 37.5033 49.0202 37.4161 49.1061 37.3017L47.2818 35.9327ZM47.6263 35.5964C47.5785 35.6366 47.5311 35.6775 47.4916 35.7126C47.4725 35.7296 47.4508 35.7492 47.4301 35.7688C47.4201 35.7781 47.4052 35.7923 47.3888 35.809C47.3857 35.8121 47.334 35.8631 47.2817 35.9329L49.1062 37.3015C49.0889 37.3246 49.074 37.3426 49.0643 37.354C49.0541 37.366 49.0454 37.3757 49.0391 37.3826C49.0268 37.3961 49.017 37.4062 49.0119 37.4114C49.0062 37.4171 49.0018 37.4214 48.9994 37.4238C48.9968 37.4263 48.995 37.4279 48.9943 37.4286C48.993 37.4299 48.9935 37.4294 48.9962 37.4269C48.9988 37.4245 49.0026 37.4211 49.0076 37.4167C49.0284 37.3982 49.0594 37.3713 49.0938 37.3424L47.6263 35.5964ZM49.2619 33.8539C48.7883 34.4657 48.0794 35.2156 47.6264 35.5964L49.0938 37.3424C49.6944 36.8377 50.5133 35.9634 51.0655 35.2499L49.2619 33.8539ZM51.2812 35.255C51.3169 35.1001 51.3474 34.9675 51.3686 34.8665C51.3792 34.8156 51.422 34.6271 51.4194 34.4468C51.4187 34.3937 51.4145 34.2584 51.3629 34.0977C51.3145 33.9467 51.1551 33.5711 50.709 33.3857C50.2728 33.2045 49.9025 33.3484 49.7725 33.4102C49.6279 33.479 49.5306 33.5626 49.4933 33.5956C49.3731 33.7022 49.2646 33.8504 49.262 33.8538L51.0654 35.25C51.1392 35.1547 51.088 35.2299 51.0062 35.3024C50.9786 35.3269 50.8897 35.4044 50.7523 35.4698C50.6296 35.5282 50.2654 35.6712 49.834 35.492C49.3928 35.3087 49.2372 34.9379 49.1913 34.7948C49.1423 34.6421 49.1394 34.5177 49.1389 34.4789C49.1371 34.3555 49.162 34.276 49.1362 34.3993C49.1209 34.4724 49.0964 34.5792 49.0588 34.7421L51.2812 35.255ZM37.6317 47.9508C43.9223 47.2632 49.6092 42.4999 51.2812 35.255L49.0588 34.7421C47.5983 41.0707 42.6811 45.1045 37.3839 45.6835L37.6317 47.9508ZM27.2116 18.3708C27.0885 18.6427 26.9481 18.96 26.9051 19.0672L29.0219 19.9164C29.0218 19.9166 29.0224 19.9151 29.024 19.9112C29.0256 19.9075 29.0276 19.9026 29.0303 19.8963C29.0356 19.8836 29.0426 19.8674 29.0511 19.8477C29.0681 19.8083 29.0899 19.7583 29.1152 19.701C29.1657 19.5865 29.228 19.447 29.2896 19.3109L27.2116 18.3708ZM29.3502 19.0765C29.3386 19.0925 29.3169 19.1216 29.2866 19.1561C29.2648 19.1809 29.1964 19.2579 29.0891 19.3337C29.0566 19.3566 28.6404 19.6686 28.0796 19.4862C27.4306 19.2751 27.3218 18.673 27.3079 18.5891C27.2819 18.4321 27.2962 18.3077 27.3001 18.2736C27.3061 18.2218 27.3145 18.1814 27.3192 18.1605C27.3286 18.118 27.3383 18.0868 27.3414 18.0772C27.3516 18.0447 27.3567 18.035 27.3406 18.0748C27.3163 18.1344 27.2716 18.238 27.2116 18.3708L29.2896 19.3109C29.3555 19.1652 29.4135 19.032 29.4532 18.9342C29.469 18.8954 29.4965 18.8269 29.5175 18.7603C29.5232 18.7421 29.5348 18.7039 29.5455 18.6561C29.5507 18.6325 29.5595 18.5898 29.5657 18.5362C29.5699 18.5001 29.5842 18.3743 29.558 18.2163C29.5439 18.1313 29.4348 17.5286 28.7852 17.3173C28.2239 17.1347 27.8069 17.447 27.7735 17.4706C27.6651 17.5471 27.5955 17.6252 27.5724 17.6516C27.5407 17.6877 27.5174 17.7188 27.504 17.7372L29.3502 19.0765ZM27.1436 19.0158C27.2092 18.9718 27.3622 18.8779 27.5835 18.8399C27.8433 18.7953 28.1823 18.8349 28.4766 19.0652C28.7322 19.2651 28.8284 19.5127 28.8644 19.6322C28.903 19.7605 28.9099 19.8668 28.9115 19.9197C28.915 20.0267 28.9016 20.1075 28.8979 20.1295C28.8924 20.1624 28.8867 20.186 28.8844 20.1951C28.8782 20.22 28.8784 20.2136 28.8997 20.1541C28.9361 20.0522 28.9981 19.8944 29.0721 19.7166C29.1451 19.5412 29.2234 19.3618 29.2894 19.2192C29.3781 19.0279 29.3937 19.0167 29.3499 19.0769L27.5043 17.7368C27.39 17.8942 27.279 18.133 27.22 18.2603C27.1384 18.4364 27.048 18.6442 26.9664 18.8403C26.8857 19.0342 26.8071 19.2323 26.752 19.3865C26.7275 19.4549 26.6943 19.5516 26.6712 19.644C26.6685 19.655 26.626 19.8085 26.6319 19.9927C26.6337 20.0493 26.641 20.1586 26.6803 20.2894C26.717 20.4112 26.8143 20.6605 27.0712 20.8615C27.7209 21.3698 28.368 20.941 28.416 20.9087L27.1436 19.0158ZM26.6732 19.9019C26.6732 19.6593 26.7524 19.4783 26.809 19.3774C26.8687 19.271 26.9719 19.1313 27.1437 19.0158L28.4159 20.9088C28.6063 20.7808 28.7265 20.6212 28.7984 20.4929C28.8672 20.3702 28.954 20.1653 28.954 19.9019H26.6732ZM26.8017 19.3244C26.7771 19.3854 26.7543 19.4499 26.7357 19.5112C26.7266 19.5414 26.7153 19.5813 26.7051 19.626C26.701 19.6443 26.6732 19.7595 26.6732 19.9019H28.954C28.954 19.9824 28.9451 20.0437 28.9415 20.0667C28.937 20.0961 28.9321 20.1185 28.9294 20.1307C28.9239 20.1549 28.9193 20.1699 28.9185 20.1726C28.9171 20.1771 28.9166 20.1786 28.917 20.1775C28.9173 20.1766 28.9175 20.176 28.9174 20.1763L26.8017 19.3244ZM26.9054 19.0664L26.8015 19.325L28.9176 20.1757L29.0216 19.9171L26.9054 19.0664ZM26.6055 19.8842C26.6093 19.8647 26.6124 19.8534 26.6129 19.8519C26.6136 19.8491 26.6138 19.8488 26.6134 19.85C26.613 19.8513 26.6132 19.8504 26.6146 19.8468C26.6155 19.8446 26.6206 19.8312 26.6308 19.8099L28.6874 20.7961C28.7554 20.6543 28.8143 20.4726 28.8435 20.324L26.6055 19.8842ZM26.6265 19.7778L26.6056 19.8839L28.8434 20.3244L28.8643 20.2183L26.6265 19.7778ZM28.7643 20.5195L28.8012 20.429L26.6896 19.5671L26.6527 19.6575L28.7643 20.5195ZM28.661 20.062C28.6868 20.1311 28.7082 20.2105 28.7196 20.2983C28.7307 20.3838 28.7299 20.4591 28.7249 20.5195C28.716 20.627 28.6921 20.7002 28.691 20.7037C28.6878 20.714 28.6892 20.708 28.7037 20.6705C28.7171 20.6358 28.7363 20.588 28.7644 20.5191L26.6525 19.6578C26.6011 19.7839 26.5473 19.9166 26.5132 20.0261C26.4828 20.124 26.3765 20.4638 26.5243 20.8596L28.661 20.062ZM26.4729 20.3913C26.4737 20.3753 26.477 20.31 26.4958 20.2249C26.5047 20.1843 26.5264 20.0954 26.5759 19.9902C26.6131 19.9113 26.7418 19.6551 27.0494 19.4833C27.4552 19.2566 27.8804 19.3273 28.1597 19.4837C28.3768 19.6051 28.4939 19.765 28.5311 19.8176C28.6171 19.9393 28.6558 20.0481 28.6612 20.0625L26.5241 20.8591C26.5346 20.8874 26.5782 21.0062 26.6684 21.1339C26.7078 21.1896 26.8269 21.3514 27.0459 21.474C27.3271 21.6314 27.754 21.7021 28.1615 21.4746C28.4707 21.3019 28.6008 21.0437 28.6393 20.962C28.6902 20.8539 28.7131 20.7613 28.7231 20.7158C28.744 20.6211 28.7489 20.5422 28.7506 20.5089L26.4729 20.3913ZM26.631 19.8097C26.5941 19.8864 26.5641 19.9643 26.5413 20.0349C26.5281 20.0761 26.4819 20.2188 26.4729 20.3904L28.7506 20.5097C28.748 20.5593 28.7424 20.5984 28.7386 20.6216C28.7345 20.6464 28.7303 20.6662 28.7272 20.6797C28.7211 20.706 28.7154 20.7245 28.7123 20.7341C28.7067 20.7514 28.6996 20.7707 28.6872 20.7964L26.631 19.8097ZM26.4436 20.6583C26.437 20.5969 26.4368 20.5474 26.4373 20.5196C26.4377 20.4893 26.4394 20.4643 26.4407 20.4474C26.4434 20.4145 26.4469 20.389 26.4488 20.3762C26.4526 20.3501 26.4564 20.3315 26.4573 20.3273C26.4595 20.3165 26.4603 20.3139 26.4576 20.3251C26.4528 20.3447 26.4439 20.3796 26.4303 20.4302C26.4038 20.5294 26.3656 20.6668 26.3223 20.8168L28.5136 21.4493C28.5599 21.2887 28.6024 21.1365 28.6337 21.0194C28.6491 20.9619 28.6634 20.907 28.6743 20.8616C28.6795 20.8402 28.6863 20.8113 28.6924 20.7813C28.6952 20.7675 28.7004 20.741 28.7052 20.7089C28.7075 20.6931 28.7114 20.665 28.7142 20.63C28.7159 20.609 28.723 20.523 28.7113 20.4143L26.4436 20.6583ZM28.3144 22.049C28.3306 21.9747 28.4101 21.6882 28.5002 21.385C28.5426 21.2425 28.5817 21.1149 28.6093 21.0293C28.6161 21.0084 28.6216 20.9917 28.6258 20.9791C28.6304 20.9655 28.6321 20.961 28.6314 20.9629C28.631 20.9639 28.6285 20.9707 28.6243 20.9811C28.6215 20.9878 28.6102 21.0155 28.5921 21.0516C28.5835 21.0688 28.5645 21.1057 28.536 21.1503C28.5234 21.17 28.4425 21.3014 28.2918 21.4229C28.2172 21.4829 28.0279 21.6216 27.7404 21.6633C27.384 21.715 27.0374 21.5948 26.7923 21.3623C26.5948 21.1751 26.5191 20.9696 26.4918 20.8849C26.4595 20.7847 26.4482 20.7015 26.4435 20.6574L28.7114 20.4152C28.7066 20.3705 28.6952 20.2866 28.6628 20.186C28.6354 20.1007 28.5594 19.8949 28.3617 19.7074C28.1164 19.4747 27.7695 19.3544 27.4128 19.4062C27.125 19.4479 26.9353 19.5868 26.8604 19.6471C26.709 19.7692 26.6272 19.9017 26.6135 19.9231C26.584 19.9693 26.5638 20.0083 26.5538 20.0282C26.5199 20.0957 26.4972 20.1582 26.4926 20.1707C26.4743 20.2201 26.455 20.2784 26.4385 20.3296C26.4033 20.4389 26.3585 20.5853 26.3139 20.7354C26.2302 21.0173 26.1237 21.3901 26.0859 21.5634L28.3144 22.049ZM28.2151 22.5038L28.3143 22.0495L26.086 21.5629L25.9868 22.0173L28.2151 22.5038ZM28.1912 22.5257C28.1918 22.541 28.1919 22.5542 28.1919 22.5648C28.1919 22.5755 28.1917 22.5848 28.1915 22.5924C28.1911 22.6072 28.1904 22.6189 28.1899 22.6264C28.1894 22.6342 28.1888 22.6401 28.1885 22.6437C28.1881 22.6475 28.1879 22.6499 28.1877 22.651C28.1875 22.6529 28.1876 22.6519 28.1882 22.6475C28.1888 22.6433 28.1897 22.6372 28.191 22.6294C28.1935 22.6136 28.197 22.5938 28.2012 22.5715C28.2055 22.5493 28.2101 22.5264 28.2149 22.5045L25.9869 22.0166C25.9683 22.1017 25.9515 22.1901 25.939 22.2681C25.9343 22.2976 25.9063 22.4578 25.912 22.6103L28.1912 22.5257ZM26.0486 21.9015C26.0225 22.0283 26.0033 22.1209 25.9889 22.1886C25.9731 22.2629 25.9675 22.286 25.9675 22.2859C25.968 22.2839 25.9706 22.274 25.975 22.2595C25.9784 22.2485 25.989 22.214 26.0074 22.1695C26.0096 22.164 26.0716 21.9982 26.2195 21.8375C26.2907 21.7602 26.5161 21.5342 26.9009 21.481C27.3699 21.416 27.716 21.6461 27.889 21.8311C28.0355 21.9877 28.0991 22.1455 28.1202 22.2005C28.1477 22.2722 28.1619 22.3314 28.1686 22.3622C28.1821 22.424 28.1869 22.472 28.1881 22.4852C28.1912 22.5161 28.1916 22.5377 28.1912 22.5253L25.912 22.6106C25.9124 22.6216 25.9138 22.6627 25.9183 22.7082C25.9203 22.7286 25.9259 22.7826 25.9404 22.849C25.9476 22.882 25.9623 22.9431 25.9904 23.0164C26.012 23.0729 26.0763 23.2318 26.2234 23.3892C26.3971 23.5748 26.744 23.8052 27.2137 23.7402C27.5993 23.6868 27.8256 23.4604 27.8977 23.382C28.0474 23.2194 28.1115 23.0497 28.1161 23.0385C28.1507 22.9546 28.17 22.8787 28.1742 22.8623C28.199 22.7674 28.2348 22.5933 28.2825 22.3619L26.0486 21.9015ZM26.3223 20.8168C26.2269 21.1473 26.1053 21.6264 26.0486 21.9016L28.2825 22.3618C28.3241 22.1596 28.4297 21.74 28.5136 21.4493L26.3223 20.8168ZM25.9009 22.7645C25.9009 22.764 25.9009 22.7615 25.901 22.7572C25.9011 22.7531 25.9014 22.7454 25.902 22.7349C25.9023 22.7313 25.9058 22.6611 25.9279 22.569C25.9326 22.5495 25.9692 22.3805 26.0906 22.2015C26.1514 22.1118 26.3173 21.8931 26.6329 21.7748C27.0183 21.6303 27.3883 21.7199 27.6376 21.8761C27.8414 22.0039 27.9501 22.1622 27.9909 22.2258C28.0405 22.3033 28.07 22.3705 28.0851 22.4073C28.1152 22.4813 28.13 22.5409 28.135 22.5621L25.9171 23.0936C25.9242 23.1235 25.941 23.1897 25.9731 23.2686C25.9891 23.3078 26.0197 23.377 26.0702 23.4559C26.1119 23.521 26.2216 23.6804 26.4263 23.8087C26.6765 23.9655 27.0474 24.0552 27.4337 23.9104C27.7501 23.7917 27.9168 23.5723 27.9784 23.4814C28.1014 23.3 28.1396 23.1269 28.1456 23.1017C28.1841 22.9417 28.1816 22.7895 28.1816 22.7645H25.9009ZM28.135 22.967C28.13 22.9882 28.1152 23.0477 28.0851 23.1217C28.07 23.1586 28.0405 23.2258 27.9909 23.3032C27.9501 23.3668 27.8414 23.5252 27.6376 23.6529C27.3883 23.8091 27.0184 23.8988 26.6329 23.7543C26.3174 23.636 26.1514 23.4173 26.0906 23.3276C25.9692 23.1485 25.9326 22.9796 25.9279 22.9601C25.9058 22.8679 25.9023 22.7978 25.902 22.7942C25.9014 22.7837 25.9011 22.776 25.901 22.7719C25.9009 22.7675 25.9009 22.765 25.9009 22.7645H28.1816C28.1816 22.7396 28.1841 22.5874 28.1456 22.4274C28.1396 22.4021 28.1014 22.2291 27.9784 22.0476C27.9168 21.9568 27.75 21.7373 27.4336 21.6187C27.0473 21.4738 26.6765 21.5636 26.4263 21.7204C26.2216 21.8487 26.1119 22.0081 26.0702 22.0731C26.0197 22.1521 25.9891 22.2212 25.9731 22.2605C25.941 22.3393 25.9242 22.4056 25.9171 22.4355L28.135 22.967ZM28.1348 22.5611C28.1482 22.6168 28.1538 22.6612 28.1564 22.688C28.1592 22.717 28.1602 22.7425 28.1602 22.7645C28.1602 22.7866 28.1592 22.8121 28.1564 22.8411C28.1538 22.8679 28.1482 22.9123 28.1348 22.968L25.9173 22.4345C25.8667 22.6447 25.8667 22.8844 25.9173 23.0946L28.1348 22.5611ZM25.863 22.9388C25.8543 23.024 25.8244 23.3052 25.7965 23.5642L28.0641 23.8091C28.0919 23.551 28.1226 23.2626 28.1321 23.1689L25.863 22.9388ZM25.8794 22.7761L25.8629 22.9389L28.1321 23.1688L28.1486 23.0061L25.8794 22.7761ZM28.0943 23.2789L28.1241 23.1524L25.904 22.6298L25.8742 22.7564L28.0943 23.2789ZM28.156 27.6603C28.0601 27.275 27.9845 26.4085 27.9717 25.4411C27.9588 24.4678 28.0127 23.6255 28.0943 23.2791L25.8742 22.7563C25.7221 23.4024 25.6782 24.4955 25.6911 25.4713C25.7041 26.4531 25.778 27.5493 25.9428 28.2114L28.156 27.6603ZM28.2788 28.0945L28.1472 27.6269L25.9517 28.2448L26.0833 28.7124L28.2788 28.0945ZM28.2799 28.3308C28.256 28.219 28.2459 28.1618 28.2428 28.141C28.2406 28.1266 28.2449 28.1503 28.247 28.1932C28.2479 28.2109 28.2507 28.2715 28.2424 28.3514C28.2383 28.3909 28.2283 28.4674 28.2 28.5604C28.177 28.6357 28.1095 28.8348 27.926 29.0226C27.694 29.26 27.3382 29.4106 26.9469 29.3532C26.6374 29.3078 26.4396 29.1501 26.368 29.0882C26.2198 28.9597 26.1442 28.8237 26.1354 28.8085C26.1104 28.7657 26.0948 28.7319 26.0889 28.7186C26.0815 28.7024 26.0769 28.6908 26.0751 28.6862C26.0705 28.6744 26.0753 28.6859 26.0874 28.7268L28.2746 28.0801C28.2545 28.0121 28.2284 27.9301 28.1988 27.8544C28.1882 27.8272 28.1567 27.7472 28.1059 27.66C28.0925 27.637 28.013 27.4955 27.8613 27.3641C27.788 27.3007 27.5886 27.1421 27.2778 27.0966C26.885 27.039 26.5279 27.19 26.2948 27.4285C26.1102 27.6174 26.0418 27.8183 26.0181 27.8962C25.989 27.9917 25.9784 28.0714 25.9739 28.1148C25.9647 28.2026 25.9675 28.2741 25.969 28.3057C25.9725 28.3766 25.9814 28.441 25.9875 28.4815C26.001 28.5706 26.0224 28.6808 26.0496 28.8078L28.2799 28.3308ZM26.4285 28.2035C26.5461 28.0756 26.7335 27.9322 26.9966 27.8678C27.2626 27.8027 27.5014 27.8439 27.6755 27.9107C27.9693 28.0233 28.1265 28.2242 28.159 28.265C28.2548 28.3855 28.3021 28.4984 28.3061 28.5075C28.3212 28.5417 28.3309 28.5684 28.3347 28.579C28.3393 28.592 28.3423 28.6015 28.3436 28.6057C28.3471 28.6168 28.3453 28.6119 28.3374 28.5808C28.3233 28.5257 28.3027 28.4373 28.28 28.331L26.0496 28.8077C26.0763 28.9326 26.1036 29.0512 26.127 29.1433C26.1378 29.1858 26.1521 29.2395 26.1679 29.2899C26.1732 29.3068 26.1915 29.3653 26.2209 29.4317C26.2271 29.4455 26.2762 29.5617 26.3735 29.6842C26.4067 29.726 26.5646 29.9274 26.859 30.0403C27.0334 30.1072 27.2725 30.1484 27.5387 30.0832C27.8022 30.0188 27.9898 29.8752 28.1076 29.7471L26.4285 28.2035ZM26.0874 28.7268C26.1092 28.8003 26.1306 28.8885 26.1411 28.9474C26.147 28.9812 26.1432 28.9712 26.1419 28.9325C26.1414 28.9153 26.1396 28.8519 26.1535 28.7649C26.1607 28.7198 26.1756 28.6465 26.2086 28.5592C26.2404 28.4752 26.3039 28.3391 26.4285 28.2035L28.1076 29.7471C28.346 29.4878 28.3936 29.2003 28.4055 29.1258C28.4239 29.0115 28.4234 28.9137 28.4215 28.8568C28.4175 28.7386 28.4006 28.6273 28.387 28.55C28.358 28.3866 28.3139 28.2129 28.2746 28.0802L26.0874 28.7268ZM26.0747 28.6801L26.0747 28.6801L28.2874 28.1269L28.2874 28.1269L26.0747 28.6801ZM28.2792 28.096L28.2792 28.096L26.0829 28.7109L26.0829 28.711L28.2792 28.096ZM26.0911 28.7388C26.0884 28.73 26.0863 28.7228 26.0849 28.7182C26.0837 28.714 26.0827 28.7104 26.0829 28.7109V28.7109C26.0829 28.7109 26.0829 28.7109 26.0829 28.7109C26.0829 28.7109 26.0829 28.7109 26.0829 28.7109C26.0829 28.711 26.0829 28.711 26.0829 28.711C26.0829 28.711 26.0829 28.711 26.0829 28.7111C26.0829 28.7111 26.083 28.7112 26.083 28.7114C26.0831 28.7117 26.0832 28.7122 26.0834 28.7128C26.0837 28.7139 26.0842 28.7158 26.0849 28.7182C26.0863 28.7229 26.0884 28.7301 26.0911 28.7388L28.271 28.0681C28.2737 28.0769 28.2758 28.0841 28.2771 28.0887C28.2783 28.0929 28.2793 28.0965 28.2792 28.096L28.2792 28.096C28.2792 28.096 28.2792 28.096 28.2792 28.096C28.2792 28.096 28.2792 28.096 28.2792 28.096C28.2792 28.096 28.2792 28.096 28.2792 28.0959C28.2792 28.0959 28.2792 28.0959 28.2791 28.0959C28.2791 28.0958 28.2791 28.0957 28.279 28.0955C28.279 28.0952 28.2788 28.0947 28.2787 28.0941C28.2783 28.093 28.2778 28.0911 28.2771 28.0887C28.2758 28.084 28.2737 28.0768 28.271 28.0681L26.0911 28.7388ZM25.9525 28.1604L26.0708 28.6642L28.2912 28.1428L28.1729 27.639L25.9525 28.1604ZM25.8522 27.4326C25.8867 27.686 25.9211 27.9526 25.9294 28.0268L28.196 27.7726C28.1842 27.6677 28.1462 27.3755 28.1121 27.1249L25.8522 27.4326ZM25.7965 23.5644C25.6688 24.7473 25.6906 26.2451 25.8521 27.4325L28.1121 27.1251C27.9753 26.119 27.9565 24.8066 28.0641 23.809L25.7965 23.5644Z" fill="#96A9EB" mask="url(#path-4-outside-1_3023_221)"/>
</svg>
