<svg width="490" height="127" viewBox="0 0 490 127" fill="none" xmlns="http://www.w3.org/2000/svg">
<path d="M174.273 82.7956C170.604 82.7956 167.23 82.1842 164.15 80.9612C161.115 79.693 158.488 77.9491 156.269 75.7297C154.049 73.5103 152.328 70.9059 151.105 67.9165C149.927 64.927 149.339 61.6885 149.339 58.2008C149.339 54.7132 149.95 51.4973 151.173 48.5532C152.441 45.5637 154.208 42.982 156.472 40.8078C158.782 38.5884 161.477 36.8672 164.557 35.6443C167.637 34.4214 171.012 33.8099 174.681 33.8099C177.217 33.8099 179.64 34.1496 181.95 34.829C184.26 35.5084 186.367 36.437 188.269 37.6146C190.171 38.7923 191.757 40.1511 193.025 41.6911L186.706 48.3493C185.529 47.217 184.283 46.2658 182.97 45.4958C181.701 44.6805 180.365 44.069 178.961 43.6614C177.557 43.2084 176.108 42.982 174.613 42.982C172.484 42.982 170.514 43.367 168.702 44.137C166.935 44.907 165.373 45.9714 164.014 47.3302C162.655 48.689 161.591 50.297 160.821 52.1541C160.096 54.0111 159.734 56.0267 159.734 58.2008C159.734 60.3297 160.119 62.3453 160.889 64.2476C161.704 66.1047 162.791 67.7353 164.15 69.1394C165.554 70.4982 167.185 71.5853 169.042 72.4006C170.899 73.1706 172.892 73.5556 175.02 73.5556C176.515 73.5556 177.942 73.3291 179.301 72.8762C180.66 72.4232 181.837 71.7891 182.834 70.9738C183.875 70.1132 184.668 69.1168 185.212 67.9844C185.8 66.852 186.095 65.6517 186.095 64.3835V62.7529L187.454 64.6553H173.865V56.1626H195.878C195.924 56.6608 195.969 57.2723 196.014 57.997C196.105 58.7217 196.15 59.4464 196.15 60.1711C196.196 60.8506 196.218 61.3941 196.218 61.8017C196.218 64.8817 195.652 67.7126 194.52 70.2944C193.433 72.8762 191.893 75.0956 189.9 76.9527C187.952 78.8097 185.642 80.2591 182.97 81.3009C180.297 82.2974 177.398 82.7956 174.273 82.7956ZM220.906 82.7956C217.011 82.7956 213.613 82.003 210.715 80.4177C207.816 78.8324 205.551 76.6583 203.92 73.8953C202.29 71.1324 201.475 67.9618 201.475 64.3835C201.475 61.6206 201.928 59.0841 202.833 56.7741C203.739 54.4641 205.008 52.4711 206.638 50.7952C208.269 49.0741 210.194 47.7605 212.413 46.8546C214.678 45.9035 217.124 45.4279 219.751 45.4279C222.197 45.4279 224.461 45.8808 226.545 46.7867C228.629 47.6473 230.418 48.8929 231.912 50.5235C233.452 52.1088 234.63 53.9885 235.445 56.1626C236.261 58.3367 236.623 60.7147 236.532 63.2964L236.464 66.2859H207.589L206.027 60.375H228.515L227.428 61.5979V60.1032C227.338 58.8803 226.93 57.7705 226.205 56.7741C225.526 55.7776 224.643 55.0076 223.556 54.4641C222.468 53.9205 221.246 53.6488 219.887 53.6488C217.894 53.6488 216.195 54.0338 214.791 54.8038C213.432 55.5738 212.391 56.7061 211.666 58.2008C210.941 59.6956 210.579 61.5073 210.579 63.6362C210.579 65.8103 211.032 67.69 211.938 69.2753C212.889 70.8606 214.202 72.1062 215.878 73.0121C217.599 73.8727 219.615 74.303 221.925 74.303C223.51 74.303 224.96 74.0538 226.273 73.5556C227.587 73.0574 228.991 72.1968 230.486 70.9738L235.106 77.4283C233.792 78.6059 232.343 79.6024 230.757 80.4177C229.172 81.1877 227.541 81.7765 225.866 82.1842C224.19 82.5918 222.536 82.7956 220.906 82.7956ZM243.594 82.1162V46.1752H252.902L253.106 53.0373L251.679 53.3091C252.177 52.1314 252.834 51.067 253.649 50.1158C254.465 49.1646 255.416 48.3493 256.503 47.6699C257.635 46.9905 258.813 46.4696 260.036 46.1073C261.259 45.6996 262.482 45.4958 263.705 45.4958C265.562 45.4958 267.238 45.7902 268.732 46.379C270.227 46.9679 271.495 47.8964 272.537 49.1646C273.579 50.3876 274.394 52.0182 274.983 54.0564L273.488 53.9205L273.964 52.8335C274.553 51.7464 275.3 50.7726 276.206 49.912C277.112 49.0061 278.131 48.2361 279.263 47.602C280.396 46.9226 281.573 46.4017 282.796 46.0393C284.019 45.677 285.219 45.4958 286.397 45.4958C289.205 45.4958 291.538 46.062 293.395 47.1943C295.252 48.2814 296.634 49.9346 297.539 52.1541C298.491 54.3735 298.966 57.0911 298.966 60.307V82.1162H289.319V60.9864C289.319 59.3558 289.092 58.0197 288.639 56.9779C288.186 55.9361 287.529 55.1661 286.669 54.6679C285.808 54.1244 284.699 53.8526 283.34 53.8526C282.298 53.8526 281.324 54.0338 280.418 54.3961C279.558 54.7132 278.788 55.1888 278.108 55.8229C277.474 56.4117 276.976 57.1138 276.614 57.9291C276.251 58.7444 276.07 59.6503 276.07 60.6467V82.1162H266.422V60.9185C266.422 59.4238 266.173 58.1555 265.675 57.1138C265.222 56.0267 264.565 55.2114 263.705 54.6679C262.844 54.1244 261.78 53.8526 260.511 53.8526C259.47 53.8526 258.496 54.0338 257.59 54.3961C256.729 54.7132 255.982 55.1888 255.348 55.8229C254.714 56.4117 254.193 57.1138 253.785 57.9291C253.423 58.7444 253.242 59.6276 253.242 60.5788V82.1162H243.594ZM324.935 82.7956C321.991 82.7956 319.296 82.4333 316.85 81.7086C314.449 80.9839 312.298 79.9194 310.395 78.5153C308.538 77.1112 306.862 75.4127 305.368 73.4197L311.754 66.15C313.973 69.23 316.17 71.3362 318.344 72.4685C320.564 73.5556 322.964 74.0991 325.546 74.0991C326.95 74.0991 328.196 73.918 329.283 73.5556C330.415 73.1479 331.299 72.5818 331.933 71.8571C332.567 71.1324 332.884 70.2718 332.884 69.2753C332.884 68.5506 332.725 67.8938 332.408 67.305C332.091 66.6709 331.638 66.1273 331.049 65.6744C330.461 65.1762 329.759 64.7459 328.943 64.3835C328.128 63.9759 327.222 63.6362 326.226 63.3644C325.229 63.0473 324.142 62.7982 322.964 62.617C320.428 62.0282 318.209 61.3261 316.306 60.5108C314.404 59.6503 312.818 58.6085 311.55 57.3855C310.282 56.1173 309.331 54.6905 308.697 53.1052C308.108 51.5199 307.813 49.7308 307.813 47.7379C307.813 45.6996 308.266 43.8199 309.172 42.0987C310.078 40.3323 311.324 38.8149 312.909 37.5467C314.54 36.2784 316.397 35.3046 318.48 34.6252C320.609 33.9458 322.851 33.6061 325.206 33.6061C328.105 33.6061 330.642 33.9458 332.816 34.6252C334.99 35.2593 336.87 36.1878 338.455 37.4108C340.086 38.6337 341.444 40.1284 342.532 41.8949L336.077 48.1455C335.126 46.8773 334.084 45.8129 332.952 44.9523C331.865 44.0917 330.664 43.4576 329.351 43.0499C328.083 42.597 326.769 42.3705 325.41 42.3705C323.916 42.3705 322.625 42.5743 321.538 42.982C320.451 43.3443 319.59 43.8879 318.956 44.6126C318.367 45.3373 318.073 46.2205 318.073 47.2623C318.073 48.0776 318.276 48.8023 318.684 49.4364C319.092 50.0705 319.681 50.6367 320.451 51.1349C321.221 51.5879 322.149 51.9955 323.236 52.3579C324.323 52.7202 325.524 53.0373 326.837 53.3091C329.328 53.8073 331.57 54.4641 333.563 55.2794C335.556 56.0947 337.255 57.0911 338.659 58.2688C340.108 59.4011 341.218 60.76 341.988 62.3453C342.758 63.8853 343.143 65.6291 343.143 67.5768C343.143 70.7926 342.373 73.5329 340.833 75.7977C339.293 78.0624 337.164 79.8062 334.447 81.0291C331.729 82.2068 328.558 82.7956 324.935 82.7956ZM351.083 82.1162V31.8396H360.73V82.1162H351.083ZM386.911 82.7956C383.016 82.7956 379.619 82.003 376.72 80.4177C373.821 78.8324 371.556 76.6583 369.926 73.8953C368.295 71.1324 367.48 67.9618 367.48 64.3835C367.48 61.6206 367.933 59.0841 368.839 56.7741C369.745 54.4641 371.013 52.4711 372.643 50.7952C374.274 49.0741 376.199 47.7605 378.418 46.8546C380.683 45.9035 383.129 45.4279 385.756 45.4279C388.202 45.4279 390.467 45.8808 392.55 46.7867C394.634 47.6473 396.423 48.8929 397.918 50.5235C399.458 52.1088 400.635 53.9885 401.451 56.1626C402.266 58.3367 402.628 60.7147 402.538 63.2964L402.47 66.2859H373.595L372.032 60.375H394.52L393.433 61.5979V60.1032C393.343 58.8803 392.935 57.7705 392.21 56.7741C391.531 55.7776 390.648 55.0076 389.561 54.4641C388.474 53.9205 387.251 53.6488 385.892 53.6488C383.899 53.6488 382.2 54.0338 380.796 54.8038C379.437 55.5738 378.396 56.7061 377.671 58.2008C376.946 59.6956 376.584 61.5073 376.584 63.6362C376.584 65.8103 377.037 67.69 377.943 69.2753C378.894 70.8606 380.207 72.1062 381.883 73.0121C383.605 73.8727 385.62 74.303 387.93 74.303C389.515 74.303 390.965 74.0538 392.278 73.5556C393.592 73.0574 394.996 72.1968 396.491 70.9738L401.111 77.4283C399.797 78.6059 398.348 79.6024 396.763 80.4177C395.177 81.1877 393.547 81.7765 391.871 82.1842C390.195 82.5918 388.542 82.7956 386.911 82.7956ZM426.72 82.7956C422.825 82.7956 419.428 82.003 416.529 80.4177C413.63 78.8324 411.366 76.6583 409.735 73.8953C408.105 71.1324 407.289 67.9618 407.289 64.3835C407.289 61.6206 407.742 59.0841 408.648 56.7741C409.554 54.4641 410.822 52.4711 412.453 50.7952C414.083 49.0741 416.008 47.7605 418.228 46.8546C420.492 45.9035 422.938 45.4279 425.565 45.4279C428.011 45.4279 430.276 45.8808 432.36 46.7867C434.443 47.6473 436.232 48.8929 437.727 50.5235C439.267 52.1088 440.445 53.9885 441.26 56.1626C442.075 58.3367 442.438 60.7147 442.347 63.2964L442.279 66.2859H413.404L411.841 60.375H434.33L433.243 61.5979V60.1032C433.152 58.8803 432.745 57.7705 432.02 56.7741C431.34 55.7776 430.457 55.0076 429.37 54.4641C428.283 53.9205 427.06 53.6488 425.701 53.6488C423.708 53.6488 422.01 54.0338 420.606 54.8038C419.247 55.5738 418.205 56.7061 417.48 58.2008C416.756 59.6956 416.393 61.5073 416.393 63.6362C416.393 65.8103 416.846 67.69 417.752 69.2753C418.703 70.8606 420.017 72.1062 421.693 73.0121C423.414 73.8727 425.43 74.303 427.74 74.303C429.325 74.303 430.774 74.0538 432.088 73.5556C433.401 73.0574 434.805 72.1968 436.3 70.9738L440.92 77.4283C439.607 78.6059 438.157 79.6024 436.572 80.4177C434.987 81.1877 433.356 81.7765 431.68 82.1842C430.004 82.5918 428.351 82.7956 426.72 82.7956ZM449.477 97.0633V46.1752H458.785L459.056 54.2602L457.29 53.6488C457.607 52.1994 458.377 50.8632 459.6 49.6402C460.868 48.4173 462.431 47.4208 464.288 46.6508C466.145 45.8808 468.093 45.4958 470.131 45.4958C473.256 45.4958 476.019 46.3111 478.42 47.9417C480.865 49.527 482.791 51.7238 484.195 54.532C485.644 57.295 486.369 60.4882 486.369 64.1117C486.369 67.69 485.667 70.8832 484.263 73.6915C482.858 76.4997 480.933 78.7191 478.488 80.3497C476.042 81.935 473.256 82.7277 470.131 82.7277C468.047 82.7277 466.054 82.3427 464.152 81.5727C462.295 80.7574 460.71 79.693 459.396 78.3794C458.082 77.0659 457.267 75.6618 456.95 74.1671L459.192 73.2159V97.0633H449.477ZM467.957 74.4388C469.723 74.4388 471.286 74.0085 472.645 73.1479C474.003 72.2874 475.068 71.0871 475.838 69.5471C476.608 67.9618 476.993 66.15 476.993 64.1117C476.993 62.0735 476.608 60.2844 475.838 58.7444C475.068 57.2044 474.003 56.0041 472.645 55.1435C471.331 54.2829 469.768 53.8526 467.957 53.8526C466.145 53.8526 464.56 54.2829 463.201 55.1435C461.842 55.9588 460.777 57.1591 460.007 58.7444C459.237 60.2844 458.852 62.0735 458.852 64.1117C458.852 66.15 459.237 67.9618 460.007 69.5471C460.777 71.0871 461.842 72.2874 463.201 73.1479C464.56 74.0085 466.145 74.4388 467.957 74.4388Z" fill="#12235D"/>
<rect x="0.976562" y="0.826172" width="125.994" height="125.994" rx="17.0481" fill="#12235D"/>
<path d="M48.8044 80.5005H40.5625V87.296H48.8044V96.0149H57.3129V87.296H65.8205V80.5005H57.3129V72.2944H48.8044V80.5005Z" stroke="#96A9EB" stroke-width="2.83132" stroke-linecap="round"/>
<mask id="path-4-outside-1_3023_18" maskUnits="userSpaceOnUse" x="35.4922" y="27.583" width="56" height="58" fill="black">
<rect fill="white" x="35.4922" y="27.583" width="56" height="58"/>
<path fill-rule="evenodd" clip-rule="evenodd" d="M51.2416 31.226C51.4158 30.9177 51.5584 30.6336 51.5584 30.5946C51.5584 30.4726 50.2703 31.3356 49.1705 32.1942C35.3814 42.9607 35.0094 64.9957 47.6916 76.474V76.3287C34.8651 64.6508 35.5328 42.4533 49.8486 31.805C51.396 30.654 51.5045 30.625 51.0224 31.492C50.8228 31.8509 50.674 32.1605 50.6919 32.1799C50.7097 32.1993 50.7693 32.1187 50.8245 32.0008C50.8796 31.8829 51.0673 31.5342 51.2416 31.226ZM66.6855 82.7464V82.8594C76.9976 81.7451 86.4221 73.9186 89.2342 61.7847C89.5718 60.328 89.5644 60.3046 88.9985 61.0464C88.79 61.3198 88.2071 61.991 87.7032 62.5379C86.7622 63.5592 86.5669 63.7554 86.1089 64.1394C85.963 64.2618 85.8303 64.3781 85.8141 64.3978C85.7979 64.4176 85.652 64.5482 85.4898 64.6881C85.3277 64.8279 85.1817 64.9575 85.1655 64.9759C85.1362 65.0092 83.5548 66.1493 83.1609 66.4212C82.8804 66.6148 81.0257 67.668 80.9654 67.668C80.9388 67.668 80.7586 67.755 80.565 67.8613C80.3713 67.9676 80.2129 68.0365 80.2129 68.0143C80.2129 67.9921 80.1481 68.0201 80.0689 68.0765C79.9364 68.171 79.5393 68.3457 79.3285 68.4023C79.2799 68.4154 79.1207 68.482 78.9747 68.5504C78.8288 68.6188 78.5635 68.7123 78.3851 68.7584C78.2068 68.8045 78.0211 68.8657 77.9724 68.8945C77.8958 68.9399 76.4461 69.3649 76.1152 69.4391C76.0503 69.4536 75.6258 69.5355 75.1718 69.6211C74.3592 69.7743 74.0737 69.8149 73.3146 69.8856C73.1038 69.9051 72.8252 69.9326 72.6955 69.9465C72.3753 69.981 69.7234 69.9877 69.6712 69.9541C69.6484 69.9394 69.3908 69.9076 69.099 69.8835C68.8071 69.8593 68.3295 69.7997 68.0377 69.751C67.7458 69.7023 67.3877 69.6446 67.2417 69.6228C67.0958 69.6009 66.857 69.5537 66.7111 69.5178C66.5652 69.4818 66.3927 69.4441 66.3279 69.4339C66.2046 69.4147 66.0351 69.3746 65.5909 69.2594C64.8136 69.0581 62.9085 68.3875 62.4276 68.1461C62.3254 68.0948 62.2267 68.0528 62.2083 68.0528C62.1076 68.0528 60.0215 66.957 59.7538 66.7635C59.6728 66.7049 59.5106 66.5986 59.3934 66.5272C58.9819 66.2766 58.9003 66.2206 58.1656 65.6858C56.0295 64.1308 54.2995 62.3862 52.7226 60.1967C52.6972 60.1614 52.6305 60.0703 52.5743 59.9942C52.5182 59.9182 52.4325 59.792 52.3838 59.7138C52.3352 59.6357 52.2682 59.5392 52.235 59.4994C52.2017 59.4596 52.0176 59.1674 51.8257 58.8499C51.6338 58.5325 51.459 58.2583 51.4371 58.2407C51.4153 58.223 51.3372 58.0787 51.2636 57.92C51.19 57.7613 51.1104 57.617 51.0867 57.5994C51.0335 57.5599 49.8486 55.1092 49.8486 55.0387C49.8486 55.0109 49.7574 54.7735 49.646 54.5112C49.4151 53.9675 49.0919 52.9793 48.6217 51.3786H48.5898C48.6311 51.6512 48.98 52.8579 49.1831 53.4308C49.2644 53.6601 49.3711 53.9631 49.4203 54.1042C49.4695 54.2453 49.5727 54.4945 49.6496 54.658C49.7266 54.8215 49.7896 54.9889 49.7896 55.0301C49.7896 55.1153 50.8853 57.3907 51.0957 57.7424C51.1718 57.8697 51.3137 58.1241 51.411 58.3079C51.5083 58.4917 51.6323 58.6939 51.6866 58.7572C51.7409 58.8205 51.8175 58.9376 51.8567 59.0174C51.896 59.0972 51.9516 59.1932 51.9803 59.2307C52.0089 59.2682 52.2465 59.6116 52.5081 59.9939C52.7698 60.3763 53.028 60.7383 53.0818 60.7986C53.1357 60.8588 53.3248 61.0943 53.502 61.322C53.9304 61.8722 55.4409 63.5156 55.92 63.9527C56.13 64.1444 56.3314 64.33 56.3676 64.3652C56.4038 64.4005 56.5106 64.4918 56.6049 64.5681L57.0417 64.9219C58.5853 66.1736 61.6578 68.0937 62.1579 68.1191C62.1814 68.1203 62.3068 68.177 62.4365 68.2452C62.5662 68.3134 62.7135 68.3701 62.7637 68.3713C62.814 68.3725 62.8804 68.3994 62.9111 68.4311C63.1647 68.6921 66.5064 69.6213 68.0082 69.8484C69.7318 70.109 71.8753 70.1471 73.5578 69.9469C74.7497 69.8051 74.9092 69.7822 75.1424 69.7192C75.2559 69.6886 75.4548 69.6467 75.5846 69.6263C75.7143 69.6057 76.152 69.5026 76.5574 69.3969C76.9627 69.2912 77.3607 69.1902 77.4418 69.1726C77.5229 69.1549 77.6423 69.1132 77.7071 69.0799C77.772 69.0467 77.971 68.9779 78.1493 68.9271C78.6992 68.7704 79.6232 68.3949 80.6551 67.9088C81.3693 67.5723 83.1885 66.5097 83.8095 66.0664C84.6018 65.5006 85.5573 64.7642 85.6372 64.6577C85.6534 64.6361 85.786 64.5182 85.9318 64.3956C86.8661 63.6105 88.2208 62.1703 89.1303 60.9951C89.4014 60.645 89.4016 60.6602 89.1416 61.7872C86.3639 73.8231 76.9608 81.6237 66.6855 82.7464ZM49.7606 34.2875C49.8172 34.1464 50.0463 33.627 50.2697 33.1332C50.4931 32.6394 50.6339 32.293 50.5827 32.3636C50.3326 32.708 49.2866 35.2215 49.4348 35.122C49.4678 35.0998 49.4948 35.0516 49.4948 35.0149C49.4948 34.9782 49.5315 34.8573 49.5762 34.7461C49.621 34.635 49.704 34.4286 49.7606 34.2875ZM49.2208 35.7262C49.2642 35.6357 49.3164 35.477 49.3367 35.3735L49.3738 35.1854L49.3083 35.3457C49.1055 35.843 49.0767 35.9357 49.1029 36.0059C49.1214 36.0555 49.1336 36.0487 49.1367 35.987C49.1395 35.9341 49.1773 35.8168 49.2208 35.7262ZM48.7931 37.1981C48.952 36.6474 49.0794 36.1712 49.076 36.14C49.0668 36.0538 48.5025 37.9528 48.4068 38.392C48.3607 38.6036 48.2815 38.9662 48.2309 39.1977C48.1802 39.4292 48.1409 39.6745 48.1434 39.7428C48.1496 39.9082 48.161 39.8644 48.3455 38.9691C48.4327 38.5459 48.6341 37.7489 48.7931 37.1981ZM48.0981 40.2037C48.1129 40.2654 48.1251 40.2149 48.1251 40.0914C48.1251 39.968 48.1129 39.9175 48.0981 39.9792C48.0833 40.041 48.0833 40.1419 48.0981 40.2037ZM47.9282 41.7268C47.9778 41.2683 48.0314 40.7632 48.0475 40.6045L48.0768 40.3159L48.0239 40.5404C47.6095 42.3005 47.6771 47.4049 48.1396 49.2623L48.3729 50.0915C48.2587 49.7052 48.1629 49.5385 48.3441 50.3856C48.4318 50.7958 48.5142 51.1198 48.5273 51.1056C48.6058 51.0202 48.4811 50.4574 48.3729 50.0915L48.1631 49.1981C48.1453 49.0394 48.0811 48.5439 48.0202 48.097C47.7557 46.1521 47.7196 43.6602 47.9282 41.7268ZM48.3729 50.0915C48.3729 50.0915 48.3729 50.0915 48.3729 50.0915L48.3729 50.0916L48.3729 50.0915Z"/>
</mask>
<path fill-rule="evenodd" clip-rule="evenodd" d="M51.2416 31.226C51.4158 30.9177 51.5584 30.6336 51.5584 30.5946C51.5584 30.4726 50.2703 31.3356 49.1705 32.1942C35.3814 42.9607 35.0094 64.9957 47.6916 76.474V76.3287C34.8651 64.6508 35.5328 42.4533 49.8486 31.805C51.396 30.654 51.5045 30.625 51.0224 31.492C50.8228 31.8509 50.674 32.1605 50.6919 32.1799C50.7097 32.1993 50.7693 32.1187 50.8245 32.0008C50.8796 31.8829 51.0673 31.5342 51.2416 31.226ZM66.6855 82.7464V82.8594C76.9976 81.7451 86.4221 73.9186 89.2342 61.7847C89.5718 60.328 89.5644 60.3046 88.9985 61.0464C88.79 61.3198 88.2071 61.991 87.7032 62.5379C86.7622 63.5592 86.5669 63.7554 86.1089 64.1394C85.963 64.2618 85.8303 64.3781 85.8141 64.3978C85.7979 64.4176 85.652 64.5482 85.4898 64.6881C85.3277 64.8279 85.1817 64.9575 85.1655 64.9759C85.1362 65.0092 83.5548 66.1493 83.1609 66.4212C82.8804 66.6148 81.0257 67.668 80.9654 67.668C80.9388 67.668 80.7586 67.755 80.565 67.8613C80.3713 67.9676 80.2129 68.0365 80.2129 68.0143C80.2129 67.9921 80.1481 68.0201 80.0689 68.0765C79.9364 68.171 79.5393 68.3457 79.3285 68.4023C79.2799 68.4154 79.1207 68.482 78.9747 68.5504C78.8288 68.6188 78.5635 68.7123 78.3851 68.7584C78.2068 68.8045 78.0211 68.8657 77.9724 68.8945C77.8958 68.9399 76.4461 69.3649 76.1152 69.4391C76.0503 69.4536 75.6258 69.5355 75.1718 69.6211C74.3592 69.7743 74.0737 69.8149 73.3146 69.8856C73.1038 69.9051 72.8252 69.9326 72.6955 69.9465C72.3753 69.981 69.7234 69.9877 69.6712 69.9541C69.6484 69.9394 69.3908 69.9076 69.099 69.8835C68.8071 69.8593 68.3295 69.7997 68.0377 69.751C67.7458 69.7023 67.3877 69.6446 67.2417 69.6228C67.0958 69.6009 66.857 69.5537 66.7111 69.5178C66.5652 69.4818 66.3927 69.4441 66.3279 69.4339C66.2046 69.4147 66.0351 69.3746 65.5909 69.2594C64.8136 69.0581 62.9085 68.3875 62.4276 68.1461C62.3254 68.0948 62.2267 68.0528 62.2083 68.0528C62.1076 68.0528 60.0215 66.957 59.7538 66.7635C59.6728 66.7049 59.5106 66.5986 59.3934 66.5272C58.9819 66.2766 58.9003 66.2206 58.1656 65.6858C56.0295 64.1308 54.2995 62.3862 52.7226 60.1967C52.6972 60.1614 52.6305 60.0703 52.5743 59.9942C52.5182 59.9182 52.4325 59.792 52.3838 59.7138C52.3352 59.6357 52.2682 59.5392 52.235 59.4994C52.2017 59.4596 52.0176 59.1674 51.8257 58.8499C51.6338 58.5325 51.459 58.2583 51.4371 58.2407C51.4153 58.223 51.3372 58.0787 51.2636 57.92C51.19 57.7613 51.1104 57.617 51.0867 57.5994C51.0335 57.5599 49.8486 55.1092 49.8486 55.0387C49.8486 55.0109 49.7574 54.7735 49.646 54.5112C49.4151 53.9675 49.0919 52.9793 48.6217 51.3786H48.5898C48.6311 51.6512 48.98 52.8579 49.1831 53.4308C49.2644 53.6601 49.3711 53.9631 49.4203 54.1042C49.4695 54.2453 49.5727 54.4945 49.6496 54.658C49.7266 54.8215 49.7896 54.9889 49.7896 55.0301C49.7896 55.1153 50.8853 57.3907 51.0957 57.7424C51.1718 57.8697 51.3137 58.1241 51.411 58.3079C51.5083 58.4917 51.6323 58.6939 51.6866 58.7572C51.7409 58.8205 51.8175 58.9376 51.8567 59.0174C51.896 59.0972 51.9516 59.1932 51.9803 59.2307C52.0089 59.2682 52.2465 59.6116 52.5081 59.9939C52.7698 60.3763 53.028 60.7383 53.0818 60.7986C53.1357 60.8588 53.3248 61.0943 53.502 61.322C53.9304 61.8722 55.4409 63.5156 55.92 63.9527C56.13 64.1444 56.3314 64.33 56.3676 64.3652C56.4038 64.4005 56.5106 64.4918 56.6049 64.5681L57.0417 64.9219C58.5853 66.1736 61.6578 68.0937 62.1579 68.1191C62.1814 68.1203 62.3068 68.177 62.4365 68.2452C62.5662 68.3134 62.7135 68.3701 62.7637 68.3713C62.814 68.3725 62.8804 68.3994 62.9111 68.4311C63.1647 68.6921 66.5064 69.6213 68.0082 69.8484C69.7318 70.109 71.8753 70.1471 73.5578 69.9469C74.7497 69.8051 74.9092 69.7822 75.1424 69.7192C75.2559 69.6886 75.4548 69.6467 75.5846 69.6263C75.7143 69.6057 76.152 69.5026 76.5574 69.3969C76.9627 69.2912 77.3607 69.1902 77.4418 69.1726C77.5229 69.1549 77.6423 69.1132 77.7071 69.0799C77.772 69.0467 77.971 68.9779 78.1493 68.9271C78.6992 68.7704 79.6232 68.3949 80.6551 67.9088C81.3693 67.5723 83.1885 66.5097 83.8095 66.0664C84.6018 65.5006 85.5573 64.7642 85.6372 64.6577C85.6534 64.6361 85.786 64.5182 85.9318 64.3956C86.8661 63.6105 88.2208 62.1703 89.1303 60.9951C89.4014 60.645 89.4016 60.6602 89.1416 61.7872C86.3639 73.8231 76.9608 81.6237 66.6855 82.7464ZM49.7606 34.2875C49.8172 34.1464 50.0463 33.627 50.2697 33.1332C50.4931 32.6394 50.6339 32.293 50.5827 32.3636C50.3326 32.708 49.2866 35.2215 49.4348 35.122C49.4678 35.0998 49.4948 35.0516 49.4948 35.0149C49.4948 34.9782 49.5315 34.8573 49.5762 34.7461C49.621 34.635 49.704 34.4286 49.7606 34.2875ZM49.2208 35.7262C49.2642 35.6357 49.3164 35.477 49.3367 35.3735L49.3738 35.1854L49.3083 35.3457C49.1055 35.843 49.0767 35.9357 49.1029 36.0059C49.1214 36.0555 49.1336 36.0487 49.1367 35.987C49.1395 35.9341 49.1773 35.8168 49.2208 35.7262ZM48.7931 37.1981C48.952 36.6474 49.0794 36.1712 49.076 36.14C49.0668 36.0538 48.5025 37.9528 48.4068 38.392C48.3607 38.6036 48.2815 38.9662 48.2309 39.1977C48.1802 39.4292 48.1409 39.6745 48.1434 39.7428C48.1496 39.9082 48.161 39.8644 48.3455 38.9691C48.4327 38.5459 48.6341 37.7489 48.7931 37.1981ZM48.0981 40.2037C48.1129 40.2654 48.1251 40.2149 48.1251 40.0914C48.1251 39.968 48.1129 39.9175 48.0981 39.9792C48.0833 40.041 48.0833 40.1419 48.0981 40.2037ZM47.9282 41.7268C47.9778 41.2683 48.0314 40.7632 48.0475 40.6045L48.0768 40.3159L48.0239 40.5404C47.6095 42.3005 47.6771 47.4049 48.1396 49.2623L48.3729 50.0915C48.2587 49.7052 48.1629 49.5385 48.3441 50.3856C48.4318 50.7958 48.5142 51.1198 48.5273 51.1056C48.6058 51.0202 48.4811 50.4574 48.3729 50.0915L48.1631 49.1981C48.1453 49.0394 48.0811 48.5439 48.0202 48.097C47.7557 46.1521 47.7196 43.6602 47.9282 41.7268ZM48.3729 50.0915C48.3729 50.0915 48.3729 50.0915 48.3729 50.0915L48.3729 50.0916L48.3729 50.0915Z" fill="#12235D"/>
<path d="M51.2416 31.226L53.002 32.2214L53.0021 32.2213L51.2416 31.226ZM49.1705 32.1942L47.9259 30.6002L47.9259 30.6002L49.1705 32.1942ZM47.6916 76.474L46.3345 77.9734L49.7139 81.0321V76.474H47.6916ZM47.6916 76.3287H49.7139V75.435L49.0531 74.8333L47.6916 76.3287ZM49.8486 31.805L48.6416 30.1823L48.6416 30.1823L49.8486 31.805ZM51.0224 31.492L52.7898 32.475L52.7898 32.4749L51.0224 31.492ZM50.6919 32.1799L52.1807 30.8112L52.1784 30.8088L50.6919 32.1799ZM50.8245 32.0008L48.9924 31.1444L48.9924 31.1444L50.8245 32.0008ZM66.6855 82.8594H64.6631V85.1121L66.9028 84.8701L66.6855 82.8594ZM66.6855 82.7464L66.4659 80.736L64.6631 80.9329V82.7464H66.6855ZM89.2342 61.7847L91.2044 62.2413L91.2044 62.2412L89.2342 61.7847ZM88.9985 61.0464L87.3905 59.8199L87.3903 59.8201L88.9985 61.0464ZM87.7032 62.5379L86.2159 61.1675L86.2158 61.1675L87.7032 62.5379ZM86.1089 64.1394L84.8095 62.5897L84.8094 62.5898L86.1089 64.1394ZM85.8141 64.3978L84.251 63.1146L84.2509 63.1147L85.8141 64.3978ZM85.4898 64.6881L84.1688 63.1568H84.1688L85.4898 64.6881ZM85.1655 64.9759L83.6479 63.6392L83.6464 63.6409L85.1655 64.9759ZM83.1609 66.4212L82.0122 64.7567L82.0122 64.7567L83.1609 66.4212ZM80.565 67.8613L79.5917 66.0885L79.5915 66.0886L80.565 67.8613ZM80.0689 68.0765L78.8952 66.4296L78.8951 66.4297L80.0689 68.0765ZM79.3285 68.4023L78.8039 66.4492L78.8033 66.4493L79.3285 68.4023ZM78.9747 68.5504L78.1168 66.719L78.1168 66.719L78.9747 68.5504ZM78.3851 68.7584L78.8907 70.7166L78.8913 70.7164L78.3851 68.7584ZM77.9724 68.8945L76.9422 67.1542L76.9411 67.1549L77.9724 68.8945ZM76.1152 69.4391L76.5563 71.4127L76.5573 71.4125L76.1152 69.4391ZM75.1718 69.6211L74.7973 67.6337L74.7971 67.6337L75.1718 69.6211ZM73.3146 69.8856L73.5015 71.8993L73.5019 71.8992L73.3146 69.8856ZM72.6955 69.9465L72.9118 71.9573L72.9122 71.9573L72.6955 69.9465ZM69.6712 69.9541L70.7648 68.2529L70.7637 68.2522L69.6712 69.9541ZM69.099 69.8835L68.932 71.899L68.9324 71.899L69.099 69.8835ZM67.2417 69.6228L66.942 71.6228L66.9429 71.623L67.2417 69.6228ZM66.7111 69.5178L66.227 71.4813L66.2278 71.4815L66.7111 69.5178ZM66.3279 69.4339L66.64 67.4358L66.6399 67.4358L66.3279 69.4339ZM65.5909 69.2594L66.0982 67.3017L66.0981 67.3017L65.5909 69.2594ZM62.4276 68.1461L61.5201 69.9534L61.5203 69.9535L62.4276 68.1461ZM59.7538 66.7635L58.5689 68.4024L58.5691 68.4025L59.7538 66.7635ZM59.3934 66.5272L60.4456 64.8001L60.4454 64.8L59.3934 66.5272ZM58.1656 65.6858L59.3559 64.0508L59.3559 64.0508L58.1656 65.6858ZM52.7226 60.1967L54.3637 59.0148L54.3635 59.0145L52.7226 60.1967ZM52.5743 59.9942L50.9471 61.1951L50.9477 61.1959L52.5743 59.9942ZM52.3838 59.7138L50.6667 60.7822L50.6671 60.7829L52.3838 59.7138ZM52.235 59.4994L53.7874 58.2032L53.7863 58.202L52.235 59.4994ZM51.8257 58.8499L50.0948 59.896L50.095 59.8962L51.8257 58.8499ZM51.4371 58.2407L50.1677 59.815L50.1678 59.8151L51.4371 58.2407ZM51.0867 57.5994L49.8807 59.2228L49.8814 59.2233L51.0867 57.5994ZM49.646 54.5112L51.5076 53.7207L51.5074 53.7204L49.646 54.5112ZM48.6217 51.3786L50.562 50.8085L50.1354 49.3562H48.6217V51.3786ZM48.5898 51.3786V49.3562H46.2377L46.5903 51.6817L48.5898 51.3786ZM49.1831 53.4308L47.277 54.1066L47.277 54.1067L49.1831 53.4308ZM49.4203 54.1042L47.5106 54.7698L47.5106 54.7698L49.4203 54.1042ZM49.6496 54.658L47.8198 55.5192L47.82 55.5195L49.6496 54.658ZM51.0957 57.7424L52.8314 56.7045L52.8311 56.704L51.0957 57.7424ZM51.411 58.3079L49.6236 59.254L49.6237 59.2543L51.411 58.3079ZM51.6866 58.7572L53.2215 57.4404L53.2215 57.4404L51.6866 58.7572ZM51.8567 59.0174L53.6715 58.1249L53.6712 58.1243L51.8567 59.0174ZM51.9803 59.2307L53.5875 58.0031L53.5862 58.0015L51.9803 59.2307ZM52.5081 59.9939L54.1771 58.8517L54.177 58.8516L52.5081 59.9939ZM53.0818 60.7986L51.574 62.1463L51.5741 62.1464L53.0818 60.7986ZM53.502 61.322L51.9062 62.5643L51.9063 62.5645L53.502 61.322ZM55.92 63.9527L57.2831 62.4588L57.2831 62.4587L55.92 63.9527ZM56.3676 64.3652L57.7802 62.9179L57.7789 62.9167L56.3676 64.3652ZM56.6049 64.5681L57.8779 62.9966L57.8769 62.9958L56.6049 64.5681ZM57.0417 64.9219L58.3154 63.3511L58.3147 63.3504L57.0417 64.9219ZM62.1579 68.1191L62.2624 66.0994L62.2608 66.0994L62.1579 68.1191ZM62.7637 68.3713L62.7148 70.3931L62.7148 70.3931L62.7637 68.3713ZM62.9111 68.4311L61.4606 69.8403L61.4606 69.8404L62.9111 68.4311ZM68.0082 69.8484L67.7058 71.848H67.7058L68.0082 69.8484ZM73.5578 69.9469L73.3189 67.9387L73.3188 67.9387L73.5578 69.9469ZM75.1424 69.7192L74.616 67.7665L74.6149 67.7668L75.1424 69.7192ZM75.5846 69.6263L75.8996 71.6239L75.9006 71.6238L75.5846 69.6263ZM77.4418 69.1726L77.8718 71.1487L77.8732 71.1484L77.4418 69.1726ZM77.7071 69.0799L76.7851 67.28L76.7838 67.2807L77.7071 69.0799ZM78.1493 68.9271L78.7032 70.8721L78.7034 70.8721L78.1493 68.9271ZM80.6551 67.9088L79.7932 66.0792L79.7932 66.0793L80.6551 67.9088ZM83.8095 66.0664L84.9845 67.7124L84.9847 67.7122L83.8095 66.0664ZM85.6372 64.6577L87.2548 65.8716L87.2549 65.8714L85.6372 64.6577ZM85.9318 64.3956L84.6307 62.8474L84.6306 62.8475L85.9318 64.3956ZM89.1303 60.9951L87.5312 59.7571L87.5311 59.7573L89.1303 60.9951ZM89.1416 61.7872L91.1121 62.242L91.1121 62.2419L89.1416 61.7872ZM50.2697 33.1332L52.1123 33.9667L52.1123 33.9667L50.2697 33.1332ZM49.7606 34.2875L51.6376 35.0405V35.0405L49.7606 34.2875ZM50.5827 32.3636L52.2192 33.5518L52.2197 33.5511L50.5827 32.3636ZM49.4348 35.122L48.3067 33.4434L48.3066 33.4435L49.4348 35.122ZM49.5762 34.7461L47.7006 33.9899L47.7002 33.9908L49.5762 34.7461ZM49.3367 35.3735L47.3525 34.9828L47.3523 34.9835L49.3367 35.3735ZM49.2208 35.7262L51.0441 36.6011L51.0443 36.6007L49.2208 35.7262ZM49.3738 35.1854L51.3581 35.576L47.5014 34.4211L49.3738 35.1854ZM49.3083 35.3457L47.4359 34.5814L47.4357 34.5819L49.3083 35.3457ZM49.1029 36.0059L50.9979 35.2996L50.9976 35.2987L49.1029 36.0059ZM49.1367 35.987L47.1171 35.8812L47.1171 35.8827L49.1367 35.987ZM49.076 36.14L47.0651 36.3547L47.0653 36.3563L49.076 36.14ZM48.4068 38.392L46.4308 37.9614L46.4308 37.9615L48.4068 38.392ZM48.2309 39.1977L50.2064 39.6304L50.2065 39.6299L48.2309 39.1977ZM48.1434 39.7428L46.1224 39.8178L46.1224 39.8185L48.1434 39.7428ZM48.3455 38.9691L50.3263 39.3773L50.3263 39.3772L48.3455 38.9691ZM48.0981 40.2037L50.0648 39.7324L50.0644 39.7306L48.0981 40.2037ZM48.0981 39.9792L50.0644 40.4523L50.0648 40.4505L48.0981 39.9792ZM48.0475 40.6045L50.0596 40.8085L50.0596 40.8084L48.0475 40.6045ZM47.9282 41.7268L45.9176 41.5096L45.9175 41.5099L47.9282 41.7268ZM48.0768 40.3159L50.0888 40.5198L46.1082 39.8526L48.0768 40.3159ZM48.0239 40.5404L49.9925 41.0039L49.9925 41.0037L48.0239 40.5404ZM48.1396 49.2623L46.1771 49.7509L46.1845 49.7806L46.1928 49.8101L48.1396 49.2623ZM48.3729 50.0915L50.3215 49.5502L50.3197 49.5436L48.3729 50.0915ZM48.3441 50.3856L50.3218 49.9629L50.3217 49.9627L48.3441 50.3856ZM48.5273 51.1056L50.016 52.4744L50.0161 52.4743L48.5273 51.1056ZM48.1631 49.1981L46.1534 49.4236L46.1668 49.5432L46.1943 49.6605L48.1631 49.1981ZM48.0202 48.097L46.0163 48.3696L46.0163 48.3698L48.0202 48.097ZM48.3729 50.0916L46.4244 50.6328L50.3349 49.6011L48.3729 50.0916ZM49.536 30.5946C49.536 30.4522 49.5513 30.3389 49.5619 30.2742C49.5733 30.204 49.5865 30.1471 49.5961 30.109C49.6149 30.0346 49.6339 29.9785 49.6433 29.9518C49.6624 29.8971 49.6781 29.8615 49.6793 29.8587C49.6841 29.8478 49.679 29.86 49.6578 29.9022C49.6183 29.9809 49.5554 30.0991 49.4811 30.2307L53.0021 32.2213C53.102 32.0445 53.1975 31.8665 53.2729 31.7164C53.3091 31.6442 53.3506 31.5587 53.3875 31.474C53.4048 31.4342 53.433 31.3677 53.4606 31.2888C53.4742 31.2499 53.4965 31.1834 53.5174 31.1005C53.5308 31.0477 53.5808 30.8507 53.5808 30.5946H49.536ZM50.4151 33.7882C50.9283 33.3876 51.4856 32.9861 51.9024 32.7069C52.1177 32.5626 52.2603 32.4748 52.3273 32.4373C52.3809 32.4073 52.317 32.4482 52.1925 32.4935C52.1796 32.4982 51.8954 32.6119 51.5082 32.6051C51.3112 32.6016 50.8055 32.5647 50.3145 32.1835C49.724 31.7251 49.536 31.0777 49.536 30.5946H53.5808C53.5808 30.1038 53.3903 29.4508 52.7949 28.9886C52.2989 28.6035 51.7858 28.5646 51.5792 28.561C51.1725 28.5538 50.8596 28.6743 50.8093 28.6926C50.6101 28.7651 50.437 28.8602 50.3526 28.9073C50.1437 29.0242 49.8955 29.1829 49.6513 29.3465C49.1491 29.6829 48.5125 30.1422 47.9259 30.6002L50.4151 33.7882ZM49.0487 74.9746C37.2711 64.315 37.6434 43.7604 50.4151 33.7882L47.9259 30.6002C33.1194 42.1611 32.7477 65.6764 46.3345 77.9734L49.0487 74.9746ZM45.6692 76.3287V76.474H49.7139V76.3287H45.6692ZM48.6416 30.1823C33.2805 41.6082 32.5855 65.3103 46.33 77.8242L49.0531 74.8333C37.1448 63.9914 37.7852 43.2985 51.0556 33.4277L48.6416 30.1823ZM52.7898 32.4749C52.8845 32.3046 53.0748 31.9668 53.1802 31.6478C53.212 31.5517 53.2637 31.3783 53.2866 31.1612C53.3061 30.9768 53.3335 30.5187 53.0861 30.015C52.7772 29.3862 52.2101 29.019 51.6447 28.905C51.192 28.8138 50.8258 28.8976 50.6754 28.9377C50.3601 29.0218 50.1095 29.1658 50.0113 29.2228C49.8748 29.3021 49.7367 29.3931 49.6089 29.4807C49.3521 29.6568 49.0258 29.8965 48.6416 30.1823L51.0556 33.4277C51.4451 33.138 51.7125 32.9425 51.8963 32.8165C51.9887 32.7531 52.0325 32.7264 52.0429 32.7203C52.0916 32.692 51.9528 32.7831 51.7177 32.8458C51.6074 32.8753 51.2734 32.9563 50.8453 32.87C50.3045 32.761 49.7545 32.4066 49.4556 31.7981C49.2182 31.3148 49.2486 30.8848 49.2643 30.736C49.2835 30.5546 49.3247 30.4243 49.3397 30.3788C49.3782 30.2622 49.4013 30.2459 49.255 30.5091L52.7898 32.4749ZM52.1784 30.8088C52.5183 31.1773 52.6312 31.5708 52.6727 31.7751C52.7167 31.9922 52.7151 32.1696 52.7107 32.2657C52.7019 32.4565 52.6671 32.6005 52.6551 32.6488C52.6267 32.7626 52.5953 32.8413 52.5924 32.8488C52.5792 32.8826 52.5766 32.8847 52.5985 32.8391C52.6364 32.7601 52.7037 32.6298 52.7898 32.475L49.255 30.509C49.1415 30.7131 49.0345 30.9171 48.9527 31.0875C48.9147 31.1666 48.8657 31.2722 48.8235 31.3807C48.806 31.4255 48.7643 31.5344 48.7305 31.6703C48.7157 31.7296 48.6793 31.8825 48.6702 32.0802C48.6656 32.1797 48.6642 32.36 48.7087 32.5794C48.7506 32.786 48.8643 33.1814 49.2053 33.5511L52.1784 30.8088ZM48.9924 31.1444C48.9995 31.1292 49.0361 31.0501 49.1189 30.9384C49.1418 30.9074 49.272 30.7277 49.5046 30.5546C49.6087 30.477 49.9097 30.2649 50.3649 30.1883C50.9484 30.0901 51.6626 30.2476 52.1807 30.8112L49.2031 33.5487C49.7256 34.117 50.4455 34.2763 51.036 34.177C51.498 34.0992 51.807 33.883 51.9201 33.7988C52.1706 33.6123 52.3225 33.4087 52.3695 33.3453C52.5003 33.1687 52.5943 32.9903 52.6566 32.8572L48.9924 31.1444ZM49.4811 30.2305C49.3103 30.5326 49.0853 30.9457 48.9924 31.1444L52.6566 32.8572C52.6519 32.8673 52.658 32.8538 52.6834 32.8048C52.7055 32.7623 52.7346 32.7074 52.7691 32.6433C52.8381 32.5151 52.9218 32.3631 53.002 32.2214L49.4811 30.2305ZM68.7079 82.8594V82.7464H64.6631V82.8594H68.7079ZM87.2641 61.3281C84.6389 72.655 75.8935 79.8303 66.4682 80.8488L66.9028 84.8701C78.1017 83.6599 88.2052 75.1821 91.2044 62.2413L87.2641 61.3281ZM90.6064 62.273C90.7742 62.053 90.8069 62.0166 90.7914 62.033C90.7793 62.0458 90.7358 62.0914 90.6674 62.1484C90.6166 62.1908 90.4495 62.3278 90.1901 62.4361C89.939 62.5409 89.2994 62.7382 88.5765 62.3976C87.8619 62.061 87.6072 61.4524 87.5286 61.2062C87.4454 60.9456 87.4402 60.7361 87.4392 60.6715C87.4378 60.5849 87.4437 60.5248 87.4454 60.509C87.4485 60.4784 87.4493 60.4869 87.434 60.5652C87.4045 60.7173 87.3511 60.9528 87.2641 61.3282L91.2044 62.2412C91.2862 61.8883 91.3584 61.5746 91.4047 61.3358C91.4274 61.2187 91.4537 61.0712 91.469 60.9217C91.4737 60.8762 91.5319 60.4464 91.3817 59.976C91.2955 59.706 91.0297 59.0822 90.3003 58.7386C89.5626 58.3911 88.9046 58.5897 88.6314 58.7037C88.1672 58.8976 87.8753 59.2298 87.8516 59.2549C87.6861 59.4301 87.5057 59.6689 87.3905 59.8199L90.6064 62.273ZM89.1905 63.9083C89.6998 63.3555 90.3372 62.626 90.6066 62.2728L87.3903 59.8201C87.2427 60.0136 86.7144 60.6265 86.2159 61.1675L89.1905 63.9083ZM87.4083 65.6891C87.9752 65.2138 88.247 64.9322 89.1905 63.9082L86.2158 61.1675C85.2773 62.1862 85.1586 62.2971 84.8095 62.5897L87.4083 65.6891ZM87.3772 65.6811C87.3627 65.6987 87.3498 65.7138 87.3394 65.7258C87.3288 65.7379 87.3193 65.7484 87.3114 65.7571C87.2959 65.7741 87.2828 65.7879 87.2736 65.7975C87.2641 65.8073 87.256 65.8155 87.25 65.8215C87.2438 65.8276 87.2386 65.8327 87.2346 65.8366C87.2269 65.8441 87.2212 65.8495 87.2184 65.8521C87.2154 65.855 87.2136 65.8566 87.2135 65.8567C87.2133 65.8569 87.216 65.8544 87.2222 65.8488C87.2282 65.8435 87.2361 65.8366 87.2458 65.828C87.2655 65.8108 87.2901 65.7895 87.3183 65.7653C87.3464 65.7413 87.377 65.7154 87.4083 65.6891L84.8094 62.5898C84.7273 62.6587 84.6463 62.728 84.5799 62.7862C84.5475 62.8146 84.5122 62.8459 84.4795 62.8759C84.4637 62.8904 84.441 62.9114 84.4162 62.9355C84.4129 62.9387 84.3336 63.014 84.251 63.1146L87.3772 65.6811ZM86.8108 66.2194C86.8994 66.143 86.9859 66.0671 87.0555 66.0048C87.0896 65.9743 87.1252 65.9421 87.1571 65.9123C87.1725 65.898 87.1939 65.8778 87.217 65.8553C87.2284 65.8441 87.246 65.8267 87.2664 65.8055C87.2801 65.7913 87.3252 65.7443 87.3773 65.6809L84.2509 63.1147C84.2794 63.08 84.3032 63.0533 84.3169 63.0383C84.3319 63.0219 84.3443 63.0088 84.3528 63C84.3692 62.983 84.3818 62.9706 84.3873 62.9651C84.3986 62.9541 84.4048 62.9484 84.4016 62.9514C84.3966 62.956 84.3826 62.9689 84.3578 62.9911C84.3099 63.0339 84.2424 63.0933 84.1688 63.1568L86.8108 66.2194ZM86.6831 66.3126C86.6587 66.3404 86.6385 66.3618 86.6273 66.3734C86.6151 66.3862 86.605 66.3963 86.5983 66.403C86.5854 66.4159 86.5757 66.4252 86.5719 66.4288C86.5641 66.4362 86.5608 66.4391 86.5653 66.435C86.5732 66.4277 86.5897 66.4129 86.6155 66.39C86.6658 66.3453 86.7355 66.2843 86.8108 66.2194L84.1688 63.1568C84.082 63.2317 83.9976 63.3054 83.9304 63.365C83.8974 63.3943 83.8642 63.4241 83.8352 63.4507C83.8212 63.4635 83.8026 63.4806 83.7831 63.4992C83.7734 63.5084 83.7588 63.5225 83.7418 63.5394C83.7308 63.5503 83.6926 63.5884 83.6479 63.6392L86.6831 66.3126ZM84.3096 68.0856C84.5268 67.9358 85.0379 67.5702 85.4826 67.2496C85.7086 67.0867 85.9251 66.9298 86.0883 66.8106C86.1693 66.7514 86.2411 66.6986 86.2958 66.6579C86.3221 66.6383 86.3511 66.6165 86.3776 66.5961C86.3897 66.5867 86.4109 66.5703 86.4346 66.551C86.4459 66.5418 86.4679 66.5238 86.4943 66.5007C86.4977 66.4977 86.5882 66.4207 86.6847 66.3109L83.6464 63.6409C83.742 63.5321 83.8307 63.4568 83.8318 63.4558C83.8558 63.4349 83.8746 63.4195 83.882 63.4135C83.8912 63.406 83.898 63.4006 83.9012 63.3981C83.9047 63.3953 83.907 63.3936 83.9075 63.3932C83.9083 63.3926 83.9063 63.3941 83.9006 63.3984C83.8952 63.4025 83.8879 63.4079 83.8785 63.415C83.8395 63.444 83.7799 63.4879 83.7023 63.5446C83.5485 63.6569 83.3396 63.8083 83.1172 63.9686C82.6654 64.2943 82.1889 64.6347 82.0122 64.7567L84.3096 68.0856ZM80.9654 69.6904C81.2559 69.6904 81.4782 69.625 81.5159 69.6144C81.596 69.5919 81.6587 69.569 81.6912 69.5568C81.7583 69.5314 81.8123 69.507 81.8381 69.4953C81.8952 69.4691 81.9491 69.442 81.9865 69.4229C82.0671 69.3816 82.1637 69.3299 82.2621 69.2762C82.4631 69.1667 82.7205 69.0227 82.9793 68.8758C83.4471 68.6101 84.0778 68.2456 84.3096 68.0856L82.0122 64.7567C82.0151 64.7547 81.9165 64.817 81.683 64.9543C81.4796 65.0739 81.2286 65.2185 80.9819 65.3586C80.7344 65.4992 80.4993 65.6306 80.3267 65.7246C80.2384 65.7727 80.178 65.8048 80.1445 65.8219C80.1249 65.8319 80.1325 65.8276 80.1557 65.817C80.1644 65.813 80.2046 65.7946 80.2612 65.7732C80.2883 65.763 80.3466 65.7416 80.4231 65.7201C80.4621 65.7091 80.523 65.6933 80.5987 65.6793C80.6661 65.6668 80.7977 65.6456 80.9654 65.6456V69.6904ZM81.5382 69.6341C81.6106 69.5944 81.6722 69.5628 81.707 69.5461C81.7272 69.5363 81.7201 69.5403 81.694 69.5512C81.6833 69.5556 81.6414 69.5729 81.5816 69.5927C81.552 69.6024 81.495 69.6205 81.4207 69.6379C81.3826 69.6468 81.3277 69.6585 81.2608 69.6685C81.198 69.6779 81.0943 69.6904 80.9654 69.6904V65.6456C80.7317 65.6456 80.5519 65.6872 80.4965 65.7001C80.4166 65.7189 80.3528 65.7389 80.3154 65.7512C80.2398 65.7761 80.178 65.8011 80.1437 65.8153C80.0703 65.8458 80.001 65.8782 79.9487 65.9035C79.8383 65.9568 79.713 66.0219 79.5917 66.0885L81.5382 69.6341ZM78.1905 68.0143C78.1905 68.762 78.598 69.4218 79.2092 69.772C79.6577 70.0291 80.0742 70.0397 80.2034 70.0407C80.5063 70.0432 80.7411 69.9747 80.7843 69.9626C80.9397 69.9193 81.0682 69.8643 81.1223 69.8408C81.2613 69.7804 81.4076 69.7058 81.5384 69.634L79.5915 66.0886C79.5286 66.1232 79.499 66.1361 79.5103 66.1312C79.5155 66.1289 79.5312 66.1222 79.5552 66.1131C79.5747 66.1057 79.6259 66.0866 79.6971 66.0668C79.7224 66.0597 79.9433 65.9937 80.2368 65.9961C80.3613 65.9972 80.7742 66.0071 81.2203 66.2627C81.4727 66.4074 81.7501 66.6401 81.9561 66.9899C82.1634 67.3421 82.2353 67.7058 82.2353 68.0143H78.1905ZM81.2427 69.7234C81.22 69.7396 81.1271 69.8056 80.9734 69.8721C80.9413 69.886 80.6774 70.0066 80.309 70.0262C80.1393 70.0352 79.6332 70.044 79.1111 69.706C78.4396 69.2714 78.1905 68.5724 78.1905 68.0143H82.2353C82.2353 67.4505 81.9842 66.7476 81.3088 66.3105C80.7828 65.97 80.2711 65.9778 80.0941 65.9872C79.711 66.0076 79.426 66.1345 79.3678 66.1597C79.1619 66.2488 78.997 66.3571 78.8952 66.4296L81.2427 69.7234ZM79.8531 70.3555C80.1027 70.2884 80.362 70.1842 80.5426 70.1047C80.692 70.039 80.9926 69.9016 81.2427 69.7234L78.8951 66.4297C78.9229 66.4098 78.9452 66.3953 78.9594 66.3864C78.974 66.3771 78.9849 66.3707 78.9911 66.367C79.0028 66.3603 79.0062 66.3587 78.9991 66.3624C78.9843 66.37 78.9544 66.3845 78.9136 66.4025C78.8735 66.4201 78.8352 66.4357 78.8053 66.4469C78.7907 66.4523 78.7818 66.4554 78.7787 66.4564C78.7744 66.4578 78.7836 66.4546 78.8039 66.4492L79.8531 70.3555ZM79.8327 70.3818C79.8559 70.3709 79.8806 70.3596 79.905 70.3488C79.9295 70.338 79.9514 70.3285 79.969 70.3212C79.9776 70.3175 79.9843 70.3148 79.989 70.3129C79.9939 70.311 79.995 70.3105 79.9928 70.3114C79.9916 70.3119 79.9888 70.3129 79.9846 70.3145C79.9805 70.316 79.9739 70.3183 79.9651 70.3214C79.9567 70.3243 79.9437 70.3287 79.9271 70.3339C79.9187 70.3365 79.9085 70.3397 79.8967 70.3432C79.885 70.3466 79.8705 70.3508 79.8537 70.3553L78.8033 66.4493C78.6254 66.4972 78.4474 66.5733 78.4072 66.5901C78.3163 66.6281 78.2144 66.6733 78.1168 66.719L79.8327 70.3818ZM78.8913 70.7164C79.1733 70.6435 79.5586 70.5102 79.8327 70.3818L78.1168 66.719C78.1285 66.7136 78.1244 66.7159 78.1006 66.7253C78.0793 66.7338 78.0513 66.7443 78.0193 66.7556C77.9874 66.7668 77.9562 66.7772 77.9287 66.7858C77.9001 66.7948 77.8833 66.7993 77.879 66.8004L78.8913 70.7164ZM79.0026 70.6348C78.9545 70.6633 78.9145 70.6841 78.8888 70.697C78.8619 70.7105 78.8396 70.7208 78.8242 70.7277C78.7943 70.7411 78.773 70.7495 78.7651 70.7526C78.7493 70.7587 78.7475 70.7589 78.7635 70.7536C78.7944 70.7434 78.8427 70.729 78.8907 70.7166L77.8796 66.8003C77.7492 66.8339 77.6155 66.8732 77.4968 66.9123C77.4641 66.9231 77.1886 67.0084 76.9422 67.1542L79.0026 70.6348ZM76.5573 71.4125C76.7996 71.3582 77.3124 71.2127 77.7082 71.0967C77.9213 71.0342 78.132 70.971 78.2989 70.9189C78.3808 70.8933 78.4625 70.8672 78.5324 70.8436C78.566 70.8322 78.6104 70.8169 78.6566 70.7994C78.6793 70.7909 78.715 70.7771 78.7565 70.7593C78.7791 70.7497 78.8829 70.7058 79.0038 70.6342L76.9411 67.1549C77.0572 67.0861 77.1535 67.0458 77.1661 67.0404C77.1976 67.0269 77.2208 67.0181 77.2286 67.0152C77.2449 67.009 77.2501 67.0075 77.236 67.0122C77.2107 67.0208 77.1639 67.036 77.094 67.0578C76.9572 67.1005 76.7705 67.1566 76.5702 67.2153C76.3708 67.2738 76.1657 67.3326 75.9933 67.3804C75.907 67.4044 75.8322 67.4247 75.7722 67.4405C75.7424 67.4483 75.7183 67.4545 75.6997 67.4591C75.6801 67.464 75.6722 67.4658 75.6731 67.4656L76.5573 71.4125ZM75.5463 71.6085C75.9774 71.5272 76.4487 71.4368 76.5563 71.4127L75.674 67.4654C75.6877 67.4623 75.6765 67.4649 75.6125 67.4775C75.5605 67.4878 75.4903 67.5015 75.4062 67.5177C75.2386 67.5501 75.0219 67.5914 74.7973 67.6337L75.5463 71.6085ZM73.5019 71.8992C74.3288 71.8223 74.6771 71.7724 75.5465 71.6084L74.7971 67.6337C74.0414 67.7762 73.8185 67.8076 73.1273 67.8719L73.5019 71.8992ZM72.9122 71.9573C73.0279 71.9448 73.2954 71.9184 73.5015 71.8993L73.1277 67.8718C72.9122 67.8918 72.6226 67.9203 72.4788 67.9358L72.9122 71.9573ZM68.5777 71.6553C68.8854 71.8531 69.1766 71.9156 69.1958 71.9203C69.2828 71.9415 69.3536 71.9527 69.3876 71.9577C69.46 71.9684 69.5208 71.9736 69.5494 71.9759C69.614 71.981 69.6784 71.9839 69.7265 71.9857C69.8292 71.9896 69.9576 71.9923 70.0932 71.9941C70.369 71.9979 70.7271 71.9991 71.0879 71.9982C71.728 71.9966 72.6165 71.9891 72.9118 71.9573L72.4793 67.9358C72.5254 67.9308 72.5224 67.9331 72.409 67.9369C72.321 67.9398 72.203 67.9425 72.0613 67.9449C71.779 67.9496 71.4259 67.9526 71.0778 67.9535C70.7291 67.9543 70.3944 67.9531 70.1483 67.9497C70.023 67.948 69.9331 67.9459 69.8796 67.9439C69.8495 67.9428 69.8513 67.9424 69.8712 67.944C69.8774 67.9445 69.9203 67.9478 69.9795 67.9565C70.007 67.9606 70.0724 67.9708 70.1554 67.991C70.1973 68.0013 70.2669 68.0196 70.3509 68.0496C70.4209 68.0744 70.5816 68.1352 70.7648 68.2529L68.5777 71.6553ZM68.9324 71.899C69.0576 71.9093 69.1672 71.9207 69.2383 71.9295C69.2767 71.9342 69.2859 71.936 69.2745 71.9341C69.2716 71.9336 69.2366 71.9278 69.1858 71.9157C69.1616 71.91 69.1075 71.8967 69.0387 71.8744C69.0036 71.863 68.949 71.8441 68.8834 71.8165C68.8257 71.7922 68.7115 71.7412 68.5788 71.656L70.7637 68.2522C70.5334 68.1044 70.3245 68.0393 70.2898 68.028C70.2146 68.0035 70.1523 67.988 70.1183 67.9799C70.0478 67.9633 69.9867 67.9524 69.952 67.9465C69.8766 67.9337 69.799 67.9233 69.7337 67.9152C69.5973 67.8984 69.4322 67.8818 69.2655 67.868L68.9324 71.899ZM67.7046 71.7458C68.0512 71.8036 68.5842 71.8702 68.932 71.899L69.2659 67.868C69.03 67.8485 68.6079 67.7959 68.3708 67.7563L67.7046 71.7458ZM66.9429 71.623C67.0712 71.6421 67.4156 71.6975 67.7046 71.7458L68.3708 67.7563C68.0761 67.707 67.7041 67.6471 67.5406 67.6226L66.9429 71.623ZM66.2278 71.4815C66.4333 71.5321 66.7333 71.5916 66.942 71.6228L67.5415 67.6228C67.4583 67.6103 67.2808 67.5752 67.1944 67.554L66.2278 71.4815ZM66.0157 71.4321C66.0067 71.4307 66 71.4295 65.9963 71.4289C65.9924 71.4282 65.9901 71.4278 65.9895 71.4277C65.9885 71.4275 65.9909 71.4279 65.9974 71.4292C66.0104 71.4318 66.0306 71.4361 66.057 71.4418C66.1101 71.4534 66.1723 71.4679 66.227 71.4813L67.1952 67.5542C67.0456 67.5173 66.7991 67.4607 66.64 67.4358L66.0157 71.4321ZM65.0835 71.2171C65.4972 71.3243 65.7731 71.3942 66.0159 71.4321L66.6399 67.4358C66.6518 67.4376 66.6355 67.436 66.5457 67.4147C66.4548 67.3932 66.3192 67.359 66.0982 67.3017L65.0835 71.2171ZM61.5203 69.9535C61.8958 70.142 62.6172 70.4109 63.2267 70.6254C63.8692 70.8516 64.6073 71.0938 65.0836 71.2172L66.0981 67.3017C65.7972 67.2238 65.1941 67.0299 64.5695 66.8101C64.267 66.7037 63.9796 66.5982 63.7451 66.5075C63.6278 66.4621 63.5295 66.4226 63.4526 66.3903C63.4144 66.3743 63.3846 66.3613 63.3626 66.3514C63.3394 66.341 63.3315 66.337 63.3349 66.3387L61.5203 69.9535ZM62.2083 70.0752C62.0389 70.0752 61.9077 70.0534 61.851 70.0431C61.7826 70.0306 61.7284 70.017 61.6958 70.0083C61.6312 69.991 61.5833 69.9744 61.5635 69.9675C61.521 69.9525 61.495 69.9412 61.4947 69.9411C61.4891 69.9387 61.5004 69.9435 61.5201 69.9534L63.3351 66.3388C63.2526 66.2974 63.1635 66.2555 63.0784 66.2193C63.0383 66.2023 62.9778 66.1773 62.9084 66.1529C62.8752 66.1412 62.8157 66.1209 62.7418 66.1011C62.7192 66.0951 62.4956 66.0304 62.2083 66.0304V70.0752ZM58.5691 68.4025C58.7573 68.5386 59.0625 68.7085 59.2568 68.816C59.5077 68.9549 59.8102 69.1172 60.1032 69.2711C60.3953 69.4246 60.6897 69.5758 60.9236 69.6915C61.0381 69.7481 61.1535 69.8038 61.2527 69.8485C61.2993 69.8696 61.3659 69.8989 61.4376 69.9267C61.4716 69.9398 61.5338 69.9632 61.6103 69.9862C61.6197 69.9891 61.8784 70.0752 62.2083 70.0752V66.0304C62.4065 66.0304 62.5586 66.0605 62.6151 66.0723C62.6878 66.0874 62.7445 66.1036 62.776 66.1131C62.8387 66.132 62.8834 66.1492 62.8965 66.1542C62.9265 66.1658 62.9376 66.1714 62.9171 66.1621C62.8819 66.1462 62.8156 66.1148 62.7162 66.0656C62.5223 65.9698 62.2596 65.835 61.9841 65.6903C61.7096 65.5461 61.434 65.3981 61.2154 65.2771C61.1055 65.2163 61.017 65.1662 60.9534 65.1289C60.8656 65.0776 60.8828 65.0842 60.9386 65.1245L58.5691 68.4025ZM58.3412 68.2542C58.3764 68.2757 58.4269 68.3077 58.4783 68.3414C58.5031 68.3577 58.5252 68.3724 58.543 68.3845C58.5622 68.3976 58.5701 68.4033 58.5689 68.4024L60.9388 65.1246C60.802 65.0258 60.5926 64.8896 60.4456 64.8001L58.3412 68.2542ZM56.9754 67.3209C57.7232 67.8652 57.858 67.96 58.3414 68.2544L60.4454 64.8C60.2475 64.6794 60.1616 64.6255 60.0439 64.5448C59.909 64.4524 59.7304 64.3235 59.3559 64.0508L56.9754 67.3209ZM51.0816 61.3786C52.7811 63.7384 54.6623 65.637 56.9754 67.3209L59.3559 64.0508C57.3968 62.6247 55.818 61.034 54.3637 59.0148L51.0816 61.3786ZM50.9477 61.1959C51.0022 61.2697 51.0633 61.3533 51.0817 61.3788L54.3635 59.0145C54.3311 58.9695 54.2588 58.8709 54.201 58.7925L50.9477 61.1959ZM50.6671 60.7829C50.7444 60.907 50.8601 61.0771 50.9471 61.1951L54.2016 58.7934C54.1764 58.7592 54.1206 58.6769 54.1006 58.6448L50.6671 60.7829ZM50.6826 60.7956C50.674 60.7853 50.6671 60.7768 50.662 60.7704C50.6568 60.7639 50.6526 60.7585 50.6495 60.7546C50.6436 60.7469 50.6398 60.7418 50.6386 60.7401C50.6371 60.7381 50.6369 60.7378 50.6378 60.7391C50.6387 60.7403 50.6403 60.7425 50.6424 60.7456C50.6468 60.7519 50.6519 60.7595 50.657 60.7672C50.6622 60.7751 50.6656 60.7804 50.6667 60.7822L54.101 58.6454C54.0341 58.538 53.9095 58.3495 53.7874 58.2032L50.6826 60.7956ZM50.095 59.8962C50.1962 60.0636 50.2969 60.2269 50.3788 60.357C50.4193 60.4213 50.459 60.4834 50.4938 60.5364C50.4971 60.5413 50.5843 60.678 50.6836 60.7968L53.7863 58.202C53.8251 58.2483 53.8519 58.285 53.8589 58.2946C53.8696 58.3091 53.8766 58.3193 53.8787 58.3223C53.8829 58.3283 53.882 58.3272 53.8741 58.3152C53.8591 58.2923 53.8345 58.254 53.8008 58.2006C53.7344 58.0953 53.6471 57.9537 53.5564 57.8036L50.095 59.8962ZM50.1678 59.8151C50.1105 59.7689 50.0659 59.7277 50.0365 59.6994C50.0058 59.6699 49.9809 59.6441 49.9627 59.6247C49.9273 59.5868 49.9006 59.5552 49.8853 59.5367C49.8687 59.5167 49.8557 59.5001 49.8471 59.489C49.8381 59.4774 49.831 59.4679 49.826 59.4611C49.8164 59.4482 49.8101 59.4391 49.808 59.4361C49.8055 59.4326 49.8048 59.4315 49.806 59.4333C49.8087 59.4372 49.8149 59.4466 49.8254 59.4626C49.8355 59.4781 49.8479 59.4973 49.8625 59.5203C49.9223 59.614 50.0052 59.7477 50.0948 59.896L53.5565 57.8039C53.4543 57.6347 53.3539 57.4726 53.2728 57.3455C53.2333 57.2835 53.1919 57.2197 53.1542 57.164C53.1365 57.138 53.1095 57.0987 53.0784 57.0566C53.0637 57.0366 53.0362 57 53.0007 56.9572C52.9943 56.9495 52.8807 56.8067 52.7064 56.6662L50.1678 59.8151ZM49.4288 58.7706C49.4801 58.8812 49.5366 58.995 49.5911 59.0957C49.617 59.1437 49.6533 59.2086 49.6957 59.2766C49.7161 59.3092 49.7512 59.3639 49.7973 59.4266C49.8121 59.4468 49.9459 59.6362 50.1677 59.815L52.7065 56.6663C52.8364 56.771 52.9234 56.8685 52.9599 56.9105C53.0041 56.9614 53.0366 57.0043 53.0555 57.03C53.0929 57.0808 53.1177 57.1202 53.1265 57.1343C53.1459 57.1653 53.1539 57.181 53.1484 57.1708C53.14 57.1553 53.1207 57.1176 53.0984 57.0694L49.4288 58.7706ZM49.8814 59.2233C49.7423 59.1201 49.648 59.0217 49.6059 58.9761C49.5564 58.9224 49.5198 58.8767 49.498 58.8485C49.4551 58.793 49.4265 58.7494 49.4157 58.7326C49.3922 58.6963 49.3815 58.676 49.3857 58.6837C49.3914 58.694 49.4085 58.7268 49.4288 58.7706L53.0984 57.0694C53.0451 56.9545 52.9857 56.8358 52.9272 56.7298C52.8994 56.6794 52.8597 56.6098 52.8123 56.5366C52.7895 56.5013 52.7502 56.4422 52.6982 56.3749C52.6777 56.3484 52.5325 56.1539 52.292 55.9754L49.8814 59.2233ZM47.8262 55.0387C47.8262 55.3081 47.883 55.5169 47.8892 55.5412C47.9068 55.6107 47.9247 55.6657 47.9341 55.6939C47.9538 55.7527 47.973 55.8016 47.983 55.8267C48.005 55.8821 48.0292 55.938 48.0486 55.9822C48.0898 56.0757 48.1434 56.1925 48.2013 56.3169C48.3187 56.5691 48.4731 56.8927 48.627 57.211C48.7809 57.5293 48.9386 57.851 49.063 58.0991C49.1244 58.2215 49.1826 58.3359 49.2302 58.4259C49.2527 58.4685 49.2816 58.5223 49.3116 58.5744C49.3251 58.5978 49.3522 58.6443 49.3872 58.6977C49.4039 58.7231 49.4377 58.7736 49.484 58.8335C49.4963 58.8494 49.6402 59.0442 49.8807 59.2228L52.2926 55.9759C52.4355 56.082 52.5321 56.1837 52.5737 56.2289C52.6235 56.283 52.6606 56.3294 52.6827 56.358C52.7263 56.4143 52.7568 56.4602 52.7696 56.4798C52.7971 56.5216 52.8145 56.5521 52.8164 56.5554C52.8232 56.5672 52.8212 56.5642 52.8062 56.5358C52.7788 56.484 52.7357 56.3999 52.6785 56.2859C52.5659 56.0612 52.4174 55.7584 52.2684 55.4503C52.1194 55.1422 51.9742 54.8375 51.8678 54.6091C51.8138 54.4932 51.7744 54.4067 51.7505 54.3525C51.7375 54.3229 51.7361 54.3188 51.7408 54.3306C51.7421 54.3339 51.7546 54.365 51.7698 54.4104C51.777 54.4319 51.7932 54.4812 51.8097 54.5463C51.8181 54.5794 51.8307 54.6328 51.8422 54.6997C51.852 54.7568 51.8709 54.8803 51.8709 55.0387H47.8262ZM47.7845 55.3016C47.8331 55.416 47.8745 55.5186 47.9011 55.5877C47.9152 55.6245 47.9196 55.6374 47.9177 55.6321C47.9176 55.6316 47.9085 55.6054 47.8971 55.5647C47.8916 55.5451 47.8798 55.5015 47.8677 55.4439C47.8616 55.4145 47.8528 55.3688 47.8449 55.3122C47.8409 55.2831 47.8365 55.2463 47.833 55.2034C47.8295 55.1615 47.8262 55.1052 47.8262 55.0387H51.8709C51.8709 54.8205 51.8341 54.6507 51.8273 54.6182C51.8139 54.554 51.7999 54.5022 51.7917 54.473C51.7749 54.4129 51.7579 54.3615 51.7474 54.3308C51.725 54.2649 51.6997 54.1969 51.6771 54.138C51.6302 54.0159 51.5704 53.8687 51.5076 53.7207L47.7845 55.3016ZM46.6813 51.9487C47.1475 53.5355 47.5009 54.6339 47.7847 55.3019L51.5074 53.7204C51.3293 53.3012 51.0364 52.423 50.562 50.8085L46.6813 51.9487ZM48.5898 53.401H48.6217V49.3562H48.5898V53.401ZM51.0892 52.755C51.0072 52.5237 50.882 52.1227 50.7686 51.7304C50.7131 51.5386 50.6645 51.3627 50.6287 51.225C50.5842 51.0536 50.5816 51.0246 50.5893 51.0755L46.5903 51.6817C46.6351 51.9778 46.7778 52.4901 46.883 52.8538C47.0051 53.2762 47.1559 53.765 47.277 54.1066L51.0892 52.755ZM51.33 53.4386C51.2792 53.2927 51.1711 52.986 51.0892 52.7549L47.277 54.1067C47.3577 54.3342 47.4631 54.6334 47.5106 54.7698L51.33 53.4386ZM51.4795 53.7967C51.4265 53.6841 51.3517 53.5009 51.33 53.4386L47.5106 54.7698C47.5872 54.9897 47.7189 55.3049 47.8198 55.5192L51.4795 53.7967ZM51.812 55.0301C51.812 54.6885 51.7186 54.4065 51.718 54.4044C51.6922 54.3172 51.664 54.238 51.6414 54.178C51.5949 54.0543 51.5382 53.9216 51.4793 53.7964L47.82 55.5195C47.838 55.5579 47.8514 55.5906 47.8556 55.6019C47.8584 55.6093 47.8507 55.5899 47.8391 55.5508C47.8335 55.5319 47.821 55.4881 47.8083 55.4281C47.8018 55.3974 47.7928 55.351 47.785 55.2936C47.7778 55.2407 47.7672 55.1475 47.7672 55.0301H51.812ZM52.8311 56.704C52.8381 56.7157 52.8219 56.6882 52.7722 56.593C52.7291 56.5103 52.6744 56.4029 52.611 56.2763C52.4845 56.0239 52.3326 55.7137 52.1859 55.4089C52.0387 55.1033 51.9009 54.8119 51.8019 54.5963C51.7514 54.4864 51.7166 54.4083 51.6967 54.3619C51.6857 54.3361 51.6872 54.3384 51.6944 54.3576C51.6972 54.365 51.7111 54.4017 51.7271 54.4542C51.735 54.48 51.7502 54.5317 51.7651 54.5991C51.7741 54.64 51.812 54.8089 51.812 55.0301H47.7672C47.7672 55.254 47.8056 55.4266 47.8157 55.4723C47.8317 55.5445 47.8485 55.602 47.8584 55.6346C47.8786 55.7007 47.8986 55.755 47.9095 55.7839C47.9329 55.846 47.9581 55.9063 47.9775 55.9515C48.0184 56.0473 48.0708 56.1636 48.1263 56.2845C48.2393 56.5305 48.3885 56.8458 48.5416 57.1637C48.8224 57.7468 49.1962 58.5065 49.3602 58.7807L52.8311 56.704ZM53.1984 57.3619C53.0905 57.1579 52.9309 56.8709 52.8314 56.7045L49.3599 58.7802C49.4127 58.8684 49.537 59.0904 49.6236 59.254L53.1984 57.3619ZM53.2215 57.4404C53.242 57.4643 53.2579 57.4841 53.2683 57.4974C53.2791 57.5112 53.2874 57.5223 53.2929 57.5298C53.3035 57.5442 53.3092 57.5528 53.3096 57.5532C53.31 57.5538 53.3029 57.5432 53.2888 57.5204C53.2756 57.4988 53.26 57.4725 53.2435 57.4436C53.2271 57.4148 53.2116 57.3867 53.1983 57.3616L49.6237 59.2543C49.6928 59.3848 49.7694 59.5183 49.841 59.6351C49.8866 59.7094 50.0066 59.905 50.1517 60.074L53.2215 57.4404ZM53.6712 58.1243C53.5619 57.9021 53.3935 57.6408 53.2215 57.4404L50.1516 60.074C50.1212 60.0385 50.1029 60.0136 50.0974 60.0061C50.0902 59.9963 50.0864 59.9905 50.0848 59.988C50.0831 59.9855 50.08 59.9807 50.0752 59.9724C50.0714 59.9658 50.059 59.9446 50.0423 59.9105L53.6712 58.1243ZM53.5862 58.0015C53.6115 58.0345 53.6297 58.0607 53.6392 58.0747C53.6497 58.09 53.6572 58.1016 53.6614 58.1083C53.6658 58.1153 53.6688 58.1202 53.6703 58.1226C53.6718 58.1251 53.6726 58.1264 53.6726 58.1265C53.6727 58.1266 53.6724 58.1261 53.6718 58.1251C53.6713 58.1241 53.6707 58.1231 53.6702 58.1221C53.6688 58.1195 53.6692 58.1202 53.6715 58.1249L50.042 59.9099C50.0978 60.0235 50.2229 60.262 50.3743 60.4598L53.5862 58.0015ZM54.177 58.8516C53.9408 58.5066 53.658 58.0954 53.5875 58.0031L50.3731 60.4582C50.3518 60.4304 50.3385 60.4112 50.3516 60.4295C50.3573 60.4377 50.3669 60.4513 50.3808 60.4711C50.4083 60.5105 50.4466 60.5656 50.4935 60.6334C50.587 60.7685 50.7099 60.9472 50.8393 61.1362L54.177 58.8516ZM54.5896 59.4508C54.6163 59.4806 54.6346 59.5031 54.6398 59.5095C54.6436 59.5143 54.6464 59.5178 54.648 59.5198C54.6497 59.5219 54.6506 59.5231 54.6508 59.5233C54.6509 59.5235 54.6493 59.5214 54.6456 59.5165C54.642 59.5117 54.6372 59.5053 54.631 59.497C54.6053 59.4623 54.5677 59.4105 54.5196 59.343C54.4242 59.2091 54.3017 59.0338 54.1771 58.8517L50.8392 61.1361C50.9763 61.3364 51.1137 61.5333 51.2262 61.6911C51.2969 61.7902 51.4537 62.0117 51.574 62.1463L54.5896 59.4508ZM55.0978 60.0797C54.9327 59.8676 54.6986 59.5727 54.5896 59.4507L51.5741 62.1464C51.5573 62.1277 51.5561 62.1253 51.5838 62.1589C51.605 62.1847 51.6338 62.2202 51.6686 62.2636C51.7382 62.3502 51.8235 62.458 51.9062 62.5643L55.0978 60.0797ZM57.2831 62.4587C56.8946 62.1043 55.4611 60.5462 55.0977 60.0795L51.9063 62.5645C52.3998 63.1982 53.9872 64.9269 54.557 65.4467L57.2831 62.4587ZM57.7789 62.9167C57.7126 62.852 57.4788 62.6373 57.2831 62.4588L54.5569 65.4467C54.6598 65.5406 54.7602 65.6326 54.8385 65.7048C54.8778 65.741 54.9104 65.7712 54.9345 65.7936C54.9654 65.8223 54.9671 65.8242 54.9564 65.8138L57.7789 62.9167ZM57.8769 62.9958C57.8445 62.9696 57.8082 62.9394 57.7786 62.9141C57.7639 62.9015 57.7541 62.8929 57.7494 62.8887C57.7471 62.8867 57.748 62.8875 57.7514 62.8906C57.7538 62.8928 57.7646 62.9027 57.7802 62.9179L54.9551 65.8125C55.0658 65.9206 55.239 66.0644 55.3329 66.1404L57.8769 62.9958ZM58.3147 63.3504L57.8779 62.9966L55.3319 66.1396L55.7687 66.4934L58.3147 63.3504ZM62.2608 66.0994C62.6 66.1166 62.8015 66.2295 62.6495 66.1648C62.5892 66.1391 62.4788 66.0867 62.3132 65.9987C61.9872 65.8256 61.5516 65.5707 61.0629 65.2653C60.0775 64.6496 58.9991 63.9054 58.3154 63.3511L55.7679 66.4927C56.6279 67.1901 57.8576 68.0318 58.9194 68.6954C59.4543 69.0297 59.977 69.3378 60.416 69.5709C60.6329 69.6861 60.8566 69.7976 61.0661 69.8867C61.1839 69.9368 61.5908 70.1152 62.0551 70.1389L62.2608 66.0994ZM63.3774 66.455C63.2833 66.4056 63.1835 66.3563 63.0911 66.3145C63.0472 66.2947 62.9856 66.2677 62.9171 66.2414C62.8843 66.2288 62.8278 66.2079 62.7585 66.1868C62.7368 66.1803 62.5299 66.1133 62.2624 66.0994L62.0534 70.1388C61.8963 70.1307 61.7755 70.1055 61.7244 70.0941C61.6622 70.0803 61.6133 70.0662 61.5842 70.0574C61.5267 70.0399 61.4849 70.0241 61.4691 70.0181C61.4348 70.0049 61.4171 69.9966 61.4237 69.9996C61.4323 70.0035 61.46 70.0167 61.4956 70.0354L63.3774 66.455ZM62.8127 66.3495C62.9662 66.3532 63.083 66.3745 63.1335 66.3845C63.1938 66.3964 63.2399 66.4088 63.2659 66.4163C63.3175 66.431 63.3495 66.4433 63.3569 66.4461C63.3726 66.4522 63.3747 66.4536 63.3774 66.455L61.4956 70.0354C61.628 70.105 61.7686 70.1688 61.903 70.2206C61.9696 70.2462 62.056 70.2772 62.1534 70.305C62.2064 70.3202 62.4314 70.3862 62.7148 70.3931L62.8127 66.3495ZM64.3617 67.0219C64.0824 66.7344 63.7817 66.5875 63.6055 66.5159C63.4139 66.4382 63.1406 66.3574 62.8127 66.3495L62.7148 70.3931C62.4371 70.3863 62.2222 70.3197 62.084 70.2636C61.9612 70.2138 61.7091 70.0961 61.4606 69.8403L64.3617 67.0219ZM68.3105 67.8487C67.6819 67.7537 66.5642 67.4906 65.5333 67.204C65.0273 67.0633 64.5797 66.9273 64.2577 66.8172C64.0933 66.7609 63.9899 66.721 63.9381 66.6988C63.9108 66.6871 63.9251 66.6919 63.9638 66.7131C63.9839 66.724 64.0274 66.7486 64.0836 66.7869C64.1319 66.8198 64.2406 66.8972 64.3616 67.0219L61.4606 69.8404C61.6983 70.0851 61.9509 70.2224 62.0235 70.262C62.1397 70.3256 62.2533 70.3773 62.3446 70.4164C62.5299 70.4959 62.7409 70.5731 62.9489 70.6443C63.3718 70.7889 63.9009 70.9483 64.4498 71.1009C65.5286 71.4009 66.8327 71.716 67.7058 71.848L68.3105 67.8487ZM73.3188 67.9387C71.8215 68.1168 69.8602 68.083 68.3105 67.8487L67.7058 71.848C69.6034 72.1349 71.929 72.1773 73.7967 71.9551L73.3188 67.9387ZM74.6149 67.7668C74.5937 67.7726 74.578 67.7793 74.422 67.8017C74.2338 67.8287 73.924 67.8667 73.3189 67.9387L73.7966 71.9551C74.9128 71.8223 75.2576 71.7829 75.6698 71.6716L74.6149 67.7668ZM75.2695 67.6286C75.0758 67.6591 74.8058 67.7154 74.616 67.7665L75.6687 71.6719C75.6683 71.672 75.6785 71.6693 75.7005 71.6641C75.7212 71.6593 75.7462 71.6538 75.7735 71.648C75.8324 71.6357 75.879 71.6272 75.8996 71.6239L75.2695 67.6286ZM76.0471 67.4399C75.8594 67.4889 75.664 67.5373 75.5035 67.5751C75.4231 67.5941 75.3562 67.6093 75.3062 67.6201C75.2444 67.6335 75.2404 67.6332 75.2685 67.6287L75.9006 71.6238C76.1461 71.585 76.6824 71.4543 77.0676 71.3538L76.0471 67.4399ZM77.0118 67.1965C76.8799 67.2252 76.4313 67.3398 76.0471 67.4399L77.0676 71.3538C77.2665 71.302 77.4629 71.2514 77.6183 71.212C77.6962 71.1923 77.7618 71.1758 77.8113 71.1636C77.8707 71.1489 77.8836 71.1462 77.8718 71.1487L77.0118 67.1965ZM76.7838 67.2807C76.8333 67.2553 76.8687 67.2404 76.8812 67.2353C76.897 67.2288 76.9077 67.2249 76.9138 67.2228C76.92 67.2206 76.9282 67.2179 76.9397 67.2146C76.9494 67.2117 76.9738 67.2048 77.0104 67.1968L77.8732 71.1484C78.1017 71.0985 78.3899 71.0027 78.6305 70.8792L76.7838 67.2807ZM77.5954 66.9821C77.4249 67.0306 77.048 67.1453 76.7851 67.28L78.6292 70.8799C78.6039 70.8928 78.5833 70.9026 78.5696 70.9089C78.5554 70.9155 78.5441 70.9204 78.5366 70.9237C78.522 70.9299 78.5135 70.9333 78.5132 70.9334C78.5128 70.9335 78.5236 70.9294 78.5464 70.9215C78.5678 70.9141 78.5939 70.9054 78.6224 70.8965C78.6508 70.8875 78.6785 70.8792 78.7032 70.8721L77.5954 66.9821ZM79.7932 66.0793C78.7833 66.5551 77.9808 66.8723 77.5952 66.9821L78.7034 70.8721C79.4177 70.6686 80.4631 70.2348 81.5171 69.7383L79.7932 66.0793ZM82.6344 64.4204C82.1154 64.7909 80.4014 65.7927 79.7932 66.0792L81.517 69.7383C82.3372 69.3519 84.2617 68.2284 84.9845 67.7124L82.6344 64.4204ZM84.0197 63.4439C84.1098 63.3238 84.1912 63.2459 84.1948 63.2424C84.2156 63.222 84.2276 63.2115 84.2239 63.2148C84.2173 63.2206 84.1936 63.2411 84.1468 63.2796C84.0556 63.3543 83.9217 63.4602 83.756 63.588C83.4262 63.8421 83.009 64.1529 82.6342 64.4206L84.9847 67.7122C85.4022 67.4141 85.859 67.0738 86.225 66.7917C86.4072 66.6513 86.5767 66.5178 86.7119 66.4068C86.7782 66.3524 86.8485 66.2935 86.9126 66.2365C86.9209 66.2291 87.1025 66.0746 87.2548 65.8716L84.0197 63.4439ZM84.6306 62.8475C84.5459 62.9187 84.4617 62.9913 84.3918 63.0535C84.3578 63.0837 84.3193 63.1185 84.2826 63.1531C84.2649 63.1698 84.2385 63.1949 84.2094 63.2244C84.2039 63.23 84.1123 63.3204 84.0195 63.4441L87.2549 65.8714C87.2242 65.9123 87.1978 65.9443 87.1807 65.9644C87.1626 65.9857 87.1472 66.003 87.136 66.0152C87.1142 66.0391 87.0968 66.0569 87.0877 66.0662C87.0776 66.0764 87.0699 66.0839 87.0656 66.0881C87.061 66.0925 87.0579 66.0955 87.0566 66.0967C87.0543 66.0989 87.0551 66.0981 87.06 66.0936C87.0646 66.0894 87.0713 66.0834 87.0801 66.0756C87.117 66.0427 87.172 65.9951 87.2331 65.9438L84.6306 62.8475ZM87.5311 59.7573C86.6913 60.8423 85.4341 62.1722 84.6307 62.8474L87.233 65.9439C88.2981 65.0487 89.7503 63.4983 90.7296 62.233L87.5311 59.7573ZM91.1121 62.2419C91.1755 61.9674 91.2296 61.7322 91.2671 61.553C91.286 61.4627 91.3618 61.1286 91.3573 60.8087C91.356 60.7146 91.3485 60.4746 91.2571 60.1897C91.1711 59.922 90.8886 59.2558 90.0975 58.9271C89.3239 58.6057 88.6671 58.8608 88.4367 58.9704C88.1802 59.0924 88.0076 59.2407 87.9415 59.2993C87.7284 59.4882 87.5359 59.7511 87.5312 59.7571L90.7295 62.2332C90.8604 62.0641 90.7696 62.1975 90.6245 62.3261C90.5755 62.3695 90.4179 62.507 90.1742 62.6229C89.9567 62.7264 89.3107 62.9801 88.5457 62.6623C87.7633 62.3372 87.4873 61.6797 87.4059 61.426C87.319 61.1551 87.3139 60.9346 87.313 60.8657C87.3099 60.6468 87.3539 60.5059 87.3082 60.7245C87.281 60.8541 87.2377 61.0435 87.171 61.3325L91.1121 62.2419ZM66.9052 84.7568C78.0614 83.5379 88.147 75.0904 91.1121 62.242L87.171 61.3324C84.5809 72.5559 75.8602 79.7096 66.4659 80.736L66.9052 84.7568ZM48.4271 32.2996C48.2089 32.7818 47.9599 33.3445 47.8836 33.5345L51.6376 35.0405C51.6374 35.041 51.6385 35.0382 51.6413 35.0314C51.644 35.0248 51.6477 35.0161 51.6524 35.0049C51.6619 34.9825 51.6742 34.9537 51.6893 34.9187C51.7195 34.8488 51.7582 34.7603 51.803 34.6586C51.8926 34.4556 52.0031 34.2081 52.1123 33.9667L48.4271 32.2996ZM52.2197 33.5511C52.1992 33.5794 52.1606 33.6311 52.1069 33.6923C52.0684 33.7362 51.9471 33.8727 51.7567 34.0072C51.699 34.0479 50.961 34.6012 49.9666 34.2777C48.8155 33.9032 48.6226 32.8356 48.598 32.6867C48.5518 32.4083 48.5771 32.1878 48.5842 32.1272C48.5948 32.0353 48.6097 31.9638 48.6179 31.9267C48.6347 31.8513 48.6519 31.796 48.6573 31.779C48.6754 31.7213 48.6846 31.7042 48.6559 31.7747C48.6129 31.8803 48.5336 32.0641 48.4271 32.2996L52.1123 33.9667C52.2291 33.7084 52.3319 33.4722 52.4025 33.2988C52.4305 33.2298 52.4793 33.1085 52.5164 32.9903C52.5265 32.9581 52.5472 32.8904 52.5661 32.8055C52.5754 32.7636 52.591 32.688 52.602 32.5928C52.6094 32.529 52.6347 32.3059 52.5883 32.0256C52.5633 31.8749 52.3699 30.8061 51.2178 30.4313C50.2223 30.1075 49.4829 30.6613 49.4236 30.7032C49.2314 30.8389 49.108 30.9774 49.067 31.0241C49.0109 31.0881 48.9694 31.1434 48.9458 31.176L52.2197 33.5511ZM48.3066 33.4435C48.4229 33.3653 48.6942 33.1988 49.0867 33.1315C49.5475 33.0524 50.1486 33.1226 50.6706 33.531C51.1238 33.8856 51.2945 34.3247 51.3582 34.5365C51.4267 34.7642 51.4388 34.9526 51.4419 35.0465C51.4479 35.2362 51.4242 35.3795 51.4176 35.4186C51.4079 35.4769 51.3978 35.5187 51.3937 35.5349C51.3828 35.579 51.3831 35.5677 51.4209 35.462C51.4854 35.2814 51.5954 35.0015 51.7265 34.6863C51.8561 34.3751 51.9948 34.057 52.112 33.8042C52.2692 33.4649 52.2968 33.445 52.2192 33.5518L48.9463 31.1753C48.7436 31.4544 48.5467 31.8779 48.4421 32.1036C48.2974 32.4159 48.137 32.7845 47.9923 33.1323C47.8492 33.4761 47.7098 33.8274 47.6121 34.1008C47.5687 34.2221 47.5097 34.3936 47.4689 34.5574C47.464 34.5769 47.3887 34.8492 47.3992 35.1759C47.4024 35.2762 47.4153 35.4701 47.485 35.702C47.55 35.918 47.7225 36.3601 48.1781 36.7165C49.3303 37.6181 50.478 36.8575 50.563 36.8004L48.3066 33.4435ZM47.4724 35.0149C47.4724 34.5846 47.6129 34.2636 47.7132 34.0848C47.819 33.8961 48.002 33.6482 48.3067 33.4434L50.5628 36.8005C50.9006 36.5735 51.1136 36.2904 51.2412 36.063C51.3632 35.8453 51.5172 35.4819 51.5172 35.0149H47.4724ZM47.7002 33.9908C47.6567 34.0989 47.6162 34.2132 47.5833 34.322C47.5671 34.3755 47.547 34.4462 47.529 34.5256C47.5216 34.5581 47.4724 34.7623 47.4724 35.0149H51.5172C51.5172 35.1576 51.5013 35.2664 51.495 35.3071C51.4869 35.3593 51.4784 35.399 51.4735 35.4205C51.4637 35.4635 51.4557 35.4901 51.4542 35.4949C51.4518 35.503 51.4508 35.5055 51.4515 35.5036C51.452 35.502 51.4525 35.5009 51.4522 35.5015L47.7002 33.9908ZM47.8836 33.5345C47.8273 33.675 47.7448 33.8802 47.7006 33.9899L51.4519 35.5024C51.4973 35.3898 51.5807 35.1823 51.6376 35.0405L47.8836 33.5345ZM47.3523 34.9835C47.3591 34.9489 47.3646 34.9289 47.3654 34.9261C47.3667 34.9213 47.367 34.9207 47.3663 34.9229C47.3655 34.9251 47.3659 34.9236 47.3685 34.9171C47.37 34.9132 47.3792 34.8894 47.3972 34.8517L51.0443 36.6007C51.1649 36.3492 51.2694 36.0269 51.3212 35.7634L47.3523 34.9835ZM47.3895 34.7947L47.3525 34.9828L51.321 35.7641L51.3581 35.576L47.3895 34.7947ZM51.1807 36.11L51.2461 35.9497L47.5014 34.4211L47.4359 34.5814L51.1807 36.11ZM50.9976 35.2987C51.0434 35.4214 51.0813 35.5621 51.1015 35.7178C51.1211 35.8695 51.1197 36.003 51.1109 36.11C51.0951 36.3007 51.0527 36.4305 51.0508 36.4367C51.0451 36.455 51.0476 36.4444 51.0733 36.378C51.0971 36.3164 51.1311 36.2316 51.1809 36.1095L47.4357 34.5819C47.3445 34.8056 47.2491 35.0409 47.1887 35.2351C47.1346 35.4087 46.9463 36.0114 47.2082 36.7132L50.9976 35.2987ZM47.1171 35.8827C47.1185 35.8544 47.1245 35.7386 47.1577 35.5877C47.1736 35.5156 47.212 35.3581 47.2999 35.1715C47.3658 35.0316 47.5939 34.5772 48.1394 34.2725C48.8592 33.8705 49.6131 33.9959 50.1085 34.2732C50.4935 34.4886 50.7011 34.772 50.7671 34.8654C50.9196 35.0812 50.9884 35.274 50.9979 35.2996L47.2079 36.7123C47.2266 36.7626 47.3038 36.9731 47.4639 37.1996C47.5337 37.2984 47.7449 37.5855 48.1332 37.8028C48.632 38.0819 49.389 38.2074 50.1117 37.8038C50.6601 37.4975 50.8909 37.0398 50.9591 36.8948C51.0494 36.7032 51.0899 36.5388 51.1077 36.4582C51.1447 36.2902 51.1534 36.1504 51.1564 36.0913L47.1171 35.8827ZM47.3975 34.8513C47.3321 34.9874 47.2788 35.1255 47.2385 35.2507C47.215 35.3238 47.1331 35.5768 47.1171 35.8812L51.1563 36.0928C51.1517 36.1808 51.1419 36.25 51.1352 36.2911C51.128 36.3352 51.1204 36.3703 51.1149 36.3942C51.1041 36.4408 51.094 36.4736 51.0885 36.4907C51.0786 36.5214 51.066 36.5555 51.0441 36.6011L47.3975 34.8513ZM47.0653 36.3563C47.0535 36.2473 47.0532 36.1596 47.054 36.1104C47.0548 36.0565 47.0577 36.0122 47.0601 35.9823C47.0648 35.924 47.0711 35.8786 47.0744 35.856C47.0812 35.8097 47.0879 35.7767 47.0895 35.7692C47.0933 35.7502 47.0947 35.7455 47.09 35.7653C47.0815 35.8001 47.0657 35.8621 47.0417 35.9518C46.9946 36.1277 46.9268 36.3713 46.85 36.6374L50.7361 37.7589C50.8183 37.4742 50.8936 37.2043 50.9491 36.9967C50.9764 36.8946 51.0017 36.7972 51.0212 36.7168C51.0304 36.6789 51.0424 36.6276 51.0532 36.5745C51.0582 36.5499 51.0675 36.5028 51.0759 36.4459C51.08 36.418 51.0869 36.3681 51.0918 36.3061C51.0948 36.2689 51.1075 36.1164 51.0868 35.9236L47.0653 36.3563ZM50.3828 38.8225C50.4115 38.6908 50.5527 38.1828 50.7124 37.6451C50.7875 37.3923 50.857 37.1659 50.9059 37.0142C50.9178 36.9771 50.9276 36.9475 50.9351 36.9251C50.9433 36.901 50.9463 36.8931 50.945 36.8964C50.9444 36.8982 50.9399 36.9102 50.9324 36.9287C50.9275 36.9407 50.9075 36.9898 50.8754 37.0537C50.86 37.0843 50.8263 37.1496 50.7758 37.2288C50.7535 37.2638 50.61 37.4967 50.3427 37.7121C50.2106 37.8187 49.8748 38.0646 49.3649 38.1386C48.7329 38.2303 48.1183 38.0171 47.6835 37.6048C47.3334 37.2727 47.199 36.9083 47.1506 36.758C47.0934 36.5804 47.0734 36.4328 47.0651 36.3547L51.087 35.9252C51.0785 35.8458 51.0583 35.6971 51.0008 35.5186C50.9521 35.3675 50.8174 35.0025 50.4668 34.67C50.0317 34.2573 49.4166 34.0439 48.784 34.1357C48.2736 34.2098 47.9372 34.456 47.8044 34.5631C47.5358 34.7796 47.3907 35.0145 47.3665 35.0524C47.3142 35.1344 47.2784 35.2036 47.2607 35.2388C47.2006 35.3586 47.1603 35.4694 47.1521 35.4915C47.1197 35.5791 47.0855 35.6825 47.0562 35.7733C46.9937 35.9671 46.9144 36.2268 46.8353 36.4929C46.6867 36.9929 46.4978 37.6539 46.4308 37.9614L50.3828 38.8225ZM50.2065 39.6299C50.2573 39.3979 50.3366 39.0348 50.3828 38.8224L46.4308 37.9615C46.3848 38.1724 46.3058 38.5344 46.2552 38.7655L50.2065 39.6299ZM50.1644 39.6678C50.1654 39.695 50.1657 39.7185 50.1656 39.7372C50.1656 39.7562 50.1653 39.7727 50.1649 39.7861C50.1642 39.8125 50.163 39.8332 50.162 39.8466C50.1611 39.8603 50.1602 39.8708 50.1596 39.8772C50.159 39.8838 50.1585 39.8882 50.1583 39.8901C50.1579 39.8935 50.158 39.8917 50.1591 39.8838C50.1602 39.8764 50.1618 39.8657 50.164 39.8519C50.1685 39.8238 50.1746 39.7887 50.1822 39.7491C50.1897 39.7097 50.1979 39.6692 50.2064 39.6304L46.2553 38.765C46.2223 38.916 46.1926 39.0727 46.1703 39.2111C46.162 39.2634 46.1124 39.5474 46.1224 39.8178L50.1644 39.6678ZM46.3648 38.5609C46.3184 38.7858 46.2844 38.9501 46.2589 39.07C46.2308 39.2019 46.2208 39.2427 46.2209 39.2426C46.2218 39.239 46.2264 39.2216 46.2343 39.1958C46.2402 39.1763 46.2591 39.1151 46.2916 39.0363C46.2956 39.0265 46.4055 38.7324 46.6678 38.4474C46.794 38.3103 47.1938 37.9097 47.8762 37.8152C48.7079 37.7 49.3217 38.1081 49.6285 38.436C49.8883 38.7137 50.0011 38.9936 50.0385 39.0912C50.0872 39.2183 50.1124 39.3233 50.1243 39.3779C50.1482 39.4875 50.1567 39.5727 50.159 39.596C50.1644 39.6509 50.1652 39.6891 50.1643 39.6672L46.1224 39.8185C46.1232 39.8379 46.1257 39.9109 46.1336 39.9915C46.1372 40.0277 46.1471 40.1236 46.1728 40.2412C46.1856 40.2998 46.2117 40.4082 46.2614 40.538C46.2998 40.6383 46.4137 40.9202 46.6748 41.1992C46.9827 41.5284 47.5979 41.937 48.431 41.8217C49.1148 41.727 49.5161 41.3254 49.6439 41.1865C49.9094 40.898 50.023 40.5972 50.0313 40.5772C50.0925 40.4285 50.1267 40.2939 50.1343 40.2648C50.1783 40.0965 50.2417 39.7877 50.3263 39.3773L46.3648 38.5609ZM46.85 36.6374C46.6809 37.2234 46.4653 38.073 46.3647 38.5611L50.3263 39.3772C50.4001 39.0187 50.5874 38.2745 50.7361 37.7589L46.85 36.6374ZM46.1027 40.0914C46.1027 40.0906 46.1027 40.0861 46.1029 40.0784C46.1031 40.0711 46.1036 40.0575 46.1048 40.0389C46.1052 40.0325 46.1114 39.9081 46.1507 39.7447C46.159 39.7101 46.224 39.4105 46.4392 39.093C46.5471 38.9339 46.8412 38.5461 47.4008 38.3363C48.0844 38.0799 48.7405 38.2389 49.1825 38.5159C49.544 38.7424 49.7369 39.0233 49.8091 39.1361C49.8971 39.2735 49.9495 39.3927 49.9762 39.458C50.0297 39.5892 50.0558 39.6948 50.0648 39.7324L46.1314 40.675C46.1441 40.728 46.1739 40.8455 46.2309 40.9853C46.2593 41.0549 46.3134 41.1775 46.4031 41.3176C46.477 41.433 46.6715 41.7157 47.0346 41.9432C47.4782 42.2212 48.136 42.3804 48.821 42.1235C49.3821 41.9131 49.6778 41.5239 49.7871 41.3627C50.0052 41.041 50.0728 40.7341 50.0836 40.6893C50.1517 40.4055 50.1474 40.1357 50.1474 40.0914H46.1027ZM50.0648 40.4505C50.0558 40.4881 50.0297 40.5937 49.9762 40.7249C49.9495 40.7902 49.8971 40.9094 49.8091 41.0468C49.7369 41.1596 49.544 41.4404 49.1826 41.6669C48.7406 41.944 48.0844 42.103 47.4009 41.8466C46.8413 41.6368 46.5471 41.249 46.4392 41.0899C46.224 40.7724 46.159 40.4728 46.1507 40.4382C46.1114 40.2748 46.1052 40.1504 46.1048 40.144C46.1036 40.1253 46.1031 40.1118 46.1029 40.1045C46.1027 40.0968 46.1027 40.0923 46.1027 40.0914H50.1474C50.1474 40.0472 50.1517 39.7773 50.0836 39.4936C50.0728 39.4488 50.0052 39.1419 49.7871 38.8201C49.6778 38.659 49.3821 38.2698 48.821 38.0594C48.1359 37.8025 47.4782 37.9617 47.0345 38.2397C46.6715 38.4673 46.477 38.7499 46.4031 38.8653C46.3134 39.0054 46.2593 39.128 46.2309 39.1976C46.1739 39.3374 46.1441 39.4549 46.1314 39.5079L50.0648 40.4505ZM50.0644 39.7306C50.0881 39.8294 50.098 39.9081 50.1026 39.9556C50.1076 40.0071 50.1093 40.0523 50.1093 40.0914C50.1093 40.1306 50.1076 40.1758 50.1026 40.2273C50.098 40.2748 50.0881 40.3535 50.0644 40.4523L46.1318 39.5062C46.0422 39.8789 46.0422 40.304 46.1318 40.6767L50.0644 39.7306ZM46.0355 40.4005C46.0201 40.5516 45.9672 41.0504 45.9176 41.5096L49.9389 41.944C49.9884 41.4862 50.0427 40.9748 50.0596 40.8085L46.0355 40.4005ZM46.0647 40.112L46.0355 40.4006L50.0596 40.8084L50.0888 40.5198L46.0647 40.112ZM49.9925 41.0037L50.0453 40.7792L46.1082 39.8526L46.0554 40.077L49.9925 41.0037ZM50.102 48.7737C49.9319 48.0904 49.7978 46.5536 49.7751 44.8381C49.7522 43.112 49.8478 41.6183 49.9925 41.0039L46.0554 40.0768C45.7856 41.2226 45.7078 43.1612 45.7307 44.8917C45.7538 46.6327 45.8848 48.5768 46.1771 49.7509L50.102 48.7737ZM50.3197 49.5436L50.0863 48.7144L46.1928 49.8101L46.4262 50.6394L50.3197 49.5436ZM50.3217 49.9627C50.2793 49.7644 50.2614 49.6629 50.2558 49.6261C50.2519 49.6005 50.2596 49.6426 50.2634 49.7187C50.2649 49.75 50.2699 49.8575 50.2551 49.9992C50.2478 50.0693 50.2302 50.2049 50.1799 50.3699C50.1392 50.5036 50.0194 50.8567 49.6939 51.1898C49.2823 51.6107 48.6512 51.8776 47.9573 51.7757C47.4086 51.6952 47.0579 51.4155 46.9311 51.3057C46.6682 51.0779 46.5343 50.8368 46.5185 50.8097C46.4743 50.7338 46.4467 50.674 46.4361 50.6504C46.4231 50.6216 46.4149 50.6011 46.4117 50.5929C46.4035 50.572 46.4121 50.5924 46.4335 50.6649L50.3123 49.5181C50.2766 49.3974 50.2304 49.2521 50.1778 49.1178C50.159 49.0697 50.1032 48.9277 50.0131 48.7731C49.9894 48.7323 49.8484 48.4815 49.5794 48.2485C49.4496 48.136 49.0961 47.8548 48.5449 47.7739C47.8484 47.6716 47.2151 47.9393 46.8016 48.3623C46.4741 48.6973 46.3526 49.0536 46.3106 49.1917C46.259 49.3612 46.2403 49.5025 46.2322 49.5796C46.216 49.7353 46.2208 49.8621 46.2236 49.9182C46.2298 50.0439 46.2455 50.158 46.2564 50.2298C46.2803 50.388 46.3183 50.5833 46.3665 50.8086L50.3217 49.9627ZM47.0385 49.7368C47.247 49.5101 47.5793 49.2557 48.0461 49.1416C48.5176 49.0262 48.9412 49.0992 49.2499 49.2176C49.7708 49.4174 50.0497 49.7736 50.1072 49.846C50.2771 50.0597 50.361 50.2599 50.3681 50.2761C50.395 50.3367 50.4121 50.3839 50.4188 50.4028C50.427 50.4259 50.4324 50.4427 50.4347 50.4501C50.4409 50.4698 50.4376 50.4611 50.4236 50.4061C50.3987 50.3084 50.3621 50.1516 50.3218 49.9629L46.3664 50.8084C46.4137 51.0299 46.4622 51.2402 46.5037 51.4035C46.5229 51.4789 46.5482 51.5742 46.5762 51.6635C46.5857 51.6935 46.6181 51.7972 46.6703 51.915C46.6812 51.9395 46.7683 52.1456 46.9408 52.3627C46.9997 52.4368 47.2798 52.7941 47.8018 52.9942C48.1111 53.1129 48.5352 53.1859 49.0072 53.0705C49.4744 52.9562 49.8072 52.7016 50.016 52.4744L47.0385 49.7368ZM46.4336 50.6649C46.4721 50.7953 46.5102 50.9517 46.5287 51.0561C46.5393 51.1162 46.5325 51.0984 46.5302 51.0297C46.5292 50.9993 46.526 50.8867 46.5507 50.7324C46.5635 50.6526 46.5898 50.5225 46.6484 50.3678C46.7049 50.2187 46.8174 49.9773 47.0385 49.7368L50.0161 52.4743C50.4389 52.0144 50.5233 51.5047 50.5445 51.3726C50.577 51.1698 50.5761 50.9964 50.5727 50.8955C50.5658 50.6858 50.5358 50.4885 50.5115 50.3514C50.4603 50.0616 50.3819 49.7536 50.3123 49.5182L46.4336 50.6649ZM46.1943 49.6605L46.4041 50.5539L50.3418 49.6292L50.132 48.7358L46.1943 49.6605ZM46.0163 48.3698C46.0775 48.8192 46.1386 49.292 46.1534 49.4236L50.1729 48.9727C50.1521 48.7868 50.0846 48.2686 50.0241 47.8242L46.0163 48.3698ZM45.9175 41.5099C45.6912 43.6077 45.7299 46.2639 46.0163 48.3696L50.0241 47.8244C49.7814 46.0402 49.7481 43.7128 49.9389 41.9437L45.9175 41.5099ZM46.4243 50.6328C46.4263 50.6399 46.428 50.6456 46.4289 50.6488C46.4293 50.6505 46.4297 50.6518 46.43 50.6526C46.4301 50.653 46.4302 50.6533 46.4302 50.6535C46.4303 50.6536 46.4303 50.6537 46.4303 50.6538C46.4303 50.6538 46.4303 50.6538 46.4303 50.6538C46.4303 50.6538 46.4303 50.6538 46.4303 50.6538C46.4303 50.6538 46.4303 50.6538 46.4303 50.6538L46.4303 50.6538C46.4305 50.6543 46.4297 50.6518 46.4289 50.6488C46.428 50.6457 46.4263 50.64 46.4244 50.6328L50.3215 49.5503C50.3195 49.5431 50.3179 49.5374 50.317 49.5342C50.3165 49.5326 50.3161 49.5312 50.3159 49.5304C50.3158 49.53 50.3157 49.5297 50.3156 49.5295C50.3156 49.5294 50.3156 49.5293 50.3156 49.5293C50.3156 49.5292 50.3156 49.5292 50.3156 49.5292C50.3156 49.5292 50.3156 49.5292 50.3156 49.5292C50.3156 49.5292 50.3156 49.5292 50.3156 49.5292V49.5292C50.3154 49.5287 50.3162 49.5313 50.317 49.5342C50.3179 49.5373 50.3195 49.543 50.3215 49.5502L46.4243 50.6328ZM50.3215 49.5503L50.3215 49.5502L46.4243 50.6328L46.4244 50.6328L50.3215 49.5503ZM46.411 50.582L46.411 50.582L50.3349 49.6011L50.3349 49.601L46.411 50.582Z" fill="#96A9EB" mask="url(#path-4-outside-1_3023_18)"/>
</svg>
